{"glyphs":{"0":{"ha":972,"x_min":56,"x_max":917,"o":"m 417 0 q 254 17 322 0 q 142 73 186 33 q 77 176 99 113 q 56 333 56 239 l 56 833 q 77 990 56 926 q 142 1094 99 1054 q 254 1150 186 1133 q 417 1167 322 1167 l 556 1167 q 717 1150 649 1167 q 830 1094 786 1133 q 895 990 874 1054 q 917 833 917 926 l 917 333 q 895 176 917 239 q 830 73 874 113 q 717 17 786 33 q 556 0 649 0 l 417 0 m 167 333 q 178 234 167 276 q 219 165 190 192 q 295 124 247 138 q 417 111 343 111 l 556 111 q 676 124 628 111 q 753 165 725 138 q 794 234 782 192 q 806 333 806 276 l 806 833 q 794 933 806 890 q 753 1002 782 975 q 676 1042 725 1029 q 556 1056 628 1056 l 417 1056 q 295 1042 343 1056 q 219 1002 247 1029 q 178 933 190 975 q 167 833 167 890 l 167 333 m 356 363 l 356 404 q 359 463 356 440 q 374 497 363 485 q 408 512 386 508 q 467 515 431 515 l 508 515 q 567 512 544 515 q 601 497 589 508 q 616 463 613 485 q 619 404 619 440 l 619 363 q 616 304 619 326 q 601 270 613 282 q 567 255 589 258 q 508 251 544 251 l 467 251 q 408 255 431 251 q 374 270 386 258 q 359 304 363 282 q 356 363 356 326 z "},"1":{"ha":556,"x_min":56,"x_max":500,"o":"m 56 443 q 62 483 56 469 q 78 506 68 497 q 101 517 88 514 q 129 526 114 521 q 156 535 143 532 q 176 547 168 539 q 190 569 185 556 q 194 610 194 583 l 194 889 q 189 929 194 915 q 173 951 183 943 q 149 963 163 960 q 122 972 136 967 q 95 983 107 978 q 74 999 83 989 q 60 1026 65 1010 q 56 1069 56 1042 q 59 1119 56 1100 q 74 1149 63 1139 q 108 1163 86 1160 q 167 1167 131 1167 l 194 1167 q 253 1163 231 1167 q 287 1148 275 1160 q 302 1114 299 1136 q 306 1056 306 1092 l 306 639 q 309 580 306 601 q 323 547 313 558 q 352 531 333 535 q 403 528 371 528 q 453 524 433 528 q 483 508 472 519 q 497 474 493 496 q 500 417 500 453 l 500 111 q 497 53 500 75 q 481 19 493 31 q 447 3 469 7 q 389 0 425 0 l 167 0 q 108 3 131 0 q 74 19 86 7 q 59 53 63 31 q 56 111 56 75 l 56 443 z "},"2":{"ha":613,"x_min":57,"x_max":557,"o":"m 279 111 l 474 111 q 518 107 501 111 q 543 96 535 103 q 553 78 551 89 q 556 56 556 68 q 553 33 556 43 q 542 15 550 22 q 517 4 533 8 q 472 0 500 0 l 279 0 q 156 6 201 0 q 89 33 111 11 q 62 99 67 54 q 57 221 57 143 l 57 401 q 63 525 57 481 q 90 592 68 569 q 157 619 113 614 q 279 625 201 625 l 335 625 q 393 628 371 625 q 427 644 415 632 q 442 678 439 656 q 446 736 446 700 l 446 944 q 442 1003 446 981 q 427 1037 439 1025 q 393 1052 415 1049 q 335 1056 371 1056 l 139 1056 q 94 1060 111 1056 q 69 1071 78 1064 q 59 1088 61 1078 q 57 1111 57 1099 q 60 1134 57 1124 q 71 1151 63 1144 q 96 1163 79 1158 q 140 1167 113 1167 l 335 1167 q 457 1161 413 1167 q 524 1133 501 1156 q 551 1067 546 1111 q 557 944 557 1022 l 557 736 q 551 614 557 658 q 524 547 546 569 q 457 519 501 525 q 335 514 413 514 l 279 514 q 221 510 243 514 q 187 495 199 507 q 172 461 175 483 q 168 401 168 439 l 168 224 q 172 164 168 186 q 187 130 175 142 q 221 115 199 118 q 279 111 243 111 z "},"3":{"ha":736,"x_min":56,"x_max":681,"o":"m 139 528 q 71 543 86 528 q 56 583 56 558 q 71 624 56 608 q 139 639 86 639 l 319 639 q 378 642 356 639 q 412 658 400 646 q 427 692 424 669 q 431 750 431 714 l 431 944 q 427 1003 431 981 q 412 1037 424 1025 q 378 1052 400 1049 q 319 1056 356 1056 l 139 1056 q 71 1071 86 1056 q 56 1111 56 1086 q 71 1151 56 1136 q 139 1167 86 1167 l 319 1167 q 442 1161 397 1167 q 508 1133 486 1156 q 536 1067 531 1111 q 542 944 542 1022 l 542 696 q 555 619 542 643 q 597 583 568 594 q 653 548 626 572 q 681 471 681 524 l 681 222 q 675 100 681 144 q 647 33 669 56 q 581 6 625 11 q 458 0 536 0 l 139 0 q 71 15 86 0 q 56 56 56 31 q 71 96 56 81 q 139 111 86 111 l 319 111 q 378 115 356 111 q 412 130 400 118 q 427 164 424 142 q 431 222 431 186 l 431 417 q 427 475 431 453 q 412 509 424 497 q 378 524 400 521 q 319 528 356 528 l 139 528 z "},"4":{"ha":861,"x_min":56,"x_max":806,"o":"m 556 167 q 552 225 556 203 q 537 259 549 247 q 503 274 525 271 q 444 278 481 278 l 278 278 q 156 283 200 278 q 89 311 111 289 q 61 378 67 333 q 56 500 56 422 l 56 1056 q 59 1114 56 1092 q 74 1148 63 1136 q 108 1163 86 1160 q 167 1167 131 1167 l 194 1167 q 253 1163 231 1167 q 287 1148 275 1160 q 302 1114 299 1136 q 306 1056 306 1092 l 306 500 q 309 442 306 464 q 324 408 313 419 q 358 392 336 396 q 417 389 381 389 l 497 389 q 537 397 525 389 q 553 418 549 406 q 560 444 557 431 q 572 471 563 458 q 601 492 581 483 q 664 500 622 500 l 694 500 q 753 497 731 500 q 787 481 775 493 q 802 447 799 469 q 806 389 806 425 l 806 110 q 802 52 806 74 q 787 19 799 31 q 753 3 775 7 q 694 0 731 0 l 667 0 q 608 3 631 0 q 574 19 586 7 q 559 53 563 31 q 556 111 556 75 l 556 167 z "},"5":{"ha":724,"x_min":56,"x_max":667,"o":"m 333 111 q 392 115 369 111 q 426 130 414 118 q 441 164 438 142 q 444 224 444 186 l 444 401 q 441 461 444 439 q 426 495 438 483 q 392 510 414 507 q 333 514 369 514 l 278 514 q 156 519 200 514 q 89 547 111 525 q 61 614 67 569 q 56 736 56 658 l 56 944 q 61 1067 56 1022 q 89 1133 67 1111 q 156 1161 111 1156 q 278 1167 200 1167 l 583 1167 q 628 1163 611 1167 q 653 1151 644 1158 q 664 1134 661 1144 q 667 1111 667 1124 q 665 1088 667 1099 q 654 1071 663 1078 q 629 1060 646 1064 q 585 1056 613 1056 l 278 1056 q 219 1052 242 1056 q 185 1037 197 1049 q 170 1003 174 1025 q 167 944 167 981 l 167 736 q 170 678 167 700 q 185 644 174 656 q 219 628 197 632 q 278 625 242 625 l 444 625 q 567 619 522 625 q 633 592 611 614 q 661 525 656 569 q 667 401 667 481 l 667 221 q 662 99 667 143 q 635 33 657 54 q 567 6 613 11 q 444 0 522 0 l 140 0 q 96 4 113 0 q 71 15 79 8 q 60 33 63 22 q 57 56 57 43 q 59 78 57 68 q 69 96 61 89 q 94 107 78 103 q 139 111 111 111 l 333 111 z "},"6":{"ha":861,"x_min":56,"x_max":806,"o":"m 444 949 q 441 1004 444 983 q 426 1037 438 1025 q 392 1052 414 1049 q 333 1056 369 1056 l 279 1056 q 219 1052 242 1056 q 185 1037 197 1049 q 170 1003 174 1025 q 167 944 167 981 l 167 611 q 170 553 167 575 q 185 519 174 531 q 219 503 197 507 q 279 500 242 500 l 583 500 q 706 494 661 500 q 772 467 750 489 q 800 400 794 444 q 806 278 806 356 l 806 222 q 800 100 806 144 q 772 33 794 56 q 706 6 750 11 q 583 0 661 0 l 278 0 q 156 6 200 0 q 89 33 111 11 q 61 100 67 56 q 56 222 56 144 l 56 944 q 61 1067 56 1022 q 89 1133 67 1111 q 156 1161 111 1156 q 279 1167 200 1167 l 333 1167 q 456 1161 411 1167 q 522 1133 500 1156 q 550 1067 544 1111 q 556 944 556 1022 l 556 931 q 544 863 556 878 q 500 847 532 847 q 456 863 468 847 q 444 931 444 878 l 444 949 m 167 222 q 170 164 167 186 q 185 130 174 142 q 219 115 197 118 q 278 111 242 111 l 583 111 q 642 115 619 111 q 676 130 664 118 q 691 164 688 142 q 694 222 694 186 l 694 276 q 691 335 694 313 q 676 369 688 357 q 642 384 664 381 q 583 388 619 388 l 278 388 q 219 384 242 388 q 185 369 197 381 q 170 335 174 357 q 167 278 167 314 l 167 222 z "},"7":{"ha":750,"x_min":56,"x_max":694,"o":"m 583 944 q 580 1003 583 981 q 565 1037 576 1025 q 531 1052 553 1049 q 471 1056 508 1056 l 278 1056 q 219 1052 242 1056 q 185 1037 197 1049 q 170 1004 174 1025 q 167 949 167 983 l 167 847 q 155 779 167 794 q 111 764 143 764 q 67 779 79 764 q 56 847 56 794 l 56 944 q 61 1067 56 1022 q 89 1133 67 1111 q 156 1161 111 1156 q 278 1167 200 1167 l 471 1167 q 594 1161 550 1167 q 661 1133 639 1156 q 689 1067 683 1111 q 694 944 694 1022 l 694 833 q 692 742 694 775 q 678 690 690 710 q 640 654 667 669 q 565 617 614 639 l 478 575 q 442 557 454 564 q 424 540 431 550 q 417 511 418 529 q 417 463 417 493 l 417 83 q 405 15 417 31 q 361 0 393 0 q 317 15 329 0 q 306 83 306 31 l 306 463 q 308 553 306 521 q 321 605 310 585 q 358 640 332 625 q 429 676 383 654 l 517 718 q 555 738 542 731 q 574 757 568 746 q 582 785 581 768 q 583 833 583 803 l 583 944 z "},"8":{"ha":972,"x_min":56,"x_max":917,"o":"m 278 0 q 156 6 200 0 q 89 33 111 11 q 61 100 67 56 q 56 222 56 144 l 56 485 q 83 562 56 538 q 139 597 110 586 q 181 633 168 608 q 194 710 194 657 l 194 944 q 200 1067 194 1022 q 228 1133 206 1111 q 294 1161 250 1156 q 417 1167 339 1167 l 556 1167 q 678 1161 633 1167 q 744 1133 722 1156 q 772 1067 767 1111 q 778 944 778 1022 l 778 710 q 791 633 778 657 q 833 597 804 608 q 890 562 863 586 q 917 485 917 538 l 917 222 q 911 100 917 144 q 883 33 906 56 q 817 6 861 11 q 694 0 772 0 l 278 0 m 417 528 q 358 524 381 528 q 324 509 336 521 q 309 475 313 497 q 306 417 306 453 l 306 222 q 309 164 306 186 q 324 130 313 142 q 358 115 336 118 q 417 111 381 111 l 556 111 q 614 115 592 111 q 648 130 636 118 q 663 164 660 142 q 667 222 667 186 l 667 417 q 663 475 667 453 q 648 509 660 497 q 614 524 636 521 q 556 528 592 528 l 417 528 m 417 1056 q 358 1052 381 1056 q 324 1037 336 1049 q 309 1003 313 1025 q 306 944 306 981 l 306 750 q 309 692 306 714 q 324 658 313 669 q 358 642 336 646 q 417 639 381 639 l 556 639 q 614 642 592 639 q 648 658 636 646 q 663 692 660 669 q 667 750 667 714 l 667 944 q 663 1003 667 981 q 648 1037 660 1025 q 614 1052 636 1049 q 556 1056 592 1056 l 417 1056 z "},"9":{"ha":861,"x_min":56,"x_max":806,"o":"m 694 0 q 620 4 647 0 q 578 21 593 8 q 560 58 564 33 q 556 125 556 83 l 556 417 q 552 475 556 453 q 537 509 549 497 q 503 524 525 521 q 443 528 481 528 l 278 528 q 156 533 200 528 q 89 561 111 539 q 61 628 67 583 q 56 750 56 672 l 56 944 q 61 1067 56 1022 q 89 1133 67 1111 q 156 1161 111 1156 q 278 1167 200 1167 l 583 1167 q 706 1161 661 1167 q 772 1133 750 1156 q 800 1067 794 1111 q 806 944 806 1022 l 806 125 q 802 58 806 83 q 787 21 799 33 q 753 4 775 8 q 694 0 731 0 m 694 944 q 691 1003 694 981 q 676 1037 688 1025 q 642 1052 664 1049 q 583 1056 619 1056 l 278 1056 q 219 1052 242 1056 q 185 1037 197 1049 q 170 1003 174 1025 q 167 944 167 981 l 167 751 q 170 693 167 715 q 185 659 174 671 q 219 644 197 647 q 278 640 242 640 l 583 640 q 642 644 619 640 q 676 659 664 647 q 691 692 688 671 q 694 750 694 714 l 694 944 z "},"\r":{"ha":450,"x_min":0,"x_max":0,"o":""}," ":{"ha":500,"x_min":0,"x_max":0,"o":""},"!":{"ha":374,"x_min":38,"x_max":342,"o":"m 43 921 q 39 959 40 939 q 38 996 38 979 q 78 1114 38 1069 q 188 1158 119 1158 q 299 1114 256 1158 q 342 996 342 1069 q 340 956 342 979 q 333 911 338 932 l 233 367 q 186 314 226 314 q 153 328 167 314 q 136 367 140 343 l 43 921 m 56 147 q 59 206 56 183 q 74 240 63 228 q 108 255 86 251 q 167 258 131 258 l 208 258 q 267 255 244 258 q 301 240 289 251 q 316 206 313 228 q 319 147 319 183 l 319 106 q 316 47 319 69 q 301 13 313 25 q 267 -2 289 1 q 208 -6 244 -6 l 167 -6 q 108 -2 131 -6 q 74 13 86 1 q 59 47 63 25 q 56 106 56 69 l 56 147 z "},"\"":{"ha":389,"x_min":56,"x_max":333,"o":"m 111 833 q 67 849 79 833 q 56 917 56 864 l 56 1069 q 67 1138 56 1122 q 111 1153 79 1153 q 155 1138 143 1153 q 167 1069 167 1122 l 167 917 q 155 849 167 864 q 111 833 143 833 m 278 833 q 234 849 246 833 q 222 917 222 864 l 222 1069 q 234 1138 222 1122 q 278 1153 246 1153 q 322 1138 310 1153 q 333 1069 333 1122 l 333 917 q 322 849 333 864 q 278 833 310 833 z "},"#":{"ha":833,"x_min":56,"x_max":778,"o":"m 778 764 q 774 740 778 749 q 762 728 771 732 q 737 723 753 724 q 694 722 721 722 l 617 722 l 542 444 l 625 444 q 692 439 676 444 q 708 403 708 433 q 705 379 708 388 q 692 367 701 371 q 667 362 683 363 q 625 361 651 361 l 519 361 l 439 58 q 427 18 432 33 q 417 -5 422 3 q 402 -12 411 -12 q 378 -8 393 -12 q 347 18 347 0 q 360 86 346 36 l 433 361 l 281 361 l 200 61 q 188 21 193 36 q 178 -2 183 6 q 163 -10 172 -10 q 139 -6 154 -10 q 108 21 108 3 q 121 89 107 39 l 193 361 l 139 361 q 97 362 113 361 q 72 367 81 363 q 59 379 63 371 q 56 403 56 388 q 59 426 56 418 q 72 439 63 435 q 97 444 81 443 q 139 444 113 444 l 215 444 l 290 722 l 208 722 q 166 723 182 722 q 141 728 150 724 q 128 740 132 732 q 125 764 125 749 q 128 788 125 779 q 141 800 132 796 q 166 805 150 804 q 208 806 182 806 l 313 806 l 394 1108 q 406 1149 401 1133 q 417 1172 411 1164 q 431 1179 422 1179 q 456 1175 440 1179 q 487 1149 486 1167 q 474 1081 488 1131 l 399 806 l 553 806 l 633 1106 q 645 1146 640 1131 q 656 1169 650 1161 q 670 1176 661 1176 q 694 1172 679 1176 q 726 1146 725 1164 q 713 1078 726 1128 l 639 806 l 694 806 q 762 800 746 806 q 778 764 778 794 m 303 444 l 456 444 l 531 722 l 376 722 l 303 444 z "},"$":{"ha":696,"x_min":56,"x_max":639,"o":"m 278 -97 q 254 -94 263 -97 q 242 -81 246 -90 q 237 -56 238 -72 q 236 -14 236 -40 l 236 0 l 140 0 q 96 4 113 0 q 71 15 79 8 q 60 33 63 22 q 57 56 57 43 q 59 78 57 68 q 69 96 61 89 q 94 107 78 103 q 139 111 111 111 l 236 111 l 236 472 q 136 481 172 474 q 82 512 100 489 q 60 578 64 535 q 56 694 56 621 l 56 833 q 60 949 56 906 q 82 1016 64 993 q 136 1047 100 1039 q 236 1056 172 1054 l 236 1069 q 237 1112 236 1096 q 242 1137 238 1128 q 254 1149 246 1146 q 278 1153 263 1153 q 314 1137 308 1153 q 319 1069 319 1121 l 319 1056 l 375 1056 l 375 1069 q 376 1112 375 1096 q 381 1137 376 1128 q 393 1149 385 1146 q 417 1153 401 1153 q 453 1137 447 1153 q 458 1069 458 1121 l 458 1056 l 556 1056 q 600 1051 583 1056 q 625 1040 617 1047 q 636 1023 633 1033 q 639 1000 639 1013 q 637 977 639 988 q 626 960 635 967 q 601 949 618 953 q 557 944 585 944 l 458 944 l 458 583 q 557 574 521 582 q 611 543 593 567 q 634 476 629 519 q 639 360 639 432 l 639 221 q 635 106 639 149 q 613 40 631 63 q 558 9 594 17 q 458 0 521 1 l 458 -14 q 458 -56 458 -40 q 453 -81 457 -72 q 440 -94 449 -90 q 417 -97 432 -97 q 393 -94 401 -97 q 381 -81 385 -90 q 376 -56 376 -72 q 375 -14 375 -40 l 375 0 l 319 0 l 319 -14 q 319 -56 319 -40 q 314 -81 318 -72 q 301 -94 310 -90 q 278 -97 293 -97 m 167 694 q 179 611 167 633 q 236 585 192 589 l 236 943 q 179 916 192 939 q 167 833 167 893 l 167 694 m 528 360 q 515 444 528 421 q 458 471 503 467 l 458 113 q 515 140 503 117 q 528 224 528 163 l 528 360 m 319 111 l 375 111 l 375 472 l 319 472 l 319 111 m 319 583 l 375 583 l 375 944 l 319 944 l 319 583 z "},"%":{"ha":944,"x_min":56,"x_max":889,"o":"m 210 33 q 190 9 201 18 q 164 0 179 0 q 133 13 144 0 q 122 38 122 26 q 126 56 122 47 q 135 75 129 65 l 722 1115 q 742 1140 731 1131 q 768 1149 754 1149 q 799 1135 788 1149 q 810 1111 810 1122 q 806 1092 810 1101 q 797 1074 803 1083 l 210 33 m 236 667 q 99 703 142 667 q 56 833 56 739 l 56 1000 q 99 1131 56 1094 q 236 1167 142 1167 l 264 1167 q 401 1131 358 1167 q 444 1000 444 1094 l 444 833 q 401 703 444 739 q 264 667 358 667 l 236 667 m 139 861 q 142 806 139 828 q 158 772 146 785 q 192 755 169 760 q 250 750 214 750 q 308 755 286 750 q 342 772 331 760 q 358 806 354 785 q 361 861 361 828 l 361 972 q 358 1027 361 1006 q 342 1061 354 1049 q 308 1078 331 1074 q 250 1083 286 1083 q 192 1078 214 1083 q 158 1061 169 1074 q 142 1027 146 1049 q 139 972 139 1006 l 139 861 m 192 875 l 192 882 q 201 928 192 918 q 247 938 211 938 l 254 938 q 300 928 290 938 q 310 882 310 918 l 310 875 q 300 829 310 839 q 254 819 290 819 l 247 819 q 201 829 211 819 q 192 875 192 839 m 681 0 q 543 36 586 0 q 500 167 500 72 l 500 333 q 543 464 500 428 q 681 500 586 500 l 708 500 q 846 464 803 500 q 889 333 889 428 l 889 167 q 846 36 889 72 q 708 0 803 0 l 681 0 m 583 194 q 587 140 583 161 q 602 106 590 118 q 636 88 614 93 q 694 83 658 83 q 753 88 731 83 q 787 106 775 93 q 802 140 799 118 q 806 194 806 161 l 806 319 q 802 367 806 349 q 787 397 799 386 q 753 413 775 408 q 694 417 731 417 q 636 413 658 417 q 602 397 614 408 q 587 367 590 386 q 583 319 583 349 l 583 194 m 636 208 l 636 215 q 646 261 636 251 q 692 271 656 271 l 699 271 q 744 261 735 271 q 754 215 754 251 l 754 208 q 744 163 754 172 q 699 153 735 153 l 692 153 q 646 163 656 153 q 636 208 636 172 z "},"&":{"ha":915,"x_min":56,"x_max":875,"o":"m 735 -32 q 721 -15 726 -21 q 708 -5 715 -8 q 692 -1 701 -1 q 667 0 683 0 l 167 0 q 108 3 131 0 q 74 19 86 7 q 59 53 63 31 q 56 111 56 75 l 56 458 q 61 501 56 485 q 76 527 67 517 q 97 544 85 538 q 125 556 110 550 q 152 567 139 561 q 174 583 165 572 q 189 610 183 593 q 194 653 194 626 l 194 944 q 200 1067 194 1022 q 228 1133 206 1111 q 294 1161 250 1156 q 417 1167 339 1167 l 597 1167 q 719 1161 675 1167 q 786 1133 764 1156 q 814 1067 808 1111 q 819 944 819 1022 l 819 750 q 814 628 819 672 q 786 561 808 583 q 719 533 764 539 q 597 528 675 528 l 500 528 q 482 522 488 528 q 488 500 476 515 l 669 247 q 699 224 689 219 q 711 249 708 229 q 727 283 714 275 q 764 292 740 292 q 808 276 796 292 q 819 208 819 261 l 819 111 q 821 69 819 85 q 825 42 822 53 q 834 22 828 31 q 849 0 840 13 q 873 -53 875 -35 q 843 -90 871 -71 q 799 -105 815 -110 q 758 -65 783 -100 l 735 -32 m 708 944 q 705 1003 708 981 q 690 1037 701 1025 q 656 1052 678 1049 q 597 1056 633 1056 l 417 1056 q 358 1052 381 1056 q 324 1037 336 1049 q 309 1003 313 1025 q 306 944 306 981 l 306 792 q 309 751 306 763 q 326 721 313 740 l 364 668 q 376 653 371 658 q 388 644 381 647 q 404 640 394 640 q 431 639 414 639 l 597 639 q 656 642 633 639 q 690 658 678 646 q 705 692 701 669 q 708 750 708 714 l 708 944 m 306 111 q 315 65 306 74 q 361 56 324 56 l 597 56 q 631 111 671 56 l 372 467 q 325 498 344 504 q 306 456 306 492 l 306 111 z "},"'":{"ha":294,"x_min":42,"x_max":253,"o":"m 42 1072 q 44 1119 42 1101 q 57 1146 47 1136 q 84 1158 67 1156 q 131 1161 101 1161 l 164 1161 q 210 1158 193 1161 q 238 1146 228 1156 q 250 1119 247 1136 q 253 1072 253 1101 l 253 943 q 240 881 253 910 q 205 829 228 851 q 151 794 182 807 q 86 781 121 781 q 47 803 47 781 q 60 831 47 821 q 88 850 72 840 q 115 874 103 860 q 128 918 128 889 q 122 947 128 939 q 82 965 115 954 q 59 974 67 971 q 47 984 51 978 q 42 1000 43 990 q 42 1026 42 1010 l 42 1072 z "},"(":{"ha":460,"x_min":47,"x_max":415,"o":"m 372 14 q 406 -40 396 -22 q 415 -61 415 -57 q 399 -68 415 -68 q 272 4 350 -68 q 106 246 164 104 q 47 540 47 388 q 106 835 47 693 q 272 1076 164 976 q 399 1149 350 1149 q 415 1142 415 1149 q 406 1120 415 1138 q 372 1067 396 1103 q 256 805 292 936 q 221 540 221 674 q 256 276 221 407 q 372 14 292 144 z "},")":{"ha":460,"x_min":47,"x_max":415,"o":"m 90 14 q 206 276 171 144 q 242 540 242 407 q 206 805 242 674 q 90 1067 171 936 q 57 1120 67 1103 q 47 1142 47 1138 q 64 1149 47 1149 q 190 1076 113 1149 q 357 835 299 976 q 415 540 415 693 q 357 246 415 388 q 190 4 299 104 q 64 -68 113 -68 q 47 -61 47 -68 q 57 -40 47 -57 q 90 14 67 -22 z "},"*":{"ha":456,"x_min":50,"x_max":426,"o":"m 347 931 q 347 919 346 925 q 351 915 350 917 q 354 911 353 913 l 381 869 q 388 854 388 853 q 379 835 388 839 l 329 797 q 301 793 318 789 q 282 810 290 796 l 261 842 q 239 856 251 856 q 218 843 224 856 l 190 807 q 172 793 183 796 q 153 796 160 790 l 100 838 q 93 853 93 842 q 99 869 93 860 l 121 901 q 131 924 131 917 q 121 943 133 942 l 67 964 q 54 981 58 965 q 51 1001 50 996 l 69 1051 q 86 1069 76 1068 q 110 1068 97 1072 l 149 1054 q 175 1053 167 1049 q 183 1074 183 1058 l 183 1122 q 189 1145 183 1136 q 213 1154 194 1154 l 269 1154 q 297 1147 290 1154 q 301 1128 301 1140 l 301 1079 q 304 1058 301 1067 q 317 1053 306 1056 l 325 1053 l 364 1065 q 379 1067 374 1067 q 386 1068 385 1068 q 406 1054 401 1068 l 425 1006 q 425 981 426 990 q 410 964 424 967 l 360 944 q 347 931 351 943 z "},"+":{"ha":889,"x_min":56,"x_max":833,"o":"m 444 194 q 401 210 413 194 q 389 278 389 225 l 389 472 q 388 503 389 492 q 381 519 386 514 q 364 526 375 525 q 333 528 353 528 l 139 528 q 71 540 86 528 q 56 583 56 551 q 71 627 56 615 q 139 639 86 639 l 333 639 q 364 640 353 639 q 381 647 375 642 q 388 664 386 653 q 389 694 389 675 l 389 889 q 401 957 389 942 q 444 972 413 972 q 488 957 476 972 q 500 889 500 942 l 500 694 q 501 664 500 675 q 508 647 503 653 q 525 640 514 642 q 556 639 536 639 l 750 639 q 818 627 803 639 q 833 583 833 615 q 818 540 833 551 q 750 528 803 528 l 556 528 q 525 526 536 528 q 508 519 514 525 q 501 503 503 514 q 500 472 500 492 l 500 278 q 488 210 500 225 q 444 194 476 194 z "},",":{"ha":347,"x_min":42,"x_max":306,"o":"m 42 147 q 45 206 42 183 q 60 240 49 228 q 94 255 72 251 q 153 258 117 258 l 194 258 q 253 255 231 258 q 287 240 275 251 q 302 206 299 228 q 306 147 306 183 l 306 -14 q 290 -92 306 -56 q 246 -157 274 -129 q 180 -201 218 -185 q 97 -217 142 -217 q 62 -209 75 -217 q 49 -189 49 -201 q 64 -154 49 -167 q 98 -130 79 -142 q 133 -100 117 -118 q 149 -46 149 -82 q 147 -24 149 -32 q 141 -10 146 -15 q 124 1 136 -4 q 92 14 113 7 q 63 25 74 19 q 48 38 53 31 q 42 57 43 44 q 42 90 42 69 l 42 147 z "},"-":{"ha":556,"x_min":56,"x_max":500,"o":"m 56 583 q 71 627 56 615 q 139 639 86 639 l 417 639 q 485 627 469 639 q 500 583 500 615 q 485 540 500 551 q 417 528 469 528 l 139 528 q 71 540 86 528 q 56 583 56 551 z "},".":{"ha":347,"x_min":42,"x_max":306,"o":"m 42 147 q 45 206 42 183 q 60 240 49 228 q 94 255 72 251 q 153 258 117 258 l 194 258 q 253 255 231 258 q 287 240 275 251 q 302 206 299 228 q 306 147 306 183 l 306 106 q 302 47 306 69 q 287 13 299 25 q 253 -2 275 1 q 194 -6 231 -6 l 153 -6 q 94 -2 117 -6 q 60 13 72 1 q 45 47 49 25 q 42 106 42 69 l 42 147 z "},"/":{"ha":750,"x_min":29,"x_max":717,"o":"m 117 33 q 97 9 108 18 q 71 0 86 0 q 40 13 51 0 q 29 38 29 26 q 33 56 29 47 q 42 75 36 65 l 629 1115 q 649 1140 638 1131 q 675 1149 661 1149 q 706 1135 694 1149 q 717 1111 717 1122 q 713 1092 717 1101 q 704 1074 710 1083 l 117 33 z "},":":{"ha":347,"x_min":42,"x_max":306,"o":"m 42 147 q 45 206 42 183 q 60 240 49 228 q 94 255 72 251 q 153 258 117 258 l 194 258 q 253 255 231 258 q 287 240 275 251 q 302 206 299 228 q 306 147 306 183 l 306 106 q 302 47 306 69 q 287 13 299 25 q 253 -2 275 1 q 194 -6 231 -6 l 153 -6 q 94 -2 117 -6 q 60 13 72 1 q 45 47 49 25 q 42 106 42 69 l 42 147 m 42 633 q 45 692 42 669 q 60 726 49 714 q 94 741 72 738 q 153 744 117 744 l 194 744 q 253 741 231 744 q 287 726 275 738 q 302 692 299 714 q 306 633 306 669 l 306 592 q 302 533 306 556 q 287 499 299 511 q 253 484 275 488 q 194 481 231 481 l 153 481 q 94 484 117 481 q 60 499 72 488 q 45 533 49 511 q 42 592 42 556 l 42 633 z "},";":{"ha":347,"x_min":42,"x_max":306,"o":"m 42 633 q 45 692 42 669 q 60 726 49 714 q 94 741 72 738 q 153 744 117 744 l 194 744 q 253 741 231 744 q 287 726 275 738 q 302 692 299 714 q 306 633 306 669 l 306 592 q 302 533 306 556 q 287 499 299 511 q 253 484 275 488 q 194 481 231 481 l 153 481 q 94 484 117 481 q 60 499 72 488 q 45 533 49 511 q 42 592 42 556 l 42 633 m 42 147 q 45 206 42 183 q 60 240 49 228 q 94 255 72 251 q 153 258 117 258 l 194 258 q 253 255 231 258 q 287 240 275 251 q 302 206 299 228 q 306 147 306 183 l 306 -14 q 290 -92 306 -56 q 246 -157 274 -129 q 180 -201 218 -185 q 97 -217 142 -217 q 62 -209 75 -217 q 49 -189 49 -201 q 64 -154 49 -167 q 98 -130 79 -142 q 133 -100 117 -118 q 149 -46 149 -82 q 147 -24 149 -32 q 141 -10 146 -15 q 124 1 136 -4 q 92 14 113 7 q 63 25 74 19 q 48 38 53 31 q 42 57 43 44 q 42 90 42 69 l 42 147 z "},"<":{"ha":832,"x_min":56,"x_max":776,"o":"m 706 435 q 743 418 729 425 q 765 404 757 411 q 774 388 772 397 q 776 365 776 379 q 770 322 776 338 q 743 307 764 307 q 679 325 721 307 l 235 507 q 164 524 197 522 q 107 527 131 525 q 69 540 83 529 q 56 583 56 550 q 68 627 56 617 q 104 640 81 638 q 160 642 128 642 q 235 660 193 643 l 679 842 q 744 860 721 860 q 771 844 765 860 q 776 801 776 829 q 774 778 776 786 q 765 763 772 769 q 743 749 757 756 q 706 732 729 742 l 401 607 q 376 583 376 596 q 401 560 376 569 l 706 435 z "},"=":{"ha":778,"x_min":56,"x_max":722,"o":"m 56 694 q 71 738 56 726 q 139 750 86 750 l 639 750 q 707 738 692 750 q 722 694 722 726 q 707 651 722 663 q 639 639 692 639 l 139 639 q 71 651 86 639 q 56 694 56 663 m 56 472 q 71 516 56 504 q 139 528 86 528 l 639 528 q 707 516 692 528 q 722 472 722 504 q 707 428 722 440 q 639 417 692 417 l 139 417 q 71 428 86 417 q 56 472 56 440 z "},">":{"ha":832,"x_min":56,"x_max":776,"o":"m 126 733 q 88 750 103 743 q 67 764 74 757 q 58 779 60 771 q 56 803 56 788 q 61 845 56 831 q 89 860 67 860 q 153 843 108 860 l 597 661 q 668 644 635 646 q 725 641 701 643 q 763 628 749 639 q 776 585 776 618 q 764 540 776 550 q 728 528 751 531 q 671 526 704 526 q 597 508 638 525 l 153 326 q 88 308 108 308 q 61 324 67 308 q 56 367 56 339 q 58 390 56 381 q 67 406 60 399 q 88 419 74 413 q 126 436 103 426 l 431 561 q 456 585 456 571 q 431 608 456 597 l 126 733 z "},"?":{"ha":750,"x_min":56,"x_max":694,"o":"m 228 147 q 231 206 228 183 q 247 240 235 228 q 281 255 258 251 q 339 258 303 258 l 381 258 q 439 255 417 258 q 473 240 461 251 q 488 206 485 228 q 492 147 492 183 l 492 106 q 488 47 492 69 q 473 13 485 25 q 439 -2 461 1 q 381 -6 417 -6 l 339 -6 q 281 -2 303 -6 q 247 13 258 1 q 231 47 235 25 q 228 106 228 69 l 228 147 m 583 944 q 580 1003 583 981 q 565 1037 576 1025 q 531 1052 553 1049 q 471 1056 508 1056 l 278 1056 q 219 1052 242 1056 q 185 1037 197 1049 q 170 1004 174 1025 q 167 949 167 983 l 167 847 q 155 779 167 794 q 111 764 143 764 q 67 779 79 764 q 56 847 56 794 l 56 944 q 61 1067 56 1022 q 89 1133 67 1111 q 156 1161 111 1156 q 278 1167 200 1167 l 471 1167 q 594 1161 550 1167 q 661 1133 639 1156 q 689 1067 683 1111 q 694 944 694 1022 l 694 833 q 692 742 694 775 q 678 690 690 710 q 640 654 667 669 q 565 617 614 639 l 478 575 q 442 557 454 564 q 424 540 431 550 q 417 511 418 529 q 417 463 417 493 l 417 417 q 405 349 417 364 q 361 333 393 333 q 317 349 329 333 q 306 417 306 364 l 306 463 q 308 553 306 521 q 321 605 310 585 q 358 640 332 625 q 429 676 383 654 l 517 718 q 555 738 542 731 q 574 757 568 746 q 582 785 581 768 q 583 833 583 803 l 583 944 z "},"@":{"ha":972,"x_min":56,"x_max":917,"o":"m 382 0 q 324 3 346 0 q 290 19 301 7 q 274 53 278 31 q 271 111 271 75 l 271 229 q 281 264 271 256 q 306 278 290 272 q 331 292 321 283 q 340 326 340 300 l 340 389 q 343 450 340 428 q 357 483 346 472 q 390 497 368 494 q 451 500 413 500 l 556 500 q 617 497 594 500 q 650 483 639 494 q 664 450 661 472 q 667 389 667 428 l 667 153 q 678 109 667 121 q 722 97 690 97 q 765 101 749 97 q 791 118 782 106 q 803 156 800 131 q 806 222 806 181 l 806 417 q 794 516 806 474 q 753 585 782 558 q 676 626 725 613 q 556 639 628 639 l 417 639 q 295 626 343 639 q 219 585 247 613 q 178 516 190 558 q 167 417 167 474 l 167 111 q 178 12 167 54 q 219 -58 190 -31 q 295 -98 247 -85 q 417 -111 343 -111 l 528 -111 q 596 -123 581 -111 q 611 -167 611 -135 q 596 -210 611 -199 q 528 -222 581 -222 l 417 -222 q 254 -206 322 -222 q 142 -149 186 -189 q 77 -47 99 -110 q 56 111 56 17 l 56 417 q 77 574 56 510 q 142 677 99 638 q 254 733 186 717 q 417 750 322 750 l 556 750 q 717 733 649 750 q 830 677 786 717 q 895 574 874 638 q 917 417 917 510 l 917 222 q 911 100 917 144 q 883 33 906 56 q 817 6 861 11 q 694 0 772 0 l 382 0 m 583 361 q 574 407 583 397 q 528 417 564 417 l 479 417 q 433 407 443 417 q 424 361 424 397 l 424 153 q 433 107 424 117 q 479 97 443 97 l 528 97 q 574 107 564 97 q 583 153 583 117 l 583 361 z "},"A":{"ha":875,"x_min":56,"x_max":819,"o":"m 306 111 q 302 53 306 75 q 287 19 299 31 q 253 3 275 7 q 194 0 231 0 l 167 0 q 108 3 131 0 q 74 19 86 7 q 59 53 63 31 q 56 111 56 75 l 56 458 q 61 501 56 485 q 76 527 67 517 q 97 544 85 538 q 125 556 110 550 q 152 567 139 561 q 174 583 165 572 q 189 610 183 593 q 194 653 194 626 l 194 944 q 200 1067 194 1022 q 228 1133 206 1111 q 294 1161 250 1156 q 417 1167 339 1167 l 597 1167 q 719 1161 675 1167 q 786 1133 764 1156 q 814 1067 808 1111 q 819 944 819 1022 l 819 83 q 808 15 819 31 q 764 -1 796 -1 q 720 15 732 -1 q 708 83 708 31 l 708 417 q 705 475 708 453 q 690 509 701 497 q 656 524 678 521 q 597 528 633 528 l 417 528 q 358 524 381 528 q 324 508 336 521 q 309 474 313 496 q 306 414 306 451 l 306 111 m 708 944 q 705 1003 708 981 q 690 1037 701 1025 q 656 1052 678 1049 q 597 1056 633 1056 l 417 1056 q 358 1052 381 1056 q 324 1037 336 1049 q 309 1003 313 1025 q 306 944 306 981 l 306 750 q 309 692 306 714 q 324 658 313 669 q 358 642 336 646 q 417 639 381 639 l 597 639 q 656 642 633 639 q 690 658 678 646 q 705 692 701 669 q 708 750 708 714 l 708 944 z "},"B":{"ha":889,"x_min":56,"x_max":833,"o":"m 472 1167 q 594 1161 550 1167 q 661 1133 639 1156 q 689 1067 683 1111 q 694 944 694 1022 l 694 765 q 708 688 694 713 q 750 653 721 664 q 806 617 779 642 q 833 540 833 593 l 833 222 q 828 100 833 144 q 800 33 822 56 q 733 6 778 11 q 611 0 689 0 l 278 0 q 156 6 200 0 q 89 33 111 11 q 61 100 67 56 q 56 222 56 144 l 56 944 q 61 1067 56 1022 q 89 1133 67 1111 q 156 1161 111 1156 q 278 1167 200 1167 l 472 1167 m 417 542 q 358 538 381 542 q 324 523 336 535 q 309 489 313 511 q 306 431 306 467 l 306 222 q 309 164 306 186 q 324 130 313 142 q 358 115 336 118 q 417 111 381 111 l 611 111 q 669 115 647 111 q 703 130 692 118 q 719 164 715 142 q 722 222 722 186 l 722 431 q 719 489 722 467 q 703 523 715 511 q 669 538 692 535 q 611 542 647 542 l 417 542 m 306 764 q 309 706 306 728 q 324 672 313 683 q 358 656 336 660 q 417 653 381 653 l 472 653 q 531 656 508 653 q 565 672 553 660 q 580 706 576 683 q 583 764 583 728 l 583 944 q 580 1003 583 981 q 565 1037 576 1025 q 531 1052 553 1049 q 472 1056 508 1056 l 417 1056 q 358 1052 381 1056 q 324 1037 336 1049 q 309 1003 313 1025 q 306 944 306 981 l 306 764 z "},"C":{"ha":750,"x_min":56,"x_max":694,"o":"m 56 944 q 61 1067 56 1022 q 89 1133 67 1111 q 156 1161 111 1156 q 278 1167 200 1167 l 472 1167 q 594 1161 550 1167 q 661 1133 639 1156 q 689 1067 683 1111 q 694 944 694 1022 l 694 875 q 691 824 694 843 q 677 795 688 806 q 648 781 667 785 q 599 778 629 778 l 542 778 q 491 781 510 778 q 462 795 472 785 q 448 824 451 806 q 444 875 444 843 l 444 943 q 441 1003 444 981 q 426 1037 438 1025 q 392 1052 414 1049 q 333 1056 369 1056 l 278 1056 q 219 1052 242 1056 q 185 1037 197 1049 q 170 1003 174 1025 q 167 944 167 981 l 167 222 q 170 164 167 186 q 185 130 174 142 q 219 115 197 118 q 278 111 242 111 l 472 111 q 531 115 508 111 q 565 130 553 118 q 580 164 576 142 q 583 222 583 186 l 583 306 q 585 348 583 332 q 593 373 588 364 q 609 385 599 382 q 638 389 619 389 q 684 374 674 389 q 694 306 694 358 l 694 222 q 689 100 694 144 q 661 33 683 56 q 594 6 639 11 q 472 0 550 0 l 278 0 q 156 6 200 0 q 89 33 111 11 q 61 100 67 56 q 56 222 56 144 l 56 944 z "},"D":{"ha":861,"x_min":56,"x_max":806,"o":"m 56 1056 q 59 1114 56 1092 q 74 1148 63 1136 q 108 1163 86 1160 q 167 1167 131 1167 l 444 1167 q 606 1150 538 1167 q 719 1094 675 1133 q 784 990 763 1054 q 806 833 806 926 l 806 333 q 784 176 806 239 q 719 73 763 113 q 606 17 675 33 q 444 0 538 0 l 167 0 q 108 3 131 0 q 74 19 86 7 q 59 53 63 31 q 56 111 56 75 l 56 1056 m 694 833 q 683 933 694 890 q 642 1002 671 975 q 565 1042 614 1029 q 444 1056 517 1056 l 417 1056 q 358 1052 381 1056 q 324 1037 336 1049 q 309 1003 313 1025 q 306 943 306 981 l 306 222 q 309 164 306 186 q 324 130 313 142 q 358 115 336 118 q 417 111 379 111 l 444 111 q 565 124 517 111 q 642 165 614 138 q 683 234 671 192 q 694 333 694 276 l 694 833 z "},"E":{"ha":722,"x_min":56,"x_max":667,"o":"m 56 944 q 61 1067 56 1022 q 89 1133 67 1111 q 156 1161 111 1156 q 278 1167 200 1167 l 583 1167 q 651 1155 636 1167 q 667 1111 667 1143 q 651 1067 667 1079 q 583 1056 636 1056 l 278 1056 q 219 1052 242 1056 q 185 1037 197 1049 q 170 1003 174 1025 q 167 944 167 981 l 167 750 q 170 692 167 714 q 185 658 174 669 q 219 642 197 646 q 278 639 242 639 l 583 639 q 651 627 636 639 q 667 583 667 615 q 651 540 667 551 q 583 528 636 528 l 417 528 q 358 524 381 528 q 324 509 336 521 q 309 475 313 497 q 306 417 306 453 l 306 222 q 309 164 306 186 q 324 130 313 142 q 358 115 336 118 q 417 111 381 111 l 583 111 q 651 99 636 111 q 667 56 667 88 q 651 12 667 24 q 583 0 636 0 l 278 0 q 156 6 200 0 q 89 33 111 11 q 61 100 67 56 q 56 222 56 144 l 56 944 z "},"F":{"ha":694,"x_min":56,"x_max":639,"o":"m 56 944 q 61 1067 56 1022 q 89 1133 67 1111 q 156 1161 111 1156 q 278 1167 200 1167 l 556 1167 q 624 1155 608 1167 q 639 1111 639 1143 q 624 1067 639 1079 q 556 1056 608 1056 l 417 1056 q 358 1052 381 1056 q 324 1037 336 1049 q 309 1003 313 1025 q 306 944 306 981 l 306 750 q 309 692 306 714 q 324 658 313 669 q 358 642 336 646 q 417 639 381 639 l 556 639 q 624 627 608 639 q 639 583 639 615 q 624 540 639 551 q 556 528 608 528 l 417 528 q 358 524 381 528 q 324 509 336 521 q 309 475 313 497 q 306 415 306 453 l 306 83 q 294 15 306 31 q 250 0 282 0 q 206 15 218 0 q 194 83 194 31 l 194 514 q 187 556 194 540 q 167 583 179 572 q 140 599 156 593 q 111 611 125 606 q 85 622 96 617 q 69 638 75 628 q 59 665 63 649 q 56 708 56 682 l 56 944 z "},"G":{"ha":875,"x_min":56,"x_max":819,"o":"m 556 528 q 500 540 514 528 q 486 583 486 551 q 500 627 486 615 q 556 639 514 639 l 597 639 q 719 633 675 639 q 786 606 764 628 q 814 539 808 583 q 819 417 819 494 l 819 222 q 814 100 819 144 q 787 33 808 56 q 721 6 765 11 q 599 0 676 0 l 278 0 q 156 6 200 0 q 89 33 111 11 q 61 100 67 56 q 56 222 56 144 l 56 944 q 61 1067 56 1022 q 89 1133 67 1111 q 156 1161 111 1156 q 278 1167 200 1167 l 586 1167 q 707 1161 663 1167 q 773 1133 751 1156 q 800 1067 794 1111 q 806 944 806 1022 l 806 931 q 802 880 806 899 q 787 851 799 861 q 753 837 775 840 q 694 833 731 833 q 636 837 658 833 q 602 851 614 840 q 587 880 590 861 q 583 931 583 899 l 583 956 q 580 1014 583 992 q 565 1048 576 1036 q 531 1063 553 1060 q 472 1067 508 1067 l 417 1067 q 358 1063 381 1067 q 324 1048 336 1060 q 309 1014 313 1036 q 306 956 306 992 l 306 222 q 309 164 306 186 q 324 130 313 142 q 358 115 336 118 q 417 111 381 111 l 597 111 q 656 115 633 111 q 690 130 678 118 q 705 164 701 142 q 708 222 708 186 l 708 417 q 705 475 708 453 q 690 509 701 497 q 656 524 678 521 q 597 528 633 528 l 556 528 z "},"H":{"ha":833,"x_min":56,"x_max":778,"o":"m 667 417 q 663 475 667 453 q 648 509 660 497 q 614 524 636 521 q 556 528 592 528 l 417 528 q 358 524 381 528 q 324 509 336 521 q 309 475 313 497 q 306 417 306 453 l 306 111 q 302 53 306 75 q 287 19 299 31 q 253 3 275 7 q 194 0 231 0 l 167 0 q 108 3 131 0 q 74 19 86 7 q 59 53 63 31 q 56 111 56 75 l 56 1097 q 67 1153 56 1139 q 111 1167 79 1167 q 155 1153 143 1167 q 167 1097 167 1139 l 167 750 q 170 692 167 714 q 185 658 174 669 q 219 642 197 646 q 279 639 242 639 l 556 639 q 614 642 592 639 q 648 658 636 646 q 663 692 660 669 q 667 750 667 714 l 667 1097 q 678 1153 667 1139 q 722 1167 690 1167 q 766 1153 754 1167 q 778 1097 778 1139 l 778 83 q 766 15 778 31 q 722 0 754 0 q 678 15 690 0 q 667 83 667 31 l 667 417 z "},"I":{"ha":361,"x_min":56,"x_max":306,"o":"m 56 444 q 61 487 56 471 q 76 513 67 503 q 97 530 85 524 q 125 542 110 536 q 152 553 139 547 q 174 569 165 558 q 189 596 183 579 q 194 639 194 613 l 194 1083 q 206 1151 194 1136 q 250 1167 218 1167 q 294 1151 282 1167 q 306 1083 306 1136 l 306 111 q 302 53 306 75 q 287 19 299 31 q 253 3 275 7 q 194 0 231 0 l 167 0 q 108 3 131 0 q 74 19 86 7 q 59 53 63 31 q 56 111 56 75 l 56 444 z "},"J":{"ha":889,"x_min":56,"x_max":833,"o":"m 639 1167 q 683 1151 671 1167 q 694 1083 694 1136 l 694 736 q 700 693 694 710 q 715 666 706 676 q 736 650 724 656 q 764 639 749 644 q 791 627 778 633 q 813 610 804 621 q 828 584 822 600 q 833 542 833 568 l 833 222 q 828 100 833 144 q 800 33 822 56 q 733 6 778 11 q 611 0 689 0 l 278 0 q 156 6 200 0 q 89 33 111 11 q 61 100 67 56 q 56 222 56 144 l 56 278 l 56 292 q 59 342 56 322 q 74 372 63 361 q 108 385 86 382 q 167 389 131 389 q 225 385 203 389 q 259 372 247 382 q 274 342 271 361 q 278 292 278 322 l 278 278 l 278 224 q 281 163 278 186 q 297 128 285 140 q 331 113 308 117 q 389 110 353 110 l 472 111 q 531 115 508 111 q 565 130 553 118 q 580 163 576 142 q 583 222 583 185 l 583 1083 q 595 1151 583 1136 q 639 1167 607 1167 z "},"K":{"ha":903,"x_min":56,"x_max":847,"o":"m 597 417 q 594 475 597 453 q 578 509 590 497 q 544 524 567 521 q 486 528 522 528 l 417 528 q 358 524 381 528 q 324 509 336 521 q 309 475 313 497 q 306 417 306 453 l 306 111 q 302 53 306 75 q 287 19 299 31 q 253 3 275 7 q 194 0 231 0 l 167 0 q 108 3 131 0 q 74 19 86 7 q 59 53 63 31 q 56 111 56 75 l 56 1083 q 67 1151 56 1136 q 111 1167 79 1167 q 155 1151 143 1167 q 167 1083 167 1136 l 167 750 q 192 690 167 697 q 258 722 217 682 l 667 1113 q 694 1137 682 1126 q 719 1153 706 1147 q 748 1161 732 1158 q 788 1164 764 1164 q 830 1155 819 1164 q 840 1135 840 1146 q 814 1092 840 1118 l 426 722 q 385 660 382 681 q 451 639 388 639 l 736 639 q 794 635 772 639 q 827 620 815 632 q 843 586 839 608 q 847 528 847 564 l 847 111 q 844 53 847 75 q 828 19 840 31 q 794 3 817 7 q 736 0 772 0 l 708 0 q 650 3 672 0 q 616 19 628 7 q 601 53 604 31 q 597 111 597 75 l 597 417 z "},"L":{"ha":708,"x_min":56,"x_max":667,"o":"m 167 0 q 108 3 131 0 q 74 19 86 7 q 59 53 63 31 q 56 111 56 75 l 56 444 q 61 487 56 471 q 76 513 67 503 q 97 530 85 524 q 125 542 110 536 q 152 553 139 547 q 174 569 165 558 q 189 596 183 579 q 194 639 194 613 l 194 1083 q 206 1151 194 1136 q 250 1167 218 1167 q 294 1151 282 1167 q 306 1083 306 1136 l 306 222 q 309 164 306 186 q 324 130 313 142 q 358 115 336 118 q 417 111 381 111 l 583 111 q 651 99 636 111 q 667 53 667 86 q 651 12 667 24 q 583 0 636 0 l 167 0 z "},"M":{"ha":1028,"x_min":56,"x_max":972,"o":"m 390 885 q 427 853 406 853 q 465 883 449 853 l 581 1085 q 608 1130 597 1114 q 633 1154 619 1146 q 667 1165 647 1163 q 722 1167 688 1167 l 861 1167 q 919 1163 897 1167 q 953 1148 942 1160 q 969 1114 965 1136 q 972 1056 972 1092 l 972 111 q 969 53 972 75 q 953 19 965 31 q 919 3 942 7 q 861 0 897 0 l 833 0 q 775 3 797 0 q 741 19 753 7 q 726 53 729 31 q 722 111 722 75 l 722 1000 q 716 1033 722 1022 q 701 1044 710 1043 q 684 1038 693 1044 q 669 1021 675 1031 l 465 667 q 417 629 444 631 q 371 667 389 628 l 210 1015 q 184 1033 201 1035 q 167 1000 167 1032 l 167 83 q 155 15 167 31 q 111 0 143 0 q 67 15 79 0 q 56 83 56 31 l 56 1056 q 59 1114 56 1092 q 74 1148 63 1136 q 108 1163 86 1160 q 167 1167 131 1167 l 186 1167 q 231 1165 214 1167 q 258 1154 247 1163 q 277 1130 268 1146 q 299 1085 286 1114 l 390 885 m 319 231 q 323 289 319 267 q 338 323 326 311 q 372 338 350 335 q 431 342 394 342 l 458 342 q 517 338 494 342 q 551 323 539 335 q 566 289 563 311 q 569 231 569 267 l 569 106 q 566 47 569 69 q 551 13 563 25 q 517 -2 539 1 q 458 -6 494 -6 l 431 -6 q 372 -2 394 -6 q 338 13 350 1 q 323 47 326 25 q 319 106 319 69 l 319 231 z "},"N":{"ha":889,"x_min":56,"x_max":833,"o":"m 722 333 q 722 394 722 372 q 715 433 721 417 q 699 466 710 450 q 667 507 688 482 l 249 1015 q 223 1040 233 1033 q 197 1047 213 1047 q 174 1038 182 1047 q 167 1000 167 1028 l 167 83 q 155 15 167 31 q 111 0 143 0 q 67 15 79 0 q 56 83 56 31 l 56 1056 q 59 1114 56 1092 q 74 1148 63 1136 q 108 1163 86 1160 q 167 1167 131 1167 l 194 1167 q 235 1165 219 1167 q 263 1156 250 1164 q 292 1132 276 1149 q 333 1085 308 1115 l 654 693 q 694 665 678 665 q 722 722 722 665 l 722 1083 q 734 1151 722 1136 q 778 1167 746 1167 q 822 1151 810 1167 q 833 1083 833 1136 l 833 83 q 822 15 833 31 q 778 0 810 0 q 734 15 746 0 q 722 83 722 31 l 722 333 m 319 231 q 323 289 319 267 q 338 323 326 311 q 372 338 350 335 q 431 342 394 342 l 458 342 q 517 338 494 342 q 551 323 539 335 q 566 289 563 311 q 569 231 569 267 l 569 106 q 566 47 569 69 q 551 13 563 25 q 517 -2 539 1 q 458 -6 494 -6 l 431 -6 q 372 -2 394 -6 q 338 13 350 1 q 323 47 326 25 q 319 106 319 69 l 319 231 z "},"O":{"ha":861,"x_min":56,"x_max":806,"o":"m 56 944 q 61 1067 56 1022 q 89 1133 67 1111 q 156 1161 111 1156 q 278 1167 200 1167 l 583 1167 q 706 1161 661 1167 q 772 1133 750 1156 q 800 1067 794 1111 q 806 944 806 1022 l 806 222 q 800 100 806 144 q 772 33 794 56 q 706 6 750 11 q 583 0 661 0 l 278 0 q 156 6 200 0 q 89 33 111 11 q 61 100 67 56 q 56 222 56 144 l 56 944 m 556 569 q 561 612 556 596 q 576 638 567 628 q 597 655 585 649 q 625 667 610 661 q 652 678 639 672 q 674 694 665 683 q 689 721 683 704 q 694 764 694 738 l 694 944 q 691 1003 694 981 q 676 1037 688 1025 q 642 1052 664 1049 q 583 1056 619 1056 l 278 1056 q 219 1052 242 1056 q 185 1037 197 1049 q 170 1003 174 1025 q 167 944 167 981 l 167 222 q 170 164 167 186 q 186 130 174 142 q 222 115 199 118 q 282 111 244 111 l 444 111 q 503 115 481 111 q 537 130 525 118 q 552 164 549 142 q 556 222 556 186 l 556 569 z "},"P":{"ha":833,"x_min":56,"x_max":778,"o":"m 306 111 q 302 53 306 75 q 287 19 299 31 q 253 3 275 7 q 194 0 231 0 l 167 0 q 108 3 131 0 q 74 19 86 7 q 59 53 63 31 q 56 111 56 75 l 56 944 q 61 1067 56 1022 q 89 1133 67 1111 q 156 1161 111 1156 q 278 1167 200 1167 l 556 1167 q 678 1161 633 1167 q 744 1133 722 1156 q 772 1067 767 1111 q 778 944 778 1022 l 778 750 q 772 628 778 672 q 744 561 767 583 q 678 533 722 539 q 556 528 633 528 l 417 528 q 358 524 381 528 q 324 509 336 521 q 309 475 313 497 q 306 417 306 453 l 306 111 m 167 750 q 170 692 167 714 q 185 658 174 669 q 219 642 197 646 q 278 639 242 639 l 556 639 q 614 642 592 639 q 648 658 636 646 q 663 692 660 669 q 667 750 667 714 l 667 944 q 663 1003 667 981 q 648 1037 660 1025 q 614 1052 636 1049 q 556 1056 592 1056 l 278 1056 q 219 1052 242 1056 q 185 1037 197 1049 q 170 1003 174 1025 q 167 944 167 981 l 167 750 z "},"Q":{"ha":861,"x_min":56,"x_max":806,"o":"m 806 222 q 803 135 806 171 q 794 75 801 99 q 774 38 788 51 q 736 18 760 24 q 703 -7 703 10 q 705 -22 703 -12 q 711 -40 707 -31 l 732 -85 q 746 -131 746 -117 q 724 -165 746 -149 q 679 -181 703 -181 q 632 -132 654 -181 l 596 -54 q 581 -26 588 -36 q 567 -10 575 -15 q 547 -2 560 -4 q 514 0 535 0 l 278 0 q 156 6 200 0 q 89 33 111 11 q 61 100 67 56 q 56 222 56 144 l 56 944 q 61 1067 56 1022 q 89 1133 67 1111 q 156 1161 111 1156 q 278 1167 200 1167 l 583 1167 q 706 1161 661 1167 q 772 1133 750 1156 q 800 1067 794 1111 q 806 944 806 1022 l 806 222 m 278 222 q 281 164 278 186 q 297 130 285 142 q 331 115 308 118 q 389 111 353 111 l 439 111 q 491 116 475 111 q 507 135 507 121 q 496 169 507 144 l 460 246 q 446 292 446 274 q 467 325 446 310 q 513 340 489 340 q 538 329 528 340 q 560 293 549 318 l 619 167 q 657 132 636 132 q 683 154 672 132 q 694 222 694 176 l 694 944 q 691 1003 694 981 q 676 1037 688 1025 q 642 1052 664 1049 q 583 1056 619 1056 l 278 1056 q 219 1052 242 1056 q 185 1037 197 1049 q 170 1003 174 1025 q 167 944 167 981 l 167 903 q 170 860 167 876 q 180 833 174 843 q 197 817 186 822 q 222 806 207 811 q 247 794 236 800 q 265 777 258 788 q 274 751 271 767 q 278 708 278 735 l 278 222 z "},"R":{"ha":917,"x_min":56,"x_max":861,"o":"m 611 414 q 608 474 611 451 q 592 508 604 496 q 558 524 581 521 q 500 528 536 528 l 417 528 q 358 524 381 528 q 324 509 336 521 q 309 475 313 497 q 306 417 306 453 l 306 111 q 302 53 306 75 q 287 19 299 31 q 253 3 275 7 q 194 0 231 0 l 167 0 q 108 3 131 0 q 74 19 86 7 q 59 53 63 31 q 56 111 56 75 l 56 944 q 61 1067 56 1022 q 89 1133 67 1111 q 156 1161 111 1156 q 278 1167 200 1167 l 500 1167 q 622 1161 578 1167 q 689 1133 667 1156 q 717 1067 711 1111 q 722 944 722 1022 l 722 750 q 728 707 722 724 q 742 680 733 690 q 764 664 751 669 q 792 653 776 658 q 819 641 806 647 q 841 624 832 635 q 856 598 850 614 q 861 556 861 582 l 861 111 q 858 53 861 75 q 842 19 854 31 q 808 3 831 7 q 750 0 786 0 l 722 0 q 664 3 686 0 q 630 19 642 7 q 615 53 618 31 q 611 111 611 75 l 611 414 m 167 750 q 170 692 167 714 q 185 658 174 669 q 219 642 197 646 q 278 639 242 639 l 500 639 q 558 642 536 639 q 592 658 581 646 q 608 692 604 669 q 611 750 611 714 l 611 944 q 608 1003 611 981 q 592 1037 604 1025 q 558 1052 581 1049 q 500 1056 536 1056 l 278 1056 q 219 1052 242 1056 q 185 1037 197 1049 q 170 1003 174 1025 q 167 944 167 981 l 167 750 z "},"S":{"ha":751,"x_min":56,"x_max":694,"o":"m 56 944 q 61 1067 56 1022 q 89 1133 67 1111 q 156 1161 111 1156 q 278 1167 200 1167 l 472 1167 q 594 1161 550 1167 q 661 1133 639 1156 q 689 1067 683 1111 q 694 944 694 1022 l 694 889 q 690 844 694 861 q 679 819 686 828 q 662 808 672 811 q 639 806 651 806 q 616 808 626 806 q 599 818 606 810 q 588 843 592 826 q 583 888 583 860 l 583 944 q 580 1003 583 981 q 565 1037 576 1025 q 531 1052 553 1049 q 472 1056 508 1056 l 278 1056 q 219 1052 242 1056 q 185 1037 197 1049 q 170 1003 174 1025 q 167 944 167 981 l 167 750 q 170 692 167 714 q 185 658 174 669 q 219 642 197 646 q 278 639 242 639 l 472 639 q 594 633 550 639 q 661 606 639 628 q 689 539 683 583 q 694 415 694 494 l 694 221 q 690 99 694 143 q 663 33 685 54 q 595 6 640 11 q 472 0 550 0 l 278 0 q 156 6 200 0 q 89 33 111 11 q 61 100 67 56 q 56 222 56 144 l 56 250 q 59 308 56 286 q 74 342 63 331 q 108 358 86 354 q 167 361 131 361 q 225 358 203 361 q 259 342 247 354 q 274 308 271 331 q 278 250 278 286 l 278 222 q 281 164 278 186 q 297 130 285 142 q 331 115 308 118 q 389 111 353 111 l 472 111 q 531 115 508 111 q 565 130 553 118 q 580 163 576 142 q 583 222 583 185 l 583 415 q 580 475 583 453 q 565 509 576 497 q 531 524 553 521 q 472 528 508 528 l 278 528 q 156 533 200 528 q 89 561 111 539 q 61 628 67 583 q 56 750 56 672 l 56 944 z "},"T":{"ha":861,"x_min":42,"x_max":819,"o":"m 42 1110 q 57 1154 42 1142 q 125 1167 72 1167 l 736 1167 q 804 1154 789 1167 q 819 1110 819 1142 q 804 1067 819 1079 q 736 1056 789 1056 l 681 1056 q 622 1052 644 1056 q 588 1037 600 1049 q 573 1003 576 1025 q 569 944 569 981 l 569 111 q 566 53 569 75 q 550 19 563 31 q 513 3 538 7 q 447 0 489 0 q 379 3 404 0 q 341 19 354 7 q 324 53 328 31 q 319 111 319 75 l 319 944 q 316 1003 319 981 q 301 1037 313 1025 q 267 1052 289 1049 q 208 1056 244 1056 l 125 1056 q 57 1067 72 1056 q 42 1110 42 1079 z "},"U":{"ha":778,"x_min":56,"x_max":722,"o":"m 56 1083 q 67 1151 56 1136 q 111 1167 79 1167 q 155 1151 143 1167 q 167 1083 167 1136 l 167 222 q 170 163 167 185 q 185 130 174 142 q 219 115 197 118 q 278 111 242 111 l 361 111 q 419 115 397 111 q 453 130 442 118 q 469 163 465 142 q 472 222 472 185 l 472 1056 q 476 1114 472 1092 q 491 1148 479 1136 q 525 1163 503 1160 q 583 1167 547 1167 l 611 1167 q 669 1163 647 1167 q 703 1148 692 1160 q 719 1114 715 1136 q 722 1056 722 1092 l 722 222 q 717 100 722 144 q 689 33 711 56 q 622 6 667 11 q 500 0 578 0 l 278 0 q 156 6 200 0 q 89 33 111 11 q 61 100 67 56 q 56 222 56 144 l 56 1083 z "},"V":{"ha":778,"x_min":56,"x_max":722,"o":"m 331 167 q 365 122 354 131 q 392 113 376 113 q 417 119 407 113 q 446 146 426 126 q 467 176 461 161 q 472 222 472 190 l 472 1056 q 476 1114 472 1092 q 491 1148 479 1136 q 525 1163 503 1160 q 583 1167 547 1167 l 611 1167 q 669 1163 647 1167 q 703 1148 692 1160 q 719 1114 715 1136 q 722 1056 722 1092 l 722 375 q 716 299 722 333 q 681 236 710 264 l 519 83 q 441 15 471 36 q 379 -6 411 -6 q 345 -1 360 -6 q 317 13 331 3 q 290 40 304 22 q 260 83 276 57 l 111 317 q 83 364 93 344 q 66 402 72 383 q 58 443 60 421 q 56 500 56 465 l 56 1083 q 67 1151 56 1136 q 111 1167 79 1167 q 155 1151 143 1167 q 167 1083 167 1136 l 167 500 q 167 456 167 472 q 172 426 168 439 q 182 401 175 413 q 200 371 189 389 l 331 167 z "},"W":{"ha":1014,"x_min":56,"x_max":958,"o":"m 354 111 q 333 50 343 72 q 309 17 322 28 q 276 3 296 6 q 225 0 256 0 l 167 0 q 108 3 131 0 q 74 19 86 7 q 59 53 63 31 q 56 111 56 75 l 56 1056 q 59 1114 56 1092 q 74 1148 63 1136 q 108 1163 86 1160 q 167 1167 131 1167 l 194 1167 q 253 1163 231 1167 q 287 1148 275 1160 q 302 1114 299 1136 q 306 1056 306 1092 l 306 417 q 318 383 306 383 q 329 389 325 383 q 339 414 333 394 l 403 628 q 433 686 414 668 q 475 704 453 704 q 514 689 494 704 q 547 644 533 674 l 776 151 q 818 114 794 114 q 839 126 831 114 q 847 167 847 139 l 847 1083 q 859 1151 847 1136 q 903 1167 871 1167 q 947 1151 935 1167 q 958 1083 958 1136 l 958 111 q 955 53 958 75 q 940 19 951 31 q 906 3 928 7 q 847 0 883 0 l 800 0 q 755 2 771 0 q 728 13 739 4 q 709 37 718 21 q 688 82 700 53 l 493 500 q 479 511 486 511 q 468 499 472 511 l 354 111 m 694 931 q 691 872 694 894 q 676 838 688 850 q 642 823 664 826 q 583 819 619 819 l 556 819 q 497 823 519 819 q 463 838 475 826 q 448 872 451 850 q 444 931 444 894 l 444 1056 q 448 1114 444 1092 q 463 1148 451 1136 q 497 1163 475 1160 q 556 1167 519 1167 l 583 1167 q 642 1163 619 1167 q 676 1148 664 1160 q 691 1114 688 1136 q 694 1056 694 1092 l 694 931 z "},"X":{"ha":756,"x_min":56,"x_max":700,"o":"m 56 343 q 58 378 56 364 q 65 403 60 392 q 82 425 71 414 q 113 451 93 436 l 194 513 q 221 533 210 524 q 239 551 232 542 q 249 571 246 560 q 253 599 253 582 l 253 603 q 240 655 253 638 q 194 696 226 672 l 113 757 q 82 783 93 771 q 65 806 71 794 q 58 831 60 817 q 56 865 56 844 l 56 1083 q 67 1151 56 1136 q 111 1167 79 1167 q 155 1151 143 1167 q 167 1083 167 1136 l 167 932 q 172 863 167 883 q 193 831 178 843 l 294 750 q 338 723 319 731 q 378 715 357 715 q 417 723 399 715 q 461 750 436 731 l 563 831 q 583 863 578 843 q 589 932 589 883 l 589 1083 q 601 1151 589 1136 q 644 1167 613 1167 q 688 1151 676 1167 q 700 1083 700 1136 l 700 865 q 698 831 700 844 q 690 806 696 817 q 673 783 685 794 q 643 757 661 771 l 561 696 q 535 676 546 685 q 517 658 524 667 q 506 638 510 649 q 503 610 503 626 l 503 606 q 506 576 503 588 q 515 553 508 564 q 533 534 522 543 q 561 513 544 525 l 643 451 q 673 425 661 436 q 690 403 685 414 q 698 378 696 392 q 700 343 700 364 l 700 83 q 688 15 700 31 q 644 0 676 0 q 601 15 613 0 q 589 83 589 31 l 589 276 q 583 345 589 325 q 563 378 578 365 l 461 458 q 417 485 436 478 q 378 493 399 493 q 338 485 357 493 q 294 458 319 478 l 193 378 q 172 345 178 365 q 167 276 167 325 l 167 83 q 155 15 167 31 q 111 0 143 0 q 67 15 79 0 q 56 83 56 31 l 56 343 z "},"Y":{"ha":756,"x_min":56,"x_max":700,"o":"m 700 726 q 698 692 700 706 q 690 667 696 678 q 673 644 685 656 q 643 618 661 632 l 561 557 q 517 505 529 533 q 503 443 504 476 l 503 111 q 499 53 503 75 q 484 19 496 31 q 450 3 472 7 q 392 0 428 0 l 364 0 q 306 3 328 0 q 272 19 283 7 q 256 53 260 31 q 253 111 253 75 l 253 436 q 240 503 253 472 q 194 557 226 533 l 113 618 q 82 644 93 632 q 65 667 71 656 q 58 692 60 678 q 56 726 56 706 l 56 1083 q 67 1151 56 1136 q 111 1167 79 1167 q 155 1151 143 1167 q 167 1083 167 1136 l 167 793 q 172 724 167 744 q 193 692 178 704 l 294 611 q 338 584 319 592 q 378 576 357 576 q 417 584 399 576 q 461 611 436 592 l 563 692 q 583 724 578 704 q 589 793 589 744 l 589 1083 q 601 1151 589 1136 q 644 1167 613 1167 q 688 1151 676 1167 q 700 1083 700 1136 l 700 726 z "},"Z":{"ha":831,"x_min":54,"x_max":775,"o":"m 67 944 q 72 1067 67 1022 q 100 1133 78 1111 q 167 1161 122 1156 q 289 1167 211 1167 l 657 1167 q 715 1158 696 1167 q 740 1133 735 1149 q 739 1097 744 1117 q 721 1056 733 1076 l 235 167 q 221 124 218 138 q 260 111 224 111 l 414 111 q 472 115 450 111 q 506 130 494 118 q 522 164 518 142 q 525 222 525 186 l 525 278 q 528 336 525 314 q 544 370 532 358 q 578 385 556 382 q 636 389 600 389 l 664 389 q 722 385 700 389 q 756 370 744 382 q 772 336 768 358 q 775 278 775 314 l 775 111 q 772 53 775 75 q 756 19 768 31 q 722 3 744 7 q 664 0 700 0 l 143 0 q 85 9 104 0 q 60 34 65 18 q 60 70 54 50 q 78 111 65 90 l 565 1000 q 579 1042 582 1029 q 540 1056 576 1056 l 289 1056 q 231 1052 253 1056 q 197 1037 208 1049 q 181 1003 185 1025 q 178 944 178 981 l 178 875 q 166 807 178 822 q 122 792 154 792 q 78 807 90 792 q 67 875 67 822 l 67 944 z "},"[":{"ha":417,"x_min":56,"x_max":361,"o":"m 56 972 q 61 1094 56 1050 q 89 1161 67 1139 q 156 1189 111 1183 q 278 1194 200 1194 q 346 1183 331 1194 q 361 1139 361 1171 q 346 1095 361 1107 q 278 1083 331 1083 q 219 1080 242 1083 q 185 1065 197 1076 q 170 1031 174 1053 q 167 972 167 1008 l 167 83 q 170 25 167 47 q 185 -9 174 3 q 219 -24 197 -21 q 278 -28 242 -28 q 346 -40 331 -28 q 361 -83 361 -51 q 346 -127 361 -115 q 278 -139 331 -139 q 156 -133 200 -139 q 89 -106 111 -128 q 61 -39 67 -83 q 56 83 56 6 l 56 972 z "},"\\":{"ha":750,"x_min":29,"x_max":717,"o":"m 42 1074 q 33 1092 36 1083 q 29 1111 29 1101 q 40 1135 29 1122 q 71 1149 51 1149 q 97 1140 85 1149 q 117 1115 108 1131 l 704 75 q 713 56 710 65 q 717 38 717 47 q 706 13 717 26 q 675 0 694 0 q 649 9 660 0 q 629 33 638 18 l 42 1074 z "},"]":{"ha":417,"x_min":56,"x_max":361,"o":"m 361 83 q 356 -39 361 6 q 328 -106 350 -83 q 261 -133 306 -128 q 139 -139 217 -139 q 71 -127 86 -139 q 56 -83 56 -115 q 71 -40 56 -51 q 139 -28 86 -28 q 197 -24 175 -28 q 231 -9 219 -21 q 247 25 243 3 q 250 83 250 47 l 250 972 q 247 1031 250 1008 q 231 1065 243 1053 q 197 1080 219 1076 q 139 1083 175 1083 q 71 1095 86 1083 q 56 1139 56 1107 q 71 1183 56 1171 q 139 1194 86 1194 q 261 1189 217 1194 q 328 1161 306 1183 q 356 1094 350 1139 q 361 972 361 1050 l 361 83 z "},"^":{"ha":839,"x_min":200,"x_max":635,"o":"m 389 1125 q 443 1125 415 1150 l 611 979 q 630 945 635 960 q 597 931 625 931 l 236 931 q 204 945 208 931 q 222 979 200 960 l 389 1125 z "},"_":{"ha":750,"x_min":56,"x_max":694,"o":"m 56 56 q 71 99 56 88 q 139 111 86 111 l 611 111 q 679 99 664 111 q 694 56 694 88 q 679 12 694 24 q 611 0 664 0 l 139 0 q 71 12 86 0 q 56 56 56 24 z "},"`":{"ha":839,"x_min":181,"x_max":354,"o":"m 306 1097 q 342 1088 329 1097 q 354 1050 354 1078 l 354 992 q 347 954 354 964 q 317 944 339 944 l 308 944 q 265 951 276 944 q 238 981 254 958 l 201 1029 q 181 1074 181 1056 q 194 1093 181 1089 q 225 1097 207 1097 l 306 1097 z "},"a":{"ha":875,"x_min":56,"x_max":819,"o":"m 306 111 q 302 53 306 75 q 287 19 299 31 q 253 3 275 7 q 194 0 231 0 l 167 0 q 108 3 131 0 q 74 19 86 7 q 59 53 63 31 q 56 111 56 75 l 56 458 q 61 501 56 485 q 76 527 67 517 q 97 544 85 538 q 125 556 110 550 q 152 567 139 561 q 174 583 165 572 q 189 610 183 593 q 194 653 194 626 l 194 944 q 200 1067 194 1022 q 228 1133 206 1111 q 294 1161 250 1156 q 417 1167 339 1167 l 597 1167 q 719 1161 675 1167 q 786 1133 764 1156 q 814 1067 808 1111 q 819 944 819 1022 l 819 83 q 808 15 819 31 q 764 -1 796 -1 q 720 15 732 -1 q 708 83 708 31 l 708 417 q 705 475 708 453 q 690 509 701 497 q 656 524 678 521 q 597 528 633 528 l 417 528 q 358 524 381 528 q 324 508 336 521 q 309 474 313 496 q 306 414 306 451 l 306 111 m 708 944 q 705 1003 708 981 q 690 1037 701 1025 q 656 1052 678 1049 q 597 1056 633 1056 l 417 1056 q 358 1052 381 1056 q 324 1037 336 1049 q 309 1003 313 1025 q 306 944 306 981 l 306 750 q 309 692 306 714 q 324 658 313 669 q 358 642 336 646 q 417 639 381 639 l 597 639 q 656 642 633 639 q 690 658 678 646 q 705 692 701 669 q 708 750 708 714 l 708 944 z "},"b":{"ha":889,"x_min":56,"x_max":833,"o":"m 472 1167 q 594 1161 550 1167 q 661 1133 639 1156 q 689 1067 683 1111 q 694 944 694 1022 l 694 765 q 708 688 694 713 q 750 653 721 664 q 806 617 779 642 q 833 540 833 593 l 833 222 q 828 100 833 144 q 800 33 822 56 q 733 6 778 11 q 611 0 689 0 l 278 0 q 156 6 200 0 q 89 33 111 11 q 61 100 67 56 q 56 222 56 144 l 56 944 q 61 1067 56 1022 q 89 1133 67 1111 q 156 1161 111 1156 q 278 1167 200 1167 l 472 1167 m 417 542 q 358 538 381 542 q 324 523 336 535 q 309 489 313 511 q 306 431 306 467 l 306 222 q 309 164 306 186 q 324 130 313 142 q 358 115 336 118 q 417 111 381 111 l 611 111 q 669 115 647 111 q 703 130 692 118 q 719 164 715 142 q 722 222 722 186 l 722 431 q 719 489 722 467 q 703 523 715 511 q 669 538 692 535 q 611 542 647 542 l 417 542 m 306 764 q 309 706 306 728 q 324 672 313 683 q 358 656 336 660 q 417 653 381 653 l 472 653 q 531 656 508 653 q 565 672 553 660 q 580 706 576 683 q 583 764 583 728 l 583 944 q 580 1003 583 981 q 565 1037 576 1025 q 531 1052 553 1049 q 472 1056 508 1056 l 417 1056 q 358 1052 381 1056 q 324 1037 336 1049 q 309 1003 313 1025 q 306 944 306 981 l 306 764 z "},"c":{"ha":750,"x_min":56,"x_max":694,"o":"m 56 944 q 61 1067 56 1022 q 89 1133 67 1111 q 156 1161 111 1156 q 278 1167 200 1167 l 472 1167 q 594 1161 550 1167 q 661 1133 639 1156 q 689 1067 683 1111 q 694 944 694 1022 l 694 875 q 691 824 694 843 q 677 795 688 806 q 648 781 667 785 q 599 778 629 778 l 542 778 q 491 781 510 778 q 462 795 472 785 q 448 824 451 806 q 444 875 444 843 l 444 943 q 441 1003 444 981 q 426 1037 438 1025 q 392 1052 414 1049 q 333 1056 369 1056 l 278 1056 q 219 1052 242 1056 q 185 1037 197 1049 q 170 1003 174 1025 q 167 944 167 981 l 167 222 q 170 164 167 186 q 185 130 174 142 q 219 115 197 118 q 278 111 242 111 l 472 111 q 531 115 508 111 q 565 130 553 118 q 580 164 576 142 q 583 222 583 186 l 583 306 q 585 348 583 332 q 593 373 588 364 q 609 385 599 382 q 638 389 619 389 q 684 374 674 389 q 694 306 694 358 l 694 222 q 689 100 694 144 q 661 33 683 56 q 594 6 639 11 q 472 0 550 0 l 278 0 q 156 6 200 0 q 89 33 111 11 q 61 100 67 56 q 56 222 56 144 l 56 944 z "},"d":{"ha":861,"x_min":56,"x_max":806,"o":"m 56 1056 q 59 1114 56 1092 q 74 1148 63 1136 q 108 1163 86 1160 q 167 1167 131 1167 l 444 1167 q 606 1150 538 1167 q 719 1094 675 1133 q 784 990 763 1054 q 806 833 806 926 l 806 333 q 784 176 806 239 q 719 73 763 113 q 606 17 675 33 q 444 0 538 0 l 167 0 q 108 3 131 0 q 74 19 86 7 q 59 53 63 31 q 56 111 56 75 l 56 1056 m 694 833 q 683 933 694 890 q 642 1002 671 975 q 565 1042 614 1029 q 444 1056 517 1056 l 417 1056 q 358 1052 381 1056 q 324 1037 336 1049 q 309 1003 313 1025 q 306 943 306 981 l 306 222 q 309 164 306 186 q 324 130 313 142 q 358 115 336 118 q 417 111 379 111 l 444 111 q 565 124 517 111 q 642 165 614 138 q 683 234 671 192 q 694 333 694 276 l 694 833 z "},"e":{"ha":722,"x_min":56,"x_max":667,"o":"m 56 944 q 61 1067 56 1022 q 89 1133 67 1111 q 156 1161 111 1156 q 278 1167 200 1167 l 583 1167 q 651 1155 636 1167 q 667 1111 667 1143 q 651 1067 667 1079 q 583 1056 636 1056 l 278 1056 q 219 1052 242 1056 q 185 1037 197 1049 q 170 1003 174 1025 q 167 944 167 981 l 167 750 q 170 692 167 714 q 185 658 174 669 q 219 642 197 646 q 278 639 242 639 l 583 639 q 651 627 636 639 q 667 583 667 615 q 651 540 667 551 q 583 528 636 528 l 417 528 q 358 524 381 528 q 324 509 336 521 q 309 475 313 497 q 306 417 306 453 l 306 222 q 309 164 306 186 q 324 130 313 142 q 358 115 336 118 q 417 111 381 111 l 583 111 q 651 99 636 111 q 667 56 667 88 q 651 12 667 24 q 583 0 636 0 l 278 0 q 156 6 200 0 q 89 33 111 11 q 61 100 67 56 q 56 222 56 144 l 56 944 z "},"f":{"ha":694,"x_min":56,"x_max":639,"o":"m 56 944 q 61 1067 56 1022 q 89 1133 67 1111 q 156 1161 111 1156 q 278 1167 200 1167 l 556 1167 q 624 1155 608 1167 q 639 1111 639 1143 q 624 1067 639 1079 q 556 1056 608 1056 l 417 1056 q 358 1052 381 1056 q 324 1037 336 1049 q 309 1003 313 1025 q 306 944 306 981 l 306 750 q 309 692 306 714 q 324 658 313 669 q 358 642 336 646 q 417 639 381 639 l 556 639 q 624 627 608 639 q 639 583 639 615 q 624 540 639 551 q 556 528 608 528 l 417 528 q 358 524 381 528 q 324 509 336 521 q 309 475 313 497 q 306 415 306 453 l 306 83 q 294 15 306 31 q 250 0 282 0 q 206 15 218 0 q 194 83 194 31 l 194 514 q 187 556 194 540 q 167 583 179 572 q 140 599 156 593 q 111 611 125 606 q 85 622 96 617 q 69 638 75 628 q 59 665 63 649 q 56 708 56 682 l 56 944 z "},"g":{"ha":875,"x_min":56,"x_max":819,"o":"m 556 528 q 500 540 514 528 q 486 583 486 551 q 500 627 486 615 q 556 639 514 639 l 597 639 q 719 633 675 639 q 786 606 764 628 q 814 539 808 583 q 819 417 819 494 l 819 222 q 814 100 819 144 q 787 33 808 56 q 721 6 765 11 q 599 0 676 0 l 278 0 q 156 6 200 0 q 89 33 111 11 q 61 100 67 56 q 56 222 56 144 l 56 944 q 61 1067 56 1022 q 89 1133 67 1111 q 156 1161 111 1156 q 278 1167 200 1167 l 586 1167 q 707 1161 663 1167 q 773 1133 751 1156 q 800 1067 794 1111 q 806 944 806 1022 l 806 931 q 802 880 806 899 q 787 851 799 861 q 753 837 775 840 q 694 833 731 833 q 636 837 658 833 q 602 851 614 840 q 587 880 590 861 q 583 931 583 899 l 583 956 q 580 1014 583 992 q 565 1048 576 1036 q 531 1063 553 1060 q 472 1067 508 1067 l 417 1067 q 358 1063 381 1067 q 324 1048 336 1060 q 309 1014 313 1036 q 306 956 306 992 l 306 222 q 309 164 306 186 q 324 130 313 142 q 358 115 336 118 q 417 111 381 111 l 597 111 q 656 115 633 111 q 690 130 678 118 q 705 164 701 142 q 708 222 708 186 l 708 417 q 705 475 708 453 q 690 509 701 497 q 656 524 678 521 q 597 528 633 528 l 556 528 z "},"h":{"ha":833,"x_min":56,"x_max":778,"o":"m 667 417 q 663 475 667 453 q 648 509 660 497 q 614 524 636 521 q 556 528 592 528 l 417 528 q 358 524 381 528 q 324 509 336 521 q 309 475 313 497 q 306 417 306 453 l 306 111 q 302 53 306 75 q 287 19 299 31 q 253 3 275 7 q 194 0 231 0 l 167 0 q 108 3 131 0 q 74 19 86 7 q 59 53 63 31 q 56 111 56 75 l 56 1097 q 67 1153 56 1139 q 111 1167 79 1167 q 155 1153 143 1167 q 167 1097 167 1139 l 167 750 q 170 692 167 714 q 185 658 174 669 q 219 642 197 646 q 279 639 242 639 l 556 639 q 614 642 592 639 q 648 658 636 646 q 663 692 660 669 q 667 750 667 714 l 667 1097 q 678 1153 667 1139 q 722 1167 690 1167 q 766 1153 754 1167 q 778 1097 778 1139 l 778 83 q 766 15 778 31 q 722 0 754 0 q 678 15 690 0 q 667 83 667 31 l 667 417 z "},"i":{"ha":361,"x_min":56,"x_max":306,"o":"m 56 444 q 61 487 56 471 q 76 513 67 503 q 97 530 85 524 q 125 542 110 536 q 152 553 139 547 q 174 569 165 558 q 189 596 183 579 q 194 639 194 613 l 194 1083 q 206 1151 194 1136 q 250 1167 218 1167 q 294 1151 282 1167 q 306 1083 306 1136 l 306 111 q 302 53 306 75 q 287 19 299 31 q 253 3 275 7 q 194 0 231 0 l 167 0 q 108 3 131 0 q 74 19 86 7 q 59 53 63 31 q 56 111 56 75 l 56 444 z "},"j":{"ha":889,"x_min":56,"x_max":833,"o":"m 639 1167 q 683 1151 671 1167 q 694 1083 694 1136 l 694 736 q 700 693 694 710 q 715 666 706 676 q 736 650 724 656 q 764 639 749 644 q 791 627 778 633 q 813 610 804 621 q 828 584 822 600 q 833 542 833 568 l 833 222 q 828 100 833 144 q 800 33 822 56 q 733 6 778 11 q 611 0 689 0 l 278 0 q 156 6 200 0 q 89 33 111 11 q 61 100 67 56 q 56 222 56 144 l 56 278 l 56 292 q 59 342 56 322 q 74 372 63 361 q 108 385 86 382 q 167 389 131 389 q 225 385 203 389 q 259 372 247 382 q 274 342 271 361 q 278 292 278 322 l 278 278 l 278 224 q 281 163 278 186 q 297 128 285 140 q 331 113 308 117 q 389 110 353 110 l 472 111 q 531 115 508 111 q 565 130 553 118 q 580 163 576 142 q 583 222 583 185 l 583 1083 q 595 1151 583 1136 q 639 1167 607 1167 z "},"k":{"ha":903,"x_min":56,"x_max":847,"o":"m 597 417 q 594 475 597 453 q 578 509 590 497 q 544 524 567 521 q 486 528 522 528 l 417 528 q 358 524 381 528 q 324 509 336 521 q 309 475 313 497 q 306 417 306 453 l 306 111 q 302 53 306 75 q 287 19 299 31 q 253 3 275 7 q 194 0 231 0 l 167 0 q 108 3 131 0 q 74 19 86 7 q 59 53 63 31 q 56 111 56 75 l 56 1083 q 67 1151 56 1136 q 111 1167 79 1167 q 155 1151 143 1167 q 167 1083 167 1136 l 167 750 q 192 690 167 697 q 258 722 217 682 l 667 1113 q 694 1137 682 1126 q 719 1153 706 1147 q 748 1161 732 1158 q 788 1164 764 1164 q 830 1155 819 1164 q 840 1135 840 1146 q 814 1092 840 1118 l 426 722 q 385 660 382 681 q 451 639 388 639 l 736 639 q 794 635 772 639 q 827 620 815 632 q 843 586 839 608 q 847 528 847 564 l 847 111 q 844 53 847 75 q 828 19 840 31 q 794 3 817 7 q 736 0 772 0 l 708 0 q 650 3 672 0 q 616 19 628 7 q 601 53 604 31 q 597 111 597 75 l 597 417 z "},"l":{"ha":708,"x_min":56,"x_max":667,"o":"m 167 0 q 108 3 131 0 q 74 19 86 7 q 59 53 63 31 q 56 111 56 75 l 56 444 q 61 487 56 471 q 76 513 67 503 q 97 530 85 524 q 125 542 110 536 q 152 553 139 547 q 174 569 165 558 q 189 596 183 579 q 194 639 194 613 l 194 1083 q 206 1151 194 1136 q 250 1167 218 1167 q 294 1151 282 1167 q 306 1083 306 1136 l 306 222 q 309 164 306 186 q 324 130 313 142 q 358 115 336 118 q 417 111 381 111 l 583 111 q 651 99 636 111 q 667 53 667 86 q 651 12 667 24 q 583 0 636 0 l 167 0 z "},"m":{"ha":1028,"x_min":56,"x_max":972,"o":"m 390 885 q 427 853 406 853 q 465 883 449 853 l 581 1085 q 608 1130 597 1114 q 633 1154 619 1146 q 667 1165 647 1163 q 722 1167 688 1167 l 861 1167 q 919 1163 897 1167 q 953 1148 942 1160 q 969 1114 965 1136 q 972 1056 972 1092 l 972 111 q 969 53 972 75 q 953 19 965 31 q 919 3 942 7 q 861 0 897 0 l 833 0 q 775 3 797 0 q 741 19 753 7 q 726 53 729 31 q 722 111 722 75 l 722 1000 q 716 1033 722 1022 q 701 1044 710 1043 q 684 1038 693 1044 q 669 1021 675 1031 l 465 667 q 417 629 444 631 q 371 667 389 628 l 210 1015 q 184 1033 201 1035 q 167 1000 167 1032 l 167 83 q 155 15 167 31 q 111 0 143 0 q 67 15 79 0 q 56 83 56 31 l 56 1056 q 59 1114 56 1092 q 74 1148 63 1136 q 108 1163 86 1160 q 167 1167 131 1167 l 186 1167 q 231 1165 214 1167 q 258 1154 247 1163 q 277 1130 268 1146 q 299 1085 286 1114 l 390 885 z "},"n":{"ha":889,"x_min":56,"x_max":833,"o":"m 722 333 q 722 394 722 372 q 715 433 721 417 q 699 466 710 450 q 667 507 688 482 l 249 1015 q 223 1040 233 1033 q 197 1047 213 1047 q 174 1038 182 1047 q 167 1000 167 1028 l 167 83 q 155 15 167 31 q 111 0 143 0 q 67 15 79 0 q 56 83 56 31 l 56 1056 q 59 1114 56 1092 q 74 1148 63 1136 q 108 1163 86 1160 q 167 1167 131 1167 l 194 1167 q 235 1165 219 1167 q 263 1156 250 1164 q 292 1132 276 1149 q 333 1085 308 1115 l 654 693 q 694 665 678 665 q 722 722 722 665 l 722 1083 q 734 1151 722 1136 q 778 1167 746 1167 q 822 1151 810 1167 q 833 1083 833 1136 l 833 83 q 822 15 833 31 q 778 0 810 0 q 734 15 746 0 q 722 83 722 31 l 722 333 z "},"o":{"ha":861,"x_min":56,"x_max":806,"o":"m 56 944 q 61 1067 56 1022 q 89 1133 67 1111 q 156 1161 111 1156 q 278 1167 200 1167 l 583 1167 q 706 1161 661 1167 q 772 1133 750 1156 q 800 1067 794 1111 q 806 944 806 1022 l 806 222 q 800 100 806 144 q 772 33 794 56 q 706 6 750 11 q 583 0 661 0 l 278 0 q 156 6 200 0 q 89 33 111 11 q 61 100 67 56 q 56 222 56 144 l 56 944 m 556 569 q 561 612 556 596 q 576 638 567 628 q 597 655 585 649 q 625 667 610 661 q 652 678 639 672 q 674 694 665 683 q 689 721 683 704 q 694 764 694 738 l 694 944 q 691 1003 694 981 q 676 1037 688 1025 q 642 1052 664 1049 q 583 1056 619 1056 l 278 1056 q 219 1052 242 1056 q 185 1037 197 1049 q 170 1003 174 1025 q 167 944 167 981 l 167 222 q 170 164 167 186 q 186 130 174 142 q 222 115 199 118 q 282 111 244 111 l 444 111 q 503 115 481 111 q 537 130 525 118 q 552 164 549 142 q 556 222 556 186 l 556 569 z "},"p":{"ha":833,"x_min":56,"x_max":778,"o":"m 306 111 q 302 53 306 75 q 287 19 299 31 q 253 3 275 7 q 194 0 231 0 l 167 0 q 108 3 131 0 q 74 19 86 7 q 59 53 63 31 q 56 111 56 75 l 56 944 q 61 1067 56 1022 q 89 1133 67 1111 q 156 1161 111 1156 q 278 1167 200 1167 l 556 1167 q 678 1161 633 1167 q 744 1133 722 1156 q 772 1067 767 1111 q 778 944 778 1022 l 778 750 q 772 628 778 672 q 744 561 767 583 q 678 533 722 539 q 556 528 633 528 l 417 528 q 358 524 381 528 q 324 509 336 521 q 309 475 313 497 q 306 417 306 453 l 306 111 m 167 750 q 170 692 167 714 q 185 658 174 669 q 219 642 197 646 q 278 639 242 639 l 556 639 q 614 642 592 639 q 648 658 636 646 q 663 692 660 669 q 667 750 667 714 l 667 944 q 663 1003 667 981 q 648 1037 660 1025 q 614 1052 636 1049 q 556 1056 592 1056 l 278 1056 q 219 1052 242 1056 q 185 1037 197 1049 q 170 1003 174 1025 q 167 944 167 981 l 167 750 z "},"q":{"ha":861,"x_min":56,"x_max":806,"o":"m 806 222 q 803 135 806 171 q 794 75 801 99 q 774 38 788 51 q 736 18 760 24 q 703 -7 703 10 q 705 -22 703 -12 q 711 -40 707 -31 l 732 -85 q 746 -131 746 -117 q 724 -165 746 -149 q 679 -181 703 -181 q 632 -132 654 -181 l 596 -54 q 581 -26 588 -36 q 567 -10 575 -15 q 547 -2 560 -4 q 514 0 535 0 l 278 0 q 156 6 200 0 q 89 33 111 11 q 61 100 67 56 q 56 222 56 144 l 56 944 q 61 1067 56 1022 q 89 1133 67 1111 q 156 1161 111 1156 q 278 1167 200 1167 l 583 1167 q 706 1161 661 1167 q 772 1133 750 1156 q 800 1067 794 1111 q 806 944 806 1022 l 806 222 m 278 222 q 281 164 278 186 q 297 130 285 142 q 331 115 308 118 q 389 111 353 111 l 439 111 q 491 116 475 111 q 507 135 507 121 q 496 169 507 144 l 460 246 q 446 292 446 274 q 467 325 446 310 q 513 340 489 340 q 538 329 528 340 q 560 293 549 318 l 619 167 q 657 132 636 132 q 683 154 672 132 q 694 222 694 176 l 694 944 q 691 1003 694 981 q 676 1037 688 1025 q 642 1052 664 1049 q 583 1056 619 1056 l 278 1056 q 219 1052 242 1056 q 185 1037 197 1049 q 170 1003 174 1025 q 167 944 167 981 l 167 903 q 170 860 167 876 q 180 833 174 843 q 197 817 186 822 q 222 806 207 811 q 247 794 236 800 q 265 777 258 788 q 274 751 271 767 q 278 708 278 735 l 278 222 z "},"r":{"ha":917,"x_min":56,"x_max":861,"o":"m 611 414 q 608 474 611 451 q 592 508 604 496 q 558 524 581 521 q 500 528 536 528 l 417 528 q 358 524 381 528 q 324 509 336 521 q 309 475 313 497 q 306 417 306 453 l 306 111 q 302 53 306 75 q 287 19 299 31 q 253 3 275 7 q 194 0 231 0 l 167 0 q 108 3 131 0 q 74 19 86 7 q 59 53 63 31 q 56 111 56 75 l 56 944 q 61 1067 56 1022 q 89 1133 67 1111 q 156 1161 111 1156 q 278 1167 200 1167 l 500 1167 q 622 1161 578 1167 q 689 1133 667 1156 q 717 1067 711 1111 q 722 944 722 1022 l 722 750 q 728 707 722 724 q 742 680 733 690 q 764 664 751 669 q 792 653 776 658 q 819 641 806 647 q 841 624 832 635 q 856 598 850 614 q 861 556 861 582 l 861 111 q 858 53 861 75 q 842 19 854 31 q 808 3 831 7 q 750 0 786 0 l 722 0 q 664 3 686 0 q 630 19 642 7 q 615 53 618 31 q 611 111 611 75 l 611 414 m 167 750 q 170 692 167 714 q 185 658 174 669 q 219 642 197 646 q 278 639 242 639 l 500 639 q 558 642 536 639 q 592 658 581 646 q 608 692 604 669 q 611 750 611 714 l 611 944 q 608 1003 611 981 q 592 1037 604 1025 q 558 1052 581 1049 q 500 1056 536 1056 l 278 1056 q 219 1052 242 1056 q 185 1037 197 1049 q 170 1003 174 1025 q 167 944 167 981 l 167 750 z "},"s":{"ha":751,"x_min":56,"x_max":694,"o":"m 56 944 q 61 1067 56 1022 q 89 1133 67 1111 q 156 1161 111 1156 q 278 1167 200 1167 l 472 1167 q 594 1161 550 1167 q 661 1133 639 1156 q 689 1067 683 1111 q 694 944 694 1022 l 694 889 q 690 844 694 861 q 679 819 686 828 q 662 808 672 811 q 639 806 651 806 q 616 808 626 806 q 599 818 606 810 q 588 843 592 826 q 583 888 583 860 l 583 944 q 580 1003 583 981 q 565 1037 576 1025 q 531 1052 553 1049 q 472 1056 508 1056 l 278 1056 q 219 1052 242 1056 q 185 1037 197 1049 q 170 1003 174 1025 q 167 944 167 981 l 167 750 q 170 692 167 714 q 185 658 174 669 q 219 642 197 646 q 278 639 242 639 l 472 639 q 594 633 550 639 q 661 606 639 628 q 689 539 683 583 q 694 415 694 494 l 694 221 q 690 99 694 143 q 663 33 685 54 q 595 6 640 11 q 472 0 550 0 l 278 0 q 156 6 200 0 q 89 33 111 11 q 61 100 67 56 q 56 222 56 144 l 56 250 q 59 308 56 286 q 74 342 63 331 q 108 358 86 354 q 167 361 131 361 q 225 358 203 361 q 259 342 247 354 q 274 308 271 331 q 278 250 278 286 l 278 222 q 281 164 278 186 q 297 130 285 142 q 331 115 308 118 q 389 111 353 111 l 472 111 q 531 115 508 111 q 565 130 553 118 q 580 163 576 142 q 583 222 583 185 l 583 415 q 580 475 583 453 q 565 509 576 497 q 531 524 553 521 q 472 528 508 528 l 278 528 q 156 533 200 528 q 89 561 111 539 q 61 628 67 583 q 56 750 56 672 l 56 944 z "},"t":{"ha":861,"x_min":42,"x_max":819,"o":"m 42 1110 q 57 1154 42 1142 q 125 1167 72 1167 l 736 1167 q 804 1154 789 1167 q 819 1110 819 1142 q 804 1067 819 1079 q 736 1056 789 1056 l 681 1056 q 622 1052 644 1056 q 588 1037 600 1049 q 573 1003 576 1025 q 569 944 569 981 l 569 111 q 566 53 569 75 q 550 19 563 31 q 513 3 538 7 q 447 0 489 0 q 379 3 404 0 q 341 19 354 7 q 324 53 328 31 q 319 111 319 75 l 319 944 q 316 1003 319 981 q 301 1037 313 1025 q 267 1052 289 1049 q 208 1056 244 1056 l 125 1056 q 57 1067 72 1056 q 42 1110 42 1079 z "},"u":{"ha":778,"x_min":56,"x_max":722,"o":"m 56 1083 q 67 1151 56 1136 q 111 1167 79 1167 q 155 1151 143 1167 q 167 1083 167 1136 l 167 222 q 170 163 167 185 q 185 130 174 142 q 219 115 197 118 q 278 111 242 111 l 361 111 q 419 115 397 111 q 453 130 442 118 q 469 163 465 142 q 472 222 472 185 l 472 1056 q 476 1114 472 1092 q 491 1148 479 1136 q 525 1163 503 1160 q 583 1167 547 1167 l 611 1167 q 669 1163 647 1167 q 703 1148 692 1160 q 719 1114 715 1136 q 722 1056 722 1092 l 722 222 q 717 100 722 144 q 689 33 711 56 q 622 6 667 11 q 500 0 578 0 l 278 0 q 156 6 200 0 q 89 33 111 11 q 61 100 67 56 q 56 222 56 144 l 56 1083 z "},"v":{"ha":778,"x_min":56,"x_max":722,"o":"m 331 167 q 365 122 354 131 q 392 113 376 113 q 417 119 407 113 q 446 146 426 126 q 467 176 461 161 q 472 222 472 190 l 472 1056 q 476 1114 472 1092 q 491 1148 479 1136 q 525 1163 503 1160 q 583 1167 547 1167 l 611 1167 q 669 1163 647 1167 q 703 1148 692 1160 q 719 1114 715 1136 q 722 1056 722 1092 l 722 375 q 716 299 722 333 q 681 236 710 264 l 519 83 q 441 15 471 36 q 379 -6 411 -6 q 345 -1 360 -6 q 317 13 331 3 q 290 40 304 22 q 260 83 276 57 l 111 317 q 83 364 93 344 q 66 402 72 383 q 58 443 60 421 q 56 500 56 465 l 56 1083 q 67 1151 56 1136 q 111 1167 79 1167 q 155 1151 143 1167 q 167 1083 167 1136 l 167 500 q 167 456 167 472 q 172 426 168 439 q 182 401 175 413 q 200 371 189 389 l 331 167 z "},"w":{"ha":1014,"x_min":56,"x_max":958,"o":"m 354 111 q 333 50 343 72 q 309 17 322 28 q 276 3 296 6 q 225 0 256 0 l 167 0 q 108 3 131 0 q 74 19 86 7 q 59 53 63 31 q 56 111 56 75 l 56 1056 q 59 1114 56 1092 q 74 1148 63 1136 q 108 1163 86 1160 q 167 1167 131 1167 l 194 1167 q 253 1163 231 1167 q 287 1148 275 1160 q 302 1114 299 1136 q 306 1056 306 1092 l 306 417 q 318 383 306 383 q 329 389 325 383 q 339 414 333 394 l 403 628 q 433 686 414 668 q 475 704 453 704 q 514 689 494 704 q 547 644 533 674 l 776 151 q 818 114 794 114 q 839 126 831 114 q 847 167 847 139 l 847 1083 q 859 1151 847 1136 q 903 1167 871 1167 q 947 1151 935 1167 q 958 1083 958 1136 l 958 111 q 955 53 958 75 q 940 19 951 31 q 906 3 928 7 q 847 0 883 0 l 800 0 q 755 2 771 0 q 728 13 739 4 q 709 37 718 21 q 688 82 700 53 l 493 500 q 479 511 486 511 q 468 499 472 511 l 354 111 z "},"x":{"ha":756,"x_min":56,"x_max":700,"o":"m 56 343 q 58 378 56 364 q 65 403 60 392 q 82 425 71 414 q 113 451 93 436 l 194 513 q 221 533 210 524 q 239 551 232 542 q 249 571 246 560 q 253 599 253 582 l 253 603 q 240 655 253 638 q 194 696 226 672 l 113 757 q 82 783 93 771 q 65 806 71 794 q 58 831 60 817 q 56 865 56 844 l 56 1083 q 67 1151 56 1136 q 111 1167 79 1167 q 155 1151 143 1167 q 167 1083 167 1136 l 167 932 q 172 863 167 883 q 193 831 178 843 l 294 750 q 338 723 319 731 q 378 715 357 715 q 417 723 399 715 q 461 750 436 731 l 563 831 q 583 863 578 843 q 589 932 589 883 l 589 1083 q 601 1151 589 1136 q 644 1167 613 1167 q 688 1151 676 1167 q 700 1083 700 1136 l 700 865 q 698 831 700 844 q 690 806 696 817 q 673 783 685 794 q 643 757 661 771 l 561 696 q 535 676 546 685 q 517 658 524 667 q 506 638 510 649 q 503 610 503 626 l 503 606 q 506 576 503 588 q 515 553 508 564 q 533 534 522 543 q 561 513 544 525 l 643 451 q 673 425 661 436 q 690 403 685 414 q 698 378 696 392 q 700 343 700 364 l 700 83 q 688 15 700 31 q 644 0 676 0 q 601 15 613 0 q 589 83 589 31 l 589 276 q 583 345 589 325 q 563 378 578 365 l 461 458 q 417 485 436 478 q 378 493 399 493 q 338 485 357 493 q 294 458 319 478 l 193 378 q 172 345 178 365 q 167 276 167 325 l 167 83 q 155 15 167 31 q 111 0 143 0 q 67 15 79 0 q 56 83 56 31 l 56 343 z "},"y":{"ha":756,"x_min":56,"x_max":700,"o":"m 700 726 q 698 692 700 706 q 690 667 696 678 q 673 644 685 656 q 643 618 661 632 l 561 557 q 517 505 529 533 q 503 443 504 476 l 503 111 q 499 53 503 75 q 484 19 496 31 q 450 3 472 7 q 392 0 428 0 l 364 0 q 306 3 328 0 q 272 19 283 7 q 256 53 260 31 q 253 111 253 75 l 253 436 q 240 503 253 472 q 194 557 226 533 l 113 618 q 82 644 93 632 q 65 667 71 656 q 58 692 60 678 q 56 726 56 706 l 56 1083 q 67 1151 56 1136 q 111 1167 79 1167 q 155 1151 143 1167 q 167 1083 167 1136 l 167 793 q 172 724 167 744 q 193 692 178 704 l 294 611 q 338 584 319 592 q 378 576 357 576 q 417 584 399 576 q 461 611 436 592 l 563 692 q 583 724 578 704 q 589 793 589 744 l 589 1083 q 601 1151 589 1136 q 644 1167 613 1167 q 688 1151 676 1167 q 700 1083 700 1136 l 700 726 z "},"z":{"ha":831,"x_min":54,"x_max":775,"o":"m 67 944 q 72 1067 67 1022 q 100 1133 78 1111 q 167 1161 122 1156 q 289 1167 211 1167 l 657 1167 q 715 1158 696 1167 q 740 1133 735 1149 q 739 1097 744 1117 q 721 1056 733 1076 l 235 167 q 221 124 218 138 q 260 111 224 111 l 414 111 q 472 115 450 111 q 506 130 494 118 q 522 164 518 142 q 525 222 525 186 l 525 278 q 528 336 525 314 q 544 370 532 358 q 578 385 556 382 q 636 389 600 389 l 664 389 q 722 385 700 389 q 756 370 744 382 q 772 336 768 358 q 775 278 775 314 l 775 111 q 772 53 775 75 q 756 19 768 31 q 722 3 744 7 q 664 0 700 0 l 143 0 q 85 9 104 0 q 60 34 65 18 q 60 70 54 50 q 78 111 65 90 l 565 1000 q 579 1042 582 1029 q 540 1056 576 1056 l 289 1056 q 231 1052 253 1056 q 197 1037 208 1049 q 181 1003 185 1025 q 178 944 178 981 l 178 875 q 166 807 178 822 q 122 792 154 792 q 78 807 90 792 q 67 875 67 822 l 67 944 z "},"{":{"ha":597,"x_min":42,"x_max":542,"o":"m 125 528 q 81 530 97 528 q 56 538 64 532 q 44 555 47 544 q 42 583 42 565 q 44 612 42 601 q 56 628 47 622 q 81 637 64 635 q 125 639 97 639 q 183 642 161 639 q 217 658 206 646 q 233 692 229 669 q 236 750 236 714 l 236 972 q 242 1094 236 1050 q 269 1161 247 1139 q 336 1189 292 1183 q 458 1194 381 1194 q 526 1183 511 1194 q 542 1139 542 1171 q 526 1095 542 1107 q 458 1083 511 1083 q 400 1080 422 1083 q 366 1065 378 1076 q 351 1031 354 1053 q 347 972 347 1008 l 347 708 q 333 626 347 658 q 278 583 319 594 q 333 540 319 572 q 347 458 347 508 l 347 83 q 351 25 347 47 q 366 -9 354 3 q 400 -24 378 -21 q 458 -28 422 -28 q 526 -40 511 -28 q 542 -83 542 -51 q 526 -127 542 -115 q 458 -139 511 -139 q 336 -133 381 -139 q 269 -106 292 -128 q 242 -39 247 -83 q 236 83 236 6 l 236 417 q 233 475 236 453 q 217 509 229 497 q 183 524 206 521 q 125 528 161 528 z "},"|":{"ha":222,"x_min":56,"x_max":167,"o":"m 111 -28 q 67 -12 79 -28 q 56 56 56 3 l 56 1111 q 67 1179 56 1164 q 111 1194 79 1194 q 155 1179 143 1194 q 167 1111 167 1164 l 167 56 q 155 -12 167 3 q 111 -28 143 -28 z "},"}":{"ha":597,"x_min":56,"x_max":556,"o":"m 472 528 q 414 524 436 528 q 380 509 392 521 q 365 475 368 497 q 361 417 361 453 l 361 83 q 356 -39 361 6 q 328 -106 350 -83 q 261 -133 306 -128 q 139 -139 217 -139 q 71 -127 86 -139 q 56 -83 56 -115 q 71 -40 56 -51 q 139 -28 86 -28 q 197 -24 175 -28 q 231 -9 219 -21 q 247 25 243 3 q 250 83 250 47 l 250 458 q 264 540 250 508 q 319 583 278 572 q 264 626 278 594 q 250 708 250 658 l 250 972 q 247 1031 250 1008 q 231 1065 243 1053 q 197 1080 219 1076 q 139 1083 175 1083 q 71 1095 86 1083 q 56 1139 56 1107 q 71 1183 56 1171 q 139 1194 86 1194 q 261 1189 217 1194 q 328 1161 306 1183 q 356 1094 350 1139 q 361 972 361 1050 l 361 750 q 365 692 361 714 q 380 658 368 669 q 414 642 392 646 q 472 639 436 639 q 517 637 500 639 q 542 628 533 635 q 553 612 550 622 q 556 583 556 601 q 553 555 556 565 q 542 538 550 544 q 517 530 533 532 q 472 528 500 528 z "},"~":{"ha":828,"x_min":111,"x_max":717,"o":"m 111 542 q 118 624 111 593 q 144 670 125 654 q 199 690 164 686 q 292 694 235 694 q 367 692 339 694 q 410 683 394 689 q 435 665 426 676 q 454 639 443 654 q 474 609 465 622 q 491 587 482 596 q 510 574 500 578 q 536 569 521 569 q 589 581 572 569 q 606 625 606 593 q 608 663 606 649 q 616 684 610 676 q 633 694 622 692 q 661 696 644 696 q 689 694 678 696 q 706 684 700 692 q 715 663 713 676 q 717 625 717 649 q 710 542 717 572 q 683 497 703 513 q 628 476 664 481 q 536 472 593 472 q 461 475 489 472 q 417 484 433 478 q 392 501 401 490 q 374 528 383 513 q 354 558 363 544 q 338 580 346 571 q 319 593 329 589 q 293 597 308 597 q 240 585 257 597 q 222 542 222 574 q 220 503 222 518 q 212 482 218 489 q 194 473 206 475 q 167 471 183 471 q 139 473 150 471 q 122 482 128 475 q 113 503 115 489 q 111 542 111 518 z "},"¡":{"ha":374,"x_min":38,"x_max":342,"o":"m 336 10 q 340 -28 339 -8 q 342 -65 342 -49 q 301 -183 342 -139 q 192 -228 260 -228 q 81 -183 124 -228 q 38 -65 38 -139 q 40 -25 38 -49 q 46 19 42 -1 l 146 564 q 193 617 153 617 q 226 602 213 617 q 243 564 239 588 l 336 10 m 324 783 q 320 725 324 747 q 305 691 317 703 q 271 676 293 679 q 213 672 249 672 l 171 672 q 113 676 135 672 q 78 691 90 679 q 63 725 67 703 q 60 783 60 747 l 60 825 q 63 883 60 861 q 78 917 67 906 q 113 933 90 929 q 171 936 135 936 l 213 936 q 271 933 249 936 q 305 917 293 929 q 320 883 317 906 q 324 825 324 861 l 324 783 z "},"¢":{"ha":750,"x_min":56,"x_max":694,"o":"m 347 -111 q 324 -108 332 -111 q 311 -95 315 -104 q 306 -70 307 -86 q 306 -28 306 -54 l 306 0 l 278 0 q 156 6 200 0 q 89 33 111 11 q 61 100 67 56 q 56 222 56 144 l 56 722 q 61 844 56 800 q 89 911 67 889 q 156 939 111 933 q 278 944 200 944 l 306 944 l 306 972 q 306 1015 306 999 q 311 1040 307 1031 q 324 1052 315 1049 q 347 1056 332 1056 q 383 1040 378 1056 q 389 972 389 1024 l 389 944 l 472 944 q 594 939 550 944 q 661 911 639 933 q 689 844 683 889 q 694 722 694 800 l 694 653 q 691 602 694 621 q 677 573 688 583 q 648 559 667 563 q 599 556 629 556 l 583 556 q 533 559 551 556 q 503 573 514 563 q 490 602 493 583 q 486 653 486 621 l 486 721 q 483 777 486 756 q 469 811 479 799 q 440 828 458 824 q 389 833 421 833 l 389 139 l 389 111 l 472 111 q 531 115 508 111 q 565 130 553 118 q 580 164 576 142 q 583 222 583 186 l 583 306 q 598 374 583 358 q 638 389 613 389 q 678 374 663 389 q 694 306 694 358 l 694 222 q 689 100 694 144 q 661 33 683 56 q 594 6 639 11 q 472 0 550 0 l 389 0 l 389 -28 q 388 -70 389 -54 q 383 -95 388 -86 q 371 -108 379 -104 q 347 -111 363 -111 m 167 222 q 170 164 167 186 q 185 130 174 142 q 219 115 197 118 q 278 111 242 111 l 306 111 l 306 139 l 306 833 l 278 833 q 219 830 242 833 q 185 815 197 826 q 170 781 174 803 q 167 722 167 758 l 167 222 z "},"£":{"ha":903,"x_min":56,"x_max":847,"o":"m 569 832 q 566 892 569 869 q 551 926 563 914 q 517 941 539 938 q 458 944 494 944 l 417 944 q 358 941 381 944 q 324 926 336 938 q 309 892 313 914 q 306 833 306 869 l 306 694 q 309 636 306 658 q 324 602 313 614 q 358 587 336 590 q 417 583 381 583 l 569 583 q 614 579 597 583 q 639 568 631 575 q 650 551 647 561 q 653 528 653 540 q 650 505 653 515 q 639 488 647 494 q 614 476 631 481 q 569 472 597 472 l 417 472 q 358 469 381 472 q 324 453 336 465 q 309 418 313 440 q 306 358 306 396 l 306 222 q 309 164 306 186 q 324 130 313 142 q 358 115 336 118 q 417 111 381 111 l 625 111 q 683 115 661 111 q 717 130 706 118 q 733 164 729 142 q 736 222 736 186 l 736 306 q 751 374 736 358 q 790 389 765 389 q 831 374 815 389 q 847 306 847 358 l 847 222 q 842 100 847 144 q 814 33 836 56 q 747 6 792 11 q 625 0 703 0 l 167 0 q 108 3 131 0 q 74 19 86 7 q 59 53 63 31 q 56 111 56 75 l 56 486 q 61 528 56 513 q 76 555 67 544 q 97 572 85 565 q 125 583 110 578 q 152 594 139 589 q 174 610 165 600 q 189 638 183 621 q 194 681 194 654 l 194 833 q 200 956 194 911 q 228 1022 206 1000 q 294 1050 250 1044 q 417 1056 339 1056 l 597 1056 q 719 1050 675 1056 q 786 1022 764 1044 q 814 956 808 1000 q 819 833 819 911 l 819 806 q 816 755 819 774 q 802 726 813 736 q 773 712 792 715 q 724 708 754 708 l 667 708 q 616 712 635 708 q 587 726 597 715 q 573 755 576 736 q 569 806 569 774 l 569 832 z "},"¥":{"ha":756,"x_min":56,"x_max":700,"o":"m 72 278 q 88 322 72 310 q 156 333 103 333 l 197 333 q 228 335 217 333 q 244 342 239 336 q 251 358 250 347 q 253 389 253 369 q 240 451 253 425 q 194 501 226 478 l 113 563 q 82 588 93 576 q 65 611 71 600 q 58 636 60 622 q 56 671 56 650 l 56 972 q 67 1040 56 1025 q 111 1056 79 1056 q 155 1040 143 1056 q 167 972 167 1025 l 167 738 q 172 669 167 689 q 193 636 178 649 l 294 556 q 338 528 319 536 q 378 521 357 521 q 417 528 399 521 q 461 556 436 536 l 563 636 q 583 669 578 649 q 589 738 589 689 l 589 972 q 601 1040 589 1025 q 644 1056 613 1056 q 688 1040 676 1056 q 700 972 700 1025 l 700 671 q 698 636 700 650 q 690 611 696 622 q 673 588 685 600 q 643 563 661 576 l 561 501 q 516 451 529 478 q 503 389 503 425 q 504 358 503 369 q 511 342 506 347 q 528 335 517 336 q 558 333 539 333 l 600 333 q 668 322 653 333 q 683 278 683 310 q 668 234 683 246 q 600 222 653 222 l 558 222 q 528 221 539 222 q 511 214 517 219 q 504 197 506 208 q 503 167 503 186 l 503 111 q 499 53 503 75 q 484 19 496 31 q 450 3 472 7 q 392 0 428 0 l 364 0 q 306 3 328 0 q 272 19 283 7 q 256 53 260 31 q 253 111 253 75 l 253 167 q 244 214 253 206 q 197 222 236 222 l 156 222 q 88 234 104 222 q 72 278 72 246 z "},"¦":{"ha":222,"x_min":56,"x_max":167,"o":"m 111 694 q 67 710 79 694 q 56 778 56 725 l 56 1111 q 67 1179 56 1164 q 111 1194 79 1194 q 155 1179 143 1194 q 167 1111 167 1164 l 167 778 q 155 710 167 725 q 111 694 143 694 m 111 -28 q 67 -12 79 -28 q 56 56 56 3 l 56 389 q 67 457 56 442 q 111 472 79 472 q 155 457 143 472 q 167 389 167 442 l 167 56 q 155 -12 167 3 q 111 -28 143 -28 z "},"§":{"ha":432,"x_min":56,"x_max":375,"o":"m 56 208 q 58 259 56 239 q 78 292 61 279 q 58 324 61 304 q 56 375 56 343 l 56 444 q 58 506 56 483 q 72 539 61 528 q 106 553 83 550 q 167 556 128 556 l 250 556 q 311 553 289 556 q 344 539 333 550 q 358 506 356 528 q 361 444 361 483 q 356 410 361 417 q 326 403 350 403 q 297 409 303 403 q 292 444 292 415 q 282 478 292 471 q 236 486 272 486 l 181 486 q 135 476 144 486 q 125 431 125 467 l 125 389 q 135 343 125 353 q 181 333 144 333 l 264 333 q 325 331 303 333 q 358 317 347 328 q 372 283 369 306 q 375 221 375 260 l 375 138 q 372 85 375 106 q 353 54 369 65 q 372 22 368 42 q 375 -29 375 1 l 375 -99 q 373 -159 375 -137 q 359 -192 371 -181 q 325 -206 347 -203 q 264 -208 303 -208 l 167 -208 q 106 -206 128 -208 q 72 -192 83 -203 q 58 -158 61 -181 q 56 -97 56 -136 l 56 -83 q 65 -37 56 -47 q 111 -28 75 -28 q 157 -37 147 -28 q 167 -83 167 -47 l 167 -86 q 176 -132 167 -122 q 222 -142 186 -142 l 250 -142 q 296 -132 286 -142 q 306 -86 306 -122 l 306 -43 q 296 4 306 -6 q 250 14 286 14 l 167 14 q 106 17 128 14 q 72 31 83 19 q 58 64 61 42 q 56 125 56 86 l 56 208 m 181 264 q 134 252 143 264 q 125 208 125 240 l 125 139 q 135 93 125 103 q 181 83 144 83 l 250 83 q 296 92 286 83 q 306 136 306 101 l 306 207 q 296 254 306 244 q 250 264 286 264 l 181 264 z "},"¨":{"ha":742,"x_min":183,"x_max":571,"o":"m 183 1079 q 185 1115 183 1101 q 194 1135 188 1128 q 215 1144 201 1142 q 250 1146 228 1146 l 261 1146 q 316 1134 304 1146 q 328 1079 328 1122 l 328 1026 q 326 991 328 1004 q 317 971 324 978 q 297 962 310 964 q 261 960 283 960 l 250 960 q 215 962 228 960 q 194 971 201 964 q 185 991 188 978 q 183 1026 183 1004 l 183 1079 m 426 1079 q 428 1115 426 1101 q 438 1135 431 1128 q 458 1144 444 1142 q 493 1146 471 1146 l 504 1146 q 559 1134 547 1146 q 571 1079 571 1122 l 571 1026 q 569 991 571 1004 q 560 971 567 978 q 540 962 553 964 q 504 960 526 960 l 493 960 q 458 962 471 960 q 438 971 444 964 q 428 991 431 978 q 426 1026 426 1004 l 426 1079 z "},"ª":{"ha":449,"x_min":51,"x_max":392,"o":"m 190 750 q 181 704 190 714 q 135 694 171 694 l 107 694 q 61 704 71 694 q 51 750 51 714 l 51 868 q 61 903 51 894 q 86 917 71 911 q 111 931 101 922 q 121 965 121 939 l 121 1056 q 124 1117 121 1094 q 138 1150 126 1139 q 171 1164 149 1161 q 232 1167 193 1167 l 281 1167 q 342 1164 319 1167 q 375 1150 364 1161 q 389 1117 386 1139 q 392 1056 392 1094 l 392 736 q 382 701 392 708 q 357 693 372 693 q 332 701 342 693 q 322 736 322 708 l 322 833 q 313 879 322 869 q 267 889 303 889 l 246 889 q 200 879 210 889 q 190 832 190 869 l 190 750 m 322 1042 q 313 1088 322 1078 q 267 1097 303 1097 l 246 1097 q 200 1088 210 1097 q 190 1042 190 1078 l 190 1014 q 200 968 190 978 q 246 958 210 958 l 267 958 q 313 968 303 958 q 322 1014 322 978 l 322 1042 m 69 583 q 85 627 69 615 q 153 639 100 639 l 292 639 q 360 627 344 639 q 375 583 375 615 q 360 540 375 551 q 292 528 344 528 l 153 528 q 85 540 100 528 q 69 583 69 551 z "},"«":{"ha":517,"x_min":40,"x_max":461,"o":"m 53 474 q 40 500 40 486 q 53 525 40 513 l 192 686 q 221 704 206 704 q 234 699 229 704 q 239 679 239 694 l 239 321 q 233 301 239 306 q 219 296 228 296 q 192 313 206 296 l 53 474 m 275 474 q 263 500 263 486 q 275 525 263 513 l 414 686 q 443 704 428 704 q 456 699 451 704 q 461 679 461 694 l 461 321 q 456 301 461 306 q 442 296 450 296 q 414 313 428 296 l 275 474 z "},"­":{"ha":556,"x_min":56,"x_max":500,"o":"m 56 583 q 71 627 56 615 q 139 639 86 639 l 417 639 q 485 627 469 639 q 500 583 500 615 q 485 540 500 551 q 417 528 469 528 l 139 528 q 71 540 86 528 q 56 583 56 551 z "},"¯":{"ha":889,"x_min":208,"x_max":792,"o":"m 208 1000 q 224 1044 208 1032 q 292 1056 239 1056 l 708 1056 q 776 1044 761 1056 q 792 1000 792 1032 q 776 956 792 968 q 708 944 761 944 l 292 944 q 224 956 239 944 q 208 1000 208 968 z "},"±":{"ha":889,"x_min":56,"x_max":833,"o":"m 56 222 q 71 266 56 254 q 139 278 86 278 l 333 278 q 364 279 353 278 q 381 286 375 281 q 388 303 386 292 q 389 333 389 314 l 389 472 q 388 503 389 492 q 381 519 386 514 q 364 526 375 525 q 333 528 353 528 l 139 528 q 71 540 86 528 q 56 583 56 551 q 71 627 56 615 q 139 639 86 639 l 333 639 q 364 640 353 639 q 381 647 375 642 q 388 664 386 653 q 389 694 389 675 l 389 889 q 401 957 389 942 q 444 972 413 972 q 488 957 476 972 q 500 889 500 942 l 500 694 q 501 664 500 675 q 508 647 503 653 q 525 640 514 642 q 556 639 536 639 l 750 639 q 818 627 803 639 q 833 583 833 615 q 818 540 833 551 q 750 528 803 528 l 556 528 q 525 526 536 528 q 508 519 514 525 q 501 503 503 514 q 500 472 500 492 l 500 333 q 501 303 500 314 q 508 286 503 292 q 525 279 514 281 q 556 278 536 278 l 750 278 q 818 266 803 278 q 833 222 833 254 q 818 178 833 190 q 750 167 803 167 l 139 167 q 71 178 86 167 q 56 222 56 190 z "},"²":{"ha":613,"x_min":56,"x_max":306,"o":"m 181 653 l 264 653 q 298 642 292 653 q 304 618 304 631 q 298 594 304 606 q 264 583 292 583 l 167 583 q 106 586 128 583 q 72 600 83 589 q 58 633 61 611 q 56 693 56 654 l 56 790 q 58 852 56 829 q 72 886 61 875 q 106 900 83 897 q 167 903 128 903 l 181 903 q 226 913 217 903 q 236 958 236 922 l 236 1042 q 226 1088 236 1078 q 181 1097 217 1097 l 111 1097 q 76 1108 83 1097 q 69 1132 69 1119 q 76 1156 69 1144 q 111 1167 83 1167 l 194 1167 q 256 1164 233 1167 q 289 1150 278 1161 q 303 1117 300 1139 q 306 1056 306 1094 l 306 943 q 303 882 306 904 q 289 849 300 860 q 256 835 278 838 q 194 832 233 832 l 181 832 q 135 822 144 832 q 125 775 125 813 l 125 708 q 135 663 125 672 q 181 653 144 653 z "},"³":{"ha":736,"x_min":69,"x_max":382,"o":"m 111 840 q 77 851 85 840 q 69 875 69 863 q 77 899 69 888 q 111 910 85 910 l 188 910 q 233 919 224 910 q 243 965 243 929 l 243 1042 q 233 1088 243 1078 q 188 1097 224 1097 l 111 1097 q 77 1108 85 1097 q 69 1132 69 1119 q 77 1156 69 1144 q 111 1167 85 1167 l 201 1167 q 263 1164 240 1167 q 296 1150 285 1161 q 310 1117 307 1139 q 313 1056 313 1094 l 313 931 q 319 892 313 904 q 340 875 325 881 q 369 857 356 869 q 382 818 382 844 l 382 694 q 379 633 382 656 q 365 600 376 611 q 332 586 354 589 q 271 583 310 583 l 111 583 q 77 594 85 583 q 69 618 69 606 q 77 642 69 631 q 111 653 85 653 l 188 653 q 233 663 224 653 q 243 708 243 672 l 243 785 q 233 831 243 821 q 188 840 224 840 l 111 840 z "},"´":{"ha":839,"x_min":361,"x_max":535,"o":"m 490 1097 q 522 1093 508 1097 q 535 1074 535 1089 q 514 1029 535 1056 l 478 981 q 450 951 461 958 q 407 944 439 944 l 399 944 q 369 954 376 944 q 361 992 361 964 l 361 1050 q 374 1088 361 1078 q 410 1097 386 1097 l 490 1097 z "},"µ":{"ha":861,"x_min":56,"x_max":861,"o":"m 417 0 q 358 -3 381 0 q 324 -19 336 -7 q 309 -53 313 -31 q 306 -111 306 -75 q 302 -169 306 -147 q 287 -203 299 -192 q 253 -219 275 -215 q 194 -222 231 -222 l 167 -222 q 108 -219 131 -222 q 74 -203 86 -215 q 59 -169 63 -192 q 56 -111 56 -147 l 56 694 q 67 763 56 747 q 111 778 79 778 q 155 763 143 778 q 167 694 167 747 l 167 222 q 170 164 167 186 q 185 130 174 142 q 219 115 197 118 q 278 111 242 111 l 361 111 q 419 115 397 111 q 453 130 442 118 q 469 164 465 142 q 472 222 472 186 l 472 667 q 476 725 472 703 q 491 759 479 747 q 525 774 503 771 q 583 778 547 778 l 611 778 q 669 774 647 778 q 703 759 692 771 q 719 725 715 747 q 722 667 722 703 l 722 250 q 729 192 722 214 q 747 156 736 169 q 772 137 758 143 q 801 125 786 131 q 846 101 831 114 q 861 56 861 88 q 846 12 861 24 q 778 0 831 0 l 417 0 z "},"·":{"ha":344,"x_min":40,"x_max":304,"o":"m 40 564 q 44 622 40 600 q 59 656 47 644 q 93 672 71 668 q 151 675 115 675 l 193 675 q 251 672 229 675 q 285 656 274 668 q 301 622 297 644 q 304 564 304 600 l 304 522 q 301 464 304 486 q 285 430 297 442 q 251 415 274 418 q 193 411 229 411 l 151 411 q 93 415 115 411 q 59 430 71 418 q 44 464 47 442 q 40 522 40 486 l 40 564 z "},"¸":{"ha":740,"x_min":281,"x_max":556,"o":"m 333 28 q 342 53 333 43 q 361 63 350 63 q 381 53 372 63 q 389 28 389 43 l 389 14 q 399 -32 389 -22 q 444 -42 408 -42 q 506 -44 483 -42 q 539 -57 528 -47 q 553 -86 550 -67 q 556 -140 556 -106 q 553 -199 556 -179 q 539 -226 550 -218 q 506 -235 528 -235 q 444 -236 483 -236 l 389 -236 q 328 -234 350 -236 q 295 -224 306 -232 q 283 -199 285 -215 q 281 -153 281 -182 q 289 -119 281 -126 q 335 -111 297 -111 q 381 -119 372 -111 q 389 -156 389 -128 q 399 -177 389 -171 q 444 -183 408 -183 q 490 -176 481 -183 q 500 -140 500 -168 q 490 -105 500 -112 q 444 -97 481 -97 q 383 -94 406 -97 q 350 -81 361 -92 q 336 -47 339 -69 q 333 14 333 -25 l 333 28 z "},"¹":{"ha":556,"x_min":56,"x_max":278,"o":"m 56 805 q 59 825 56 818 q 67 836 62 832 q 78 842 72 840 q 92 847 85 844 q 106 851 99 849 q 116 857 112 853 q 123 868 120 861 q 125 888 125 875 l 125 1028 q 122 1048 125 1041 q 114 1059 119 1055 q 102 1065 109 1063 q 89 1069 96 1067 q 75 1075 81 1072 q 65 1083 69 1078 q 58 1096 60 1088 q 56 1118 56 1104 q 57 1143 56 1133 q 65 1158 59 1153 q 82 1165 71 1163 q 111 1167 93 1167 l 125 1167 q 154 1165 143 1167 q 171 1157 165 1163 q 179 1140 177 1151 q 181 1111 181 1129 l 181 903 q 182 873 181 884 q 189 857 184 863 q 204 849 194 851 q 229 847 213 847 q 254 845 244 847 q 269 837 264 843 q 276 820 274 831 q 278 792 278 810 l 278 639 q 276 610 278 621 q 268 593 274 599 q 251 585 263 587 q 222 583 240 583 l 111 583 q 82 585 93 583 q 65 593 71 587 q 57 610 59 599 q 56 639 56 621 l 56 805 z "},"º":{"ha":461,"x_min":56,"x_max":389,"o":"m 56 1056 q 58 1117 56 1094 q 72 1150 61 1139 q 106 1164 83 1161 q 167 1167 128 1167 l 278 1167 q 339 1164 317 1167 q 372 1150 361 1161 q 386 1117 383 1139 q 389 1056 389 1094 l 389 806 q 386 744 389 767 q 372 711 383 722 q 339 697 361 700 q 278 694 317 694 l 167 694 q 106 697 128 694 q 72 711 83 700 q 58 744 61 722 q 56 806 56 767 l 56 1056 m 250 917 q 260 951 250 943 q 285 965 269 960 q 310 979 300 971 q 319 1014 319 988 l 319 1042 q 310 1088 319 1078 q 264 1097 300 1097 l 181 1097 q 135 1088 144 1097 q 125 1042 125 1078 l 125 819 q 135 774 125 783 q 182 764 144 764 l 194 764 q 240 774 231 764 q 250 819 250 783 l 250 917 m 69 583 q 85 627 69 615 q 153 639 100 639 l 292 639 q 360 627 344 639 q 375 583 375 615 q 360 540 375 551 q 292 528 344 528 l 153 528 q 85 540 100 528 q 69 583 69 551 z "},"»":{"ha":517,"x_min":40,"x_max":461,"o":"m 449 525 q 461 499 461 513 q 449 474 461 486 l 310 313 q 281 294 296 294 q 267 299 272 294 q 263 319 263 304 l 263 678 q 268 698 263 693 q 282 703 274 703 q 310 686 294 703 l 449 525 m 226 525 q 239 499 239 513 q 226 474 239 486 l 88 313 q 58 294 74 294 q 45 299 50 294 q 40 319 40 304 l 40 678 q 46 698 40 693 q 60 703 51 703 q 88 686 72 703 l 226 525 z "},"¼":{"ha":1097,"x_min":83,"x_max":1042,"o":"m 83 805 q 86 825 83 818 q 94 836 90 832 q 106 842 99 840 q 120 847 113 844 q 133 851 127 849 q 144 857 140 853 q 150 868 148 861 q 153 888 153 875 l 153 1028 q 150 1048 153 1041 q 142 1059 147 1055 q 130 1065 137 1063 q 117 1069 124 1067 q 103 1075 109 1072 q 93 1083 97 1078 q 86 1096 88 1088 q 83 1118 83 1104 q 85 1143 83 1133 q 93 1158 87 1153 q 110 1165 99 1163 q 139 1167 121 1167 l 153 1167 q 182 1165 171 1167 q 199 1157 193 1163 q 207 1140 205 1151 q 208 1111 208 1129 l 208 903 q 210 873 208 884 q 217 857 212 863 q 232 849 222 851 q 257 847 241 847 q 282 845 272 847 q 297 837 292 843 q 304 820 302 831 q 306 792 306 810 l 306 639 q 304 610 306 621 q 296 593 302 599 q 279 585 290 587 q 250 583 268 583 l 139 583 q 110 585 121 583 q 93 593 99 587 q 85 610 87 599 q 83 639 83 621 l 83 805 m 256 33 q 236 9 247 18 q 210 0 225 0 q 179 13 190 0 q 168 38 168 26 q 172 56 168 47 q 181 75 175 65 l 768 1115 q 788 1140 776 1131 q 814 1149 800 1149 q 844 1135 833 1149 q 856 1111 856 1122 q 852 1092 856 1101 q 843 1074 849 1083 l 256 33 m 917 83 q 915 113 917 101 q 907 130 913 124 q 890 137 901 135 q 861 139 879 139 l 778 139 q 717 142 739 139 q 683 156 694 144 q 669 189 672 167 q 667 250 667 211 l 667 528 q 668 557 667 546 q 676 574 670 568 q 693 582 682 580 q 722 583 704 583 l 736 583 q 765 582 754 583 q 782 574 776 580 q 790 557 788 568 q 792 528 792 546 l 792 250 q 793 221 792 232 q 801 204 795 210 q 818 196 807 198 q 847 194 829 194 l 888 194 q 907 199 901 194 q 915 209 913 203 q 919 222 917 215 q 925 235 920 229 q 940 246 929 242 q 971 250 950 250 l 986 250 q 1015 248 1004 250 q 1032 241 1026 247 q 1040 224 1038 235 q 1042 194 1042 213 l 1042 55 q 1040 26 1042 37 q 1032 9 1038 15 q 1015 2 1026 3 q 986 0 1004 0 l 972 0 q 943 2 954 0 q 926 9 932 3 q 918 26 920 15 q 917 56 917 38 l 917 83 z "},"½":{"ha":972,"x_min":83,"x_max":917,"o":"m 792 69 l 875 69 q 909 58 903 69 q 915 35 915 47 q 909 11 915 22 q 875 0 903 0 l 778 0 q 717 3 739 0 q 683 17 694 6 q 669 49 672 28 q 667 110 667 71 l 667 207 q 669 269 667 246 q 683 303 672 292 q 717 317 694 314 q 778 319 739 319 l 792 319 q 838 329 828 319 q 847 375 847 339 l 847 458 q 838 504 847 494 q 792 514 828 514 l 722 514 q 688 525 694 514 q 681 549 681 536 q 688 572 681 561 q 722 583 694 583 l 806 583 q 867 581 844 583 q 900 567 889 578 q 914 533 911 556 q 917 472 917 511 l 917 360 q 914 299 917 321 q 900 265 911 276 q 867 251 889 254 q 806 249 844 249 l 792 249 q 746 239 756 249 q 736 192 736 229 l 736 125 q 746 79 736 89 q 792 69 756 69 m 83 804 q 94 835 83 831 q 119 846 104 840 q 144 856 135 851 q 153 888 153 861 l 153 1028 q 142 1059 153 1054 q 117 1069 132 1064 q 92 1083 101 1075 q 83 1118 83 1090 q 93 1158 83 1150 q 139 1167 103 1167 l 153 1167 q 199 1157 189 1167 q 208 1111 208 1147 l 208 903 q 217 856 208 865 q 257 847 225 847 q 297 838 289 847 q 306 792 306 828 l 306 639 q 296 593 306 603 q 250 583 286 583 l 139 583 q 93 593 103 583 q 83 639 83 603 l 83 804 m 228 33 q 208 9 219 18 q 182 0 197 0 q 151 13 163 0 q 140 38 140 26 q 144 56 140 47 q 153 75 147 65 l 740 1115 q 760 1140 749 1131 q 786 1149 772 1149 q 817 1135 806 1149 q 828 1111 828 1122 q 824 1092 828 1101 q 815 1074 821 1083 l 228 33 z "},"¾":{"ha":1083,"x_min":69,"x_max":1028,"o":"m 111 840 q 77 851 85 840 q 69 875 69 863 q 77 899 69 888 q 111 910 85 910 l 188 910 q 233 919 224 910 q 243 965 243 929 l 243 1042 q 233 1088 243 1078 q 188 1097 224 1097 l 111 1097 q 77 1108 85 1097 q 69 1132 69 1119 q 77 1156 69 1144 q 111 1167 85 1167 l 201 1167 q 263 1164 240 1167 q 296 1150 285 1161 q 310 1117 307 1139 q 313 1056 313 1094 l 313 931 q 319 892 313 904 q 340 875 325 881 q 369 857 356 869 q 382 818 382 844 l 382 694 q 379 633 382 656 q 365 600 376 611 q 332 586 354 589 q 271 583 310 583 l 111 583 q 77 594 85 583 q 69 618 69 606 q 77 642 69 631 q 111 653 85 653 l 188 653 q 233 663 224 653 q 243 708 243 672 l 243 785 q 233 831 243 821 q 188 840 224 840 l 111 840 m 242 33 q 222 9 233 18 q 196 0 211 0 q 165 13 176 0 q 154 38 154 26 q 158 56 154 47 q 167 75 161 65 l 754 1115 q 774 1140 763 1131 q 800 1149 786 1149 q 831 1135 819 1149 q 842 1111 842 1122 q 838 1092 842 1101 q 829 1074 835 1083 l 242 33 m 903 83 q 893 129 903 119 q 847 139 883 139 l 764 139 q 703 142 725 139 q 669 156 681 144 q 656 189 658 167 q 653 250 653 211 l 653 528 q 663 574 653 564 q 708 583 672 583 l 722 583 q 768 574 758 583 q 778 528 778 564 l 778 250 q 788 204 778 214 q 833 194 797 194 l 874 194 q 899 203 894 194 q 905 222 903 211 q 916 241 907 232 q 957 250 925 250 l 972 250 q 1018 240 1008 250 q 1028 194 1028 231 l 1028 54 q 1018 9 1028 18 q 972 0 1008 0 l 958 0 q 913 10 922 0 q 903 56 903 19 l 903 83 z "},"¿":{"ha":750,"x_min":56,"x_max":694,"o":"m 522 806 q 519 747 522 769 q 503 713 515 725 q 469 698 492 701 q 411 694 447 694 l 369 694 q 311 698 333 694 q 277 713 289 701 q 262 747 265 725 q 258 806 258 769 l 258 847 q 262 906 258 883 q 277 940 265 928 q 311 955 289 951 q 369 958 333 958 l 411 958 q 469 955 447 958 q 503 940 492 951 q 519 906 515 928 q 522 847 522 883 l 522 806 m 167 8 q 170 -50 167 -28 q 185 -84 174 -72 q 219 -99 197 -96 q 279 -103 242 -103 l 472 -103 q 531 -99 508 -103 q 565 -84 553 -96 q 580 -51 576 -72 q 583 4 583 -31 l 583 106 q 595 174 583 158 q 639 189 607 189 q 683 174 671 189 q 694 106 694 158 l 694 8 q 689 -114 694 -69 q 661 -181 683 -158 q 594 -208 639 -203 q 472 -214 550 -214 l 279 -214 q 156 -208 200 -214 q 89 -181 111 -203 q 61 -114 67 -158 q 56 8 56 -69 l 56 119 q 58 210 56 178 q 72 263 60 243 q 110 298 83 283 q 185 336 136 313 l 272 378 q 307 396 294 389 q 326 413 319 403 q 333 441 332 424 q 333 490 333 458 l 333 536 q 345 604 333 589 q 389 619 357 619 q 433 604 421 619 q 444 536 444 589 l 444 490 q 442 400 444 432 q 429 348 440 368 q 392 313 418 328 q 321 276 367 299 l 233 235 q 194 215 208 222 q 174 196 181 207 q 167 167 168 185 q 167 119 167 150 l 167 8 z "},"À":{"ha":875,"x_min":56,"x_max":819,"o":"m 306 111 q 302 53 306 75 q 287 19 299 31 q 253 3 275 7 q 194 0 231 0 l 167 0 q 108 3 131 0 q 74 19 86 7 q 59 53 63 31 q 56 111 56 75 l 56 458 q 61 501 56 485 q 76 527 67 517 q 97 544 85 538 q 125 556 110 550 q 152 567 139 561 q 174 583 165 572 q 189 610 183 593 q 194 653 194 626 l 194 944 q 200 1067 194 1022 q 228 1133 206 1111 q 294 1161 250 1156 q 417 1167 339 1167 l 597 1167 q 719 1161 675 1167 q 786 1133 764 1156 q 814 1067 808 1111 q 819 944 819 1022 l 819 83 q 808 15 819 31 q 764 -1 796 -1 q 720 15 732 -1 q 708 83 708 31 l 708 417 q 705 475 708 453 q 690 509 701 497 q 656 524 678 521 q 597 528 633 528 l 417 528 q 358 524 381 528 q 324 508 336 521 q 309 474 313 496 q 306 414 306 451 l 306 111 m 708 944 q 705 1003 708 981 q 690 1037 701 1025 q 656 1052 678 1049 q 597 1056 633 1056 l 417 1056 q 358 1052 381 1056 q 324 1037 336 1049 q 309 1003 313 1025 q 306 944 306 981 l 306 750 q 309 692 306 714 q 324 658 313 669 q 358 642 336 646 q 417 639 381 639 l 597 639 q 656 642 633 639 q 690 658 678 646 q 705 692 701 669 q 708 750 708 714 l 708 944 m 515 1375 q 551 1365 539 1375 q 564 1328 564 1356 l 564 1269 q 556 1232 564 1242 q 526 1222 549 1222 l 518 1222 q 475 1229 486 1222 q 447 1258 464 1236 l 411 1307 q 390 1351 390 1333 q 403 1371 390 1367 q 435 1375 417 1375 l 515 1375 z "},"Á":{"ha":875,"x_min":56,"x_max":819,"o":"m 306 111 q 302 53 306 75 q 287 19 299 31 q 253 3 275 7 q 194 0 231 0 l 167 0 q 108 3 131 0 q 74 19 86 7 q 59 53 63 31 q 56 111 56 75 l 56 458 q 61 501 56 485 q 76 527 67 517 q 97 544 85 538 q 125 556 110 550 q 152 567 139 561 q 174 583 165 572 q 189 610 183 593 q 194 653 194 626 l 194 944 q 200 1067 194 1022 q 228 1133 206 1111 q 294 1161 250 1156 q 417 1167 339 1167 l 597 1167 q 719 1161 675 1167 q 786 1133 764 1156 q 814 1067 808 1111 q 819 944 819 1022 l 819 83 q 808 15 819 31 q 764 -1 796 -1 q 720 15 732 -1 q 708 83 708 31 l 708 417 q 705 475 708 453 q 690 509 701 497 q 656 524 678 521 q 597 528 633 528 l 417 528 q 358 524 381 528 q 324 508 336 521 q 309 474 313 496 q 306 414 306 451 l 306 111 m 708 944 q 705 1003 708 981 q 690 1037 701 1025 q 656 1052 678 1049 q 597 1056 633 1056 l 417 1056 q 358 1052 381 1056 q 324 1037 336 1049 q 309 1003 313 1025 q 306 944 306 981 l 306 750 q 309 692 306 714 q 324 658 313 669 q 358 642 336 646 q 417 639 381 639 l 597 639 q 656 642 633 639 q 690 658 678 646 q 705 692 701 669 q 708 750 708 714 l 708 944 m 581 1375 q 612 1371 599 1375 q 625 1351 625 1367 q 604 1307 625 1333 l 568 1258 q 540 1229 551 1236 q 497 1222 529 1222 l 489 1222 q 459 1232 467 1222 q 451 1269 451 1242 l 451 1328 q 464 1365 451 1356 q 500 1375 476 1375 l 581 1375 z "},"Â":{"ha":875,"x_min":56,"x_max":819,"o":"m 306 111 q 302 53 306 75 q 287 19 299 31 q 253 3 275 7 q 194 0 231 0 l 167 0 q 108 3 131 0 q 74 19 86 7 q 59 53 63 31 q 56 111 56 75 l 56 458 q 61 501 56 485 q 76 527 67 517 q 97 544 85 538 q 125 556 110 550 q 152 567 139 561 q 174 583 165 572 q 189 610 183 593 q 194 653 194 626 l 194 944 q 200 1067 194 1022 q 228 1133 206 1111 q 294 1161 250 1156 q 417 1167 339 1167 l 597 1167 q 719 1161 675 1167 q 786 1133 764 1156 q 814 1067 808 1111 q 819 944 819 1022 l 819 83 q 808 15 819 31 q 764 -1 796 -1 q 720 15 732 -1 q 708 83 708 31 l 708 417 q 705 475 708 453 q 690 509 701 497 q 656 524 678 521 q 597 528 633 528 l 417 528 q 358 524 381 528 q 324 508 336 521 q 309 474 313 496 q 306 414 306 451 l 306 111 m 708 944 q 705 1003 708 981 q 690 1037 701 1025 q 656 1052 678 1049 q 597 1056 633 1056 l 417 1056 q 358 1052 381 1056 q 324 1037 336 1049 q 309 1003 313 1025 q 306 944 306 981 l 306 750 q 309 692 306 714 q 324 658 313 669 q 358 642 336 646 q 417 639 381 639 l 597 639 q 656 642 633 639 q 690 658 678 646 q 705 692 701 669 q 708 750 708 714 l 708 944 m 483 1371 q 526 1371 506 1392 l 661 1254 q 676 1227 681 1239 q 650 1215 672 1215 l 361 1215 q 335 1227 339 1215 q 350 1254 332 1239 l 483 1371 z "},"Ã":{"ha":875,"x_min":56,"x_max":819,"o":"m 306 111 q 302 53 306 75 q 287 19 299 31 q 253 3 275 7 q 194 0 231 0 l 167 0 q 108 3 131 0 q 74 19 86 7 q 59 53 63 31 q 56 111 56 75 l 56 458 q 61 501 56 485 q 76 527 67 517 q 97 544 85 538 q 125 556 110 550 q 152 567 139 561 q 174 583 165 572 q 189 610 183 593 q 194 653 194 626 l 194 944 q 200 1067 194 1022 q 228 1133 206 1111 q 294 1161 250 1156 q 417 1167 339 1167 l 597 1167 q 719 1161 675 1167 q 786 1133 764 1156 q 814 1067 808 1111 q 819 944 819 1022 l 819 83 q 808 15 819 31 q 764 -1 796 -1 q 720 15 732 -1 q 708 83 708 31 l 708 417 q 705 475 708 453 q 690 509 701 497 q 656 524 678 521 q 597 528 633 528 l 417 528 q 358 524 381 528 q 324 508 336 521 q 309 474 313 496 q 306 414 306 451 l 306 111 m 708 944 q 705 1003 708 981 q 690 1037 701 1025 q 656 1052 678 1049 q 597 1056 633 1056 l 417 1056 q 358 1052 381 1056 q 324 1037 336 1049 q 309 1003 313 1025 q 306 944 306 981 l 306 750 q 309 692 306 714 q 324 658 313 669 q 358 642 336 646 q 417 639 381 639 l 597 639 q 656 642 633 639 q 690 658 678 646 q 705 692 701 669 q 708 750 708 714 l 708 944 m 271 1278 q 277 1344 271 1319 q 300 1382 283 1369 q 347 1399 317 1394 q 424 1403 376 1403 q 490 1394 465 1403 q 528 1374 514 1386 q 549 1347 542 1361 q 565 1321 557 1333 q 584 1300 572 1308 q 618 1292 596 1292 q 662 1302 650 1292 q 674 1333 674 1313 q 681 1383 674 1371 q 722 1396 688 1396 q 764 1383 757 1396 q 771 1333 771 1371 q 765 1267 771 1292 q 742 1229 758 1242 q 695 1213 725 1217 q 618 1208 665 1208 q 553 1217 576 1208 q 515 1238 529 1225 q 492 1264 500 1250 q 477 1290 485 1278 q 458 1311 469 1303 q 425 1319 447 1319 q 381 1309 393 1319 q 368 1278 368 1299 q 361 1228 368 1240 q 319 1215 354 1215 q 278 1228 285 1215 q 271 1278 271 1240 z "},"Ä":{"ha":875,"x_min":56,"x_max":819,"o":"m 306 111 q 302 53 306 75 q 287 19 299 31 q 253 3 275 7 q 194 0 231 0 l 167 0 q 108 3 131 0 q 74 19 86 7 q 59 53 63 31 q 56 111 56 75 l 56 458 q 61 501 56 485 q 76 527 67 517 q 97 544 85 538 q 125 556 110 550 q 152 567 139 561 q 174 583 165 572 q 189 610 183 593 q 194 653 194 626 l 194 944 q 200 1067 194 1022 q 228 1133 206 1111 q 294 1161 250 1156 q 417 1167 339 1167 l 597 1167 q 719 1161 675 1167 q 786 1133 764 1156 q 814 1067 808 1111 q 819 944 819 1022 l 819 83 q 808 15 819 31 q 764 -1 796 -1 q 720 15 732 -1 q 708 83 708 31 l 708 417 q 705 475 708 453 q 690 509 701 497 q 656 524 678 521 q 597 528 633 528 l 417 528 q 358 524 381 528 q 324 508 336 521 q 309 474 313 496 q 306 414 306 451 l 306 111 m 708 944 q 705 1003 708 981 q 690 1037 701 1025 q 656 1052 678 1049 q 597 1056 633 1056 l 417 1056 q 358 1052 381 1056 q 324 1037 336 1049 q 309 1003 313 1025 q 306 944 306 981 l 306 750 q 309 692 306 714 q 324 658 313 669 q 358 642 336 646 q 417 639 381 639 l 597 639 q 656 642 633 639 q 690 658 678 646 q 705 692 701 669 q 708 750 708 714 l 708 944 m 308 1329 q 310 1365 308 1351 q 319 1385 313 1378 q 340 1394 326 1392 q 375 1396 353 1396 l 386 1396 q 441 1384 429 1396 q 453 1329 453 1372 l 453 1276 q 451 1241 453 1254 q 442 1221 449 1228 q 422 1212 435 1214 q 386 1210 408 1210 l 375 1210 q 340 1212 353 1210 q 319 1221 326 1214 q 310 1241 313 1228 q 308 1276 308 1254 l 308 1329 m 551 1329 q 553 1365 551 1351 q 563 1385 556 1378 q 583 1394 569 1392 q 618 1396 596 1396 l 629 1396 q 684 1384 672 1396 q 696 1329 696 1372 l 696 1276 q 694 1241 696 1254 q 685 1221 692 1228 q 665 1212 678 1214 q 629 1210 651 1210 l 618 1210 q 583 1212 596 1210 q 563 1221 569 1214 q 553 1241 556 1228 q 551 1276 551 1254 l 551 1329 z "},"Å":{"ha":875,"x_min":56,"x_max":819,"o":"m 306 111 q 302 53 306 75 q 287 19 299 31 q 253 3 275 7 q 194 0 231 0 l 167 0 q 108 3 131 0 q 74 19 86 7 q 59 53 63 31 q 56 111 56 75 l 56 458 q 61 501 56 485 q 76 527 67 517 q 97 544 85 538 q 125 556 110 550 q 152 567 139 561 q 174 583 165 572 q 189 610 183 593 q 194 653 194 626 l 194 944 q 200 1067 194 1022 q 228 1133 206 1111 q 294 1161 250 1156 q 417 1167 339 1167 l 597 1167 q 719 1161 675 1167 q 786 1133 764 1156 q 814 1067 808 1111 q 819 944 819 1022 l 819 83 q 808 15 819 31 q 764 -1 796 -1 q 720 15 732 -1 q 708 83 708 31 l 708 417 q 705 475 708 453 q 690 509 701 497 q 656 524 678 521 q 597 528 633 528 l 417 528 q 358 524 381 528 q 324 508 336 521 q 309 474 313 496 q 306 414 306 451 l 306 111 m 708 944 q 705 1003 708 981 q 690 1037 701 1025 q 656 1052 678 1049 q 597 1056 633 1056 l 417 1056 q 358 1052 381 1056 q 324 1037 336 1049 q 309 1003 313 1025 q 306 944 306 981 l 306 750 q 309 692 306 714 q 324 658 313 669 q 358 642 336 646 q 417 639 381 639 l 597 639 q 656 642 633 639 q 690 658 678 646 q 705 692 701 669 q 708 750 708 714 l 708 944 m 404 1319 q 408 1378 404 1356 q 423 1412 411 1400 q 457 1427 435 1424 q 515 1431 479 1431 q 574 1427 551 1431 q 608 1412 596 1424 q 623 1378 619 1400 q 626 1319 626 1356 q 623 1261 626 1283 q 608 1227 619 1239 q 574 1212 596 1215 q 515 1208 551 1208 q 457 1212 479 1208 q 423 1227 435 1215 q 408 1261 411 1239 q 404 1319 404 1283 m 465 1319 q 474 1278 465 1288 q 515 1269 483 1269 q 556 1278 547 1269 q 565 1319 565 1288 q 556 1360 565 1351 q 515 1369 547 1369 q 474 1360 483 1369 q 465 1319 465 1351 z "},"Æ":{"ha":1319,"x_min":56,"x_max":1264,"o":"m 306 111 q 302 53 306 75 q 287 19 299 31 q 253 3 275 7 q 194 0 231 0 l 167 0 q 108 3 131 0 q 74 19 86 7 q 59 53 63 31 q 56 111 56 75 l 56 458 q 61 501 56 485 q 76 527 67 517 q 97 544 85 538 q 125 556 110 550 q 152 567 139 561 q 174 583 165 572 q 189 610 183 593 q 194 653 194 626 l 194 944 q 200 1067 194 1022 q 228 1133 206 1111 q 294 1161 250 1156 q 417 1167 339 1167 l 569 1167 q 672 1160 632 1167 q 736 1121 711 1153 q 800 1160 760 1153 q 903 1167 840 1167 l 1181 1167 q 1249 1155 1233 1167 q 1264 1111 1264 1143 q 1249 1067 1264 1079 q 1181 1056 1233 1056 l 903 1056 q 844 1052 867 1056 q 810 1037 822 1049 q 795 1003 799 1025 q 792 944 792 981 l 792 750 q 795 692 792 714 q 810 658 799 669 q 844 642 822 646 q 903 639 867 639 l 1181 639 q 1249 627 1233 639 q 1264 583 1264 615 q 1249 540 1264 551 q 1181 528 1233 528 l 1042 528 q 983 524 1006 528 q 949 509 961 521 q 934 475 938 497 q 931 417 931 453 l 931 222 q 934 164 931 186 q 949 130 938 142 q 983 115 961 118 q 1042 111 1006 111 l 1181 111 q 1249 99 1233 111 q 1264 56 1264 88 q 1249 12 1264 24 q 1181 0 1233 0 l 903 0 q 781 6 825 0 q 714 33 736 11 q 686 100 692 56 q 681 222 681 144 l 681 417 q 677 475 681 453 q 662 509 674 497 q 628 524 650 521 q 569 528 606 528 l 417 528 q 358 524 381 528 q 324 508 336 521 q 309 474 313 496 q 306 414 306 451 l 306 111 m 681 944 l 681 965 q 674 1013 679 994 q 657 1040 669 1031 q 624 1052 644 1049 q 569 1056 603 1056 l 417 1056 q 358 1052 381 1056 q 324 1037 336 1049 q 309 1003 313 1025 q 306 944 306 981 l 306 750 q 309 692 306 714 q 324 658 313 669 q 358 642 336 646 q 417 639 381 639 l 569 639 q 624 642 603 639 q 658 658 646 646 q 676 692 671 669 q 681 750 681 714 l 681 944 z "},"Ç":{"ha":750,"x_min":56,"x_max":694,"o":"m 56 944 q 61 1067 56 1022 q 89 1133 67 1111 q 156 1161 111 1156 q 278 1167 200 1167 l 472 1167 q 594 1161 550 1167 q 661 1133 639 1156 q 689 1067 683 1111 q 694 944 694 1022 l 694 875 q 691 824 694 843 q 677 795 688 806 q 648 781 667 785 q 599 778 629 778 l 542 778 q 491 781 510 778 q 462 795 472 785 q 448 824 451 806 q 444 875 444 843 l 444 943 q 441 1003 444 981 q 426 1037 438 1025 q 392 1052 414 1049 q 333 1056 369 1056 l 278 1056 q 219 1052 242 1056 q 185 1037 197 1049 q 170 1003 174 1025 q 167 944 167 981 l 167 222 q 170 164 167 186 q 185 130 174 142 q 219 115 197 118 q 278 111 242 111 l 472 111 q 531 115 508 111 q 565 130 553 118 q 580 164 576 142 q 583 222 583 186 l 583 306 q 585 348 583 332 q 593 373 588 364 q 609 385 599 382 q 638 389 619 389 q 684 374 674 389 q 694 306 694 358 l 694 222 q 689 100 694 144 q 661 33 683 56 q 594 6 639 11 q 472 0 550 0 l 346 0 q 358 -35 347 -28 q 401 -42 368 -42 q 463 -44 440 -42 q 496 -57 485 -47 q 510 -86 507 -67 q 513 -140 513 -106 q 510 -199 513 -179 q 496 -226 507 -218 q 463 -235 485 -235 q 401 -236 440 -236 l 346 -236 q 285 -234 307 -236 q 252 -224 263 -232 q 240 -199 242 -215 q 238 -153 238 -182 q 246 -119 238 -126 q 292 -111 254 -111 q 338 -119 329 -111 q 346 -156 346 -128 q 356 -177 346 -171 q 401 -183 365 -183 q 447 -176 438 -183 q 457 -140 457 -168 q 447 -105 457 -112 q 401 -97 438 -97 q 342 -94 364 -97 q 308 -82 319 -92 q 294 -53 297 -72 q 290 0 290 -33 l 278 0 q 156 6 200 0 q 89 33 111 11 q 61 100 67 56 q 56 222 56 144 l 56 944 z "},"È":{"ha":722,"x_min":56,"x_max":667,"o":"m 56 944 q 61 1067 56 1022 q 89 1133 67 1111 q 156 1161 111 1156 q 278 1167 200 1167 l 583 1167 q 651 1155 636 1167 q 667 1111 667 1143 q 651 1067 667 1079 q 583 1056 636 1056 l 278 1056 q 219 1052 242 1056 q 185 1037 197 1049 q 170 1003 174 1025 q 167 944 167 981 l 167 750 q 170 692 167 714 q 185 658 174 669 q 219 642 197 646 q 278 639 242 639 l 583 639 q 651 627 636 639 q 667 583 667 615 q 651 540 667 551 q 583 528 636 528 l 417 528 q 358 524 381 528 q 324 509 336 521 q 309 475 313 497 q 306 417 306 453 l 306 222 q 309 164 306 186 q 324 130 313 142 q 358 115 336 118 q 417 111 381 111 l 583 111 q 651 99 636 111 q 667 56 667 88 q 651 12 667 24 q 583 0 636 0 l 278 0 q 156 6 200 0 q 89 33 111 11 q 61 100 67 56 q 56 222 56 144 l 56 944 m 415 1375 q 451 1365 439 1375 q 464 1328 464 1356 l 464 1269 q 456 1232 464 1242 q 426 1222 449 1222 l 418 1222 q 375 1229 386 1222 q 347 1258 364 1236 l 311 1307 q 290 1351 290 1333 q 303 1371 290 1367 q 335 1375 317 1375 l 415 1375 z "},"É":{"ha":722,"x_min":56,"x_max":667,"o":"m 56 944 q 61 1067 56 1022 q 89 1133 67 1111 q 156 1161 111 1156 q 278 1167 200 1167 l 583 1167 q 651 1155 636 1167 q 667 1111 667 1143 q 651 1067 667 1079 q 583 1056 636 1056 l 278 1056 q 219 1052 242 1056 q 185 1037 197 1049 q 170 1003 174 1025 q 167 944 167 981 l 167 750 q 170 692 167 714 q 185 658 174 669 q 219 642 197 646 q 278 639 242 639 l 583 639 q 651 627 636 639 q 667 583 667 615 q 651 540 667 551 q 583 528 636 528 l 417 528 q 358 524 381 528 q 324 509 336 521 q 309 475 313 497 q 306 417 306 453 l 306 222 q 309 164 306 186 q 324 130 313 142 q 358 115 336 118 q 417 111 381 111 l 583 111 q 651 99 636 111 q 667 56 667 88 q 651 12 667 24 q 583 0 636 0 l 278 0 q 156 6 200 0 q 89 33 111 11 q 61 100 67 56 q 56 222 56 144 l 56 944 m 464 1375 q 495 1371 482 1375 q 508 1351 508 1367 q 488 1307 508 1333 l 451 1258 q 424 1229 435 1236 q 381 1222 413 1222 l 372 1222 q 342 1232 350 1222 q 335 1269 335 1242 l 335 1328 q 347 1365 335 1356 q 383 1375 360 1375 l 464 1375 z "},"Ê":{"ha":722,"x_min":56,"x_max":667,"o":"m 56 944 q 61 1067 56 1022 q 89 1133 67 1111 q 156 1161 111 1156 q 278 1167 200 1167 l 583 1167 q 651 1155 636 1167 q 667 1111 667 1143 q 651 1067 667 1079 q 583 1056 636 1056 l 278 1056 q 219 1052 242 1056 q 185 1037 197 1049 q 170 1003 174 1025 q 167 944 167 981 l 167 750 q 170 692 167 714 q 185 658 174 669 q 219 642 197 646 q 278 639 242 639 l 583 639 q 651 627 636 639 q 667 583 667 615 q 651 540 667 551 q 583 528 636 528 l 417 528 q 358 524 381 528 q 324 509 336 521 q 309 475 313 497 q 306 417 306 453 l 306 222 q 309 164 306 186 q 324 130 313 142 q 358 115 336 118 q 417 111 381 111 l 583 111 q 651 99 636 111 q 667 56 667 88 q 651 12 667 24 q 583 0 636 0 l 278 0 q 156 6 200 0 q 89 33 111 11 q 61 100 67 56 q 56 222 56 144 l 56 944 m 340 1371 q 383 1371 363 1392 l 518 1254 q 533 1227 538 1239 q 507 1215 529 1215 l 218 1215 q 192 1227 196 1215 q 207 1254 189 1239 l 340 1371 z "},"Ë":{"ha":722,"x_min":56,"x_max":667,"o":"m 56 944 q 61 1067 56 1022 q 89 1133 67 1111 q 156 1161 111 1156 q 278 1167 200 1167 l 583 1167 q 651 1155 636 1167 q 667 1111 667 1143 q 651 1067 667 1079 q 583 1056 636 1056 l 278 1056 q 219 1052 242 1056 q 185 1037 197 1049 q 170 1003 174 1025 q 167 944 167 981 l 167 750 q 170 692 167 714 q 185 658 174 669 q 219 642 197 646 q 278 639 242 639 l 583 639 q 651 627 636 639 q 667 583 667 615 q 651 540 667 551 q 583 528 636 528 l 417 528 q 358 524 381 528 q 324 509 336 521 q 309 475 313 497 q 306 417 306 453 l 306 222 q 309 164 306 186 q 324 130 313 142 q 358 115 336 118 q 417 111 381 111 l 583 111 q 651 99 636 111 q 667 56 667 88 q 651 12 667 24 q 583 0 636 0 l 278 0 q 156 6 200 0 q 89 33 111 11 q 61 100 67 56 q 56 222 56 144 l 56 944 m 183 1329 q 185 1365 183 1351 q 194 1385 188 1378 q 215 1394 201 1392 q 250 1396 228 1396 l 261 1396 q 316 1384 304 1396 q 328 1329 328 1372 l 328 1276 q 326 1241 328 1254 q 317 1221 324 1228 q 297 1212 310 1214 q 261 1210 283 1210 l 250 1210 q 215 1212 228 1210 q 194 1221 201 1214 q 185 1241 188 1228 q 183 1276 183 1254 l 183 1329 m 426 1329 q 428 1365 426 1351 q 438 1385 431 1378 q 458 1394 444 1392 q 493 1396 471 1396 l 504 1396 q 559 1384 547 1396 q 571 1329 571 1372 l 571 1276 q 569 1241 571 1254 q 560 1221 567 1228 q 540 1212 553 1214 q 504 1210 526 1210 l 493 1210 q 458 1212 471 1210 q 438 1221 444 1214 q 428 1241 431 1228 q 426 1276 426 1254 l 426 1329 z "},"Ì":{"ha":361,"x_min":56,"x_max":306,"o":"m 56 444 q 61 487 56 471 q 76 513 67 503 q 97 530 85 524 q 125 542 110 536 q 152 553 139 547 q 174 569 165 558 q 189 596 183 579 q 194 639 194 613 l 194 1083 q 206 1151 194 1136 q 250 1167 218 1167 q 294 1151 282 1167 q 306 1083 306 1136 l 306 111 q 302 53 306 75 q 287 19 299 31 q 253 3 275 7 q 194 0 231 0 l 167 0 q 108 3 131 0 q 74 19 86 7 q 59 53 63 31 q 56 111 56 75 l 56 444 m 250 1375 q 286 1365 274 1375 q 299 1328 299 1356 l 299 1269 q 291 1232 299 1242 q 261 1222 283 1222 l 253 1222 q 210 1229 221 1222 q 182 1258 199 1236 l 146 1307 q 125 1351 125 1333 q 138 1371 125 1367 q 169 1375 151 1375 l 250 1375 z "},"Í":{"ha":361,"x_min":56,"x_max":369,"o":"m 56 444 q 61 487 56 471 q 76 513 67 503 q 97 530 85 524 q 125 542 110 536 q 152 553 139 547 q 174 569 165 558 q 189 596 183 579 q 194 639 194 613 l 194 1083 q 206 1151 194 1136 q 250 1167 218 1167 q 294 1151 282 1167 q 306 1083 306 1136 l 306 111 q 302 53 306 75 q 287 19 299 31 q 253 3 275 7 q 194 0 231 0 l 167 0 q 108 3 131 0 q 74 19 86 7 q 59 53 63 31 q 56 111 56 75 l 56 444 m 325 1375 q 356 1371 343 1375 q 369 1351 369 1367 q 349 1307 369 1333 l 313 1258 q 285 1229 296 1236 q 242 1222 274 1222 l 233 1222 q 203 1232 211 1222 q 196 1269 196 1242 l 196 1328 q 208 1365 196 1356 q 244 1375 221 1375 l 325 1375 z "},"Î":{"ha":361,"x_min":56,"x_max":426,"o":"m 56 444 q 61 487 56 471 q 76 513 67 503 q 97 530 85 524 q 125 542 110 536 q 152 553 139 547 q 174 569 165 558 q 189 596 183 579 q 194 639 194 613 l 194 1083 q 206 1151 194 1136 q 250 1167 218 1167 q 294 1151 282 1167 q 306 1083 306 1136 l 306 111 q 302 53 306 75 q 287 19 299 31 q 253 3 275 7 q 194 0 231 0 l 167 0 q 108 3 131 0 q 74 19 86 7 q 59 53 63 31 q 56 111 56 75 l 56 444 m 229 1371 q 272 1371 251 1392 l 407 1254 q 422 1227 426 1239 q 396 1215 418 1215 l 107 1215 q 81 1227 85 1215 q 96 1254 78 1239 l 229 1371 z "},"Ï":{"ha":361,"x_min":56,"x_max":406,"o":"m 96 1329 q 98 1365 96 1351 q 107 1385 100 1378 q 127 1394 114 1392 q 163 1396 140 1396 q 217 1384 206 1396 q 229 1329 229 1372 l 229 1276 q 227 1241 229 1254 q 218 1221 225 1228 q 198 1212 211 1214 q 163 1210 185 1210 q 127 1212 140 1210 q 107 1221 114 1214 q 98 1241 100 1228 q 96 1276 96 1254 l 96 1329 m 272 1329 q 274 1365 272 1351 q 283 1385 276 1378 q 303 1394 290 1392 q 339 1396 317 1396 q 394 1384 382 1396 q 406 1329 406 1372 l 406 1276 q 403 1241 406 1254 q 394 1221 401 1228 q 374 1212 388 1214 q 339 1210 361 1210 q 303 1212 317 1210 q 283 1221 290 1214 q 274 1241 276 1228 q 272 1276 272 1254 l 272 1329 m 56 444 q 61 487 56 471 q 76 513 67 503 q 97 530 85 524 q 125 542 110 536 q 152 553 139 547 q 174 569 165 558 q 189 596 183 579 q 194 639 194 613 l 194 1083 q 206 1151 194 1136 q 250 1167 218 1167 q 294 1151 282 1167 q 306 1083 306 1136 l 306 111 q 302 53 306 75 q 287 19 299 31 q 253 3 275 7 q 194 0 231 0 l 167 0 q 108 3 131 0 q 74 19 86 7 q 59 53 63 31 q 56 111 56 75 l 56 444 z "},"Ð":{"ha":944,"x_min":0,"x_max":889,"o":"m 0 583 q 15 627 0 615 q 83 639 31 639 q 114 640 103 639 q 131 647 125 642 q 138 664 136 653 q 139 694 139 675 l 139 1056 q 142 1114 139 1092 q 158 1148 146 1136 q 192 1163 169 1160 q 250 1167 214 1167 l 528 1167 q 690 1150 621 1167 q 802 1094 758 1133 q 867 990 846 1054 q 889 833 889 926 l 889 333 q 867 176 889 239 q 802 73 846 113 q 690 17 758 33 q 528 0 621 0 l 250 0 q 192 3 214 0 q 158 19 169 7 q 142 53 146 31 q 139 111 139 75 l 139 472 q 131 519 139 511 q 83 528 122 528 q 15 540 31 528 q 0 583 0 551 m 778 833 q 766 933 778 890 q 726 1002 754 975 q 649 1042 697 1029 q 528 1056 600 1056 l 500 1056 q 442 1052 464 1056 q 408 1037 419 1049 q 392 1003 396 1025 q 389 943 389 981 l 389 694 q 390 664 389 675 q 397 647 392 653 q 414 640 403 642 q 444 639 425 639 l 528 639 q 596 627 581 639 q 611 583 611 615 q 596 540 611 551 q 528 528 581 528 l 444 528 q 414 526 425 528 q 397 519 403 525 q 390 503 392 514 q 389 472 389 492 l 389 222 q 392 164 389 186 q 408 130 396 142 q 441 115 419 118 q 500 111 463 111 l 528 111 q 649 124 600 111 q 726 165 697 138 q 766 234 754 192 q 778 333 778 276 l 778 833 z "},"Ñ":{"ha":889,"x_min":56,"x_max":833,"o":"m 722 333 q 722 394 722 372 q 715 433 721 417 q 699 466 710 450 q 667 507 688 482 l 249 1015 q 223 1040 233 1033 q 197 1047 213 1047 q 174 1038 182 1047 q 167 1000 167 1028 l 167 83 q 155 15 167 31 q 111 0 143 0 q 67 15 79 0 q 56 83 56 31 l 56 1056 q 59 1114 56 1092 q 74 1148 63 1136 q 108 1163 86 1160 q 167 1167 131 1167 l 194 1167 q 235 1165 219 1167 q 263 1156 250 1164 q 292 1132 276 1149 q 333 1085 308 1115 l 654 693 q 694 665 678 665 q 722 722 722 665 l 722 1083 q 734 1151 722 1136 q 778 1167 746 1167 q 822 1151 810 1167 q 833 1083 833 1136 l 833 83 q 822 15 833 31 q 778 0 810 0 q 734 15 746 0 q 722 83 722 31 l 722 333 m 319 231 q 323 289 319 267 q 338 323 326 311 q 372 338 350 335 q 431 342 394 342 l 458 342 q 517 338 494 342 q 551 323 539 335 q 566 289 563 311 q 569 231 569 267 l 569 106 q 566 47 569 69 q 551 13 563 25 q 517 -2 539 1 q 458 -6 494 -6 l 431 -6 q 372 -2 394 -6 q 338 13 350 1 q 323 47 326 25 q 319 106 319 69 l 319 231 m 196 1278 q 202 1344 196 1319 q 225 1382 208 1369 q 272 1399 242 1394 q 349 1403 301 1403 q 415 1394 390 1403 q 453 1374 439 1386 q 474 1347 467 1361 q 490 1321 482 1333 q 509 1300 497 1308 q 543 1292 521 1292 q 587 1302 575 1292 q 599 1333 599 1313 q 606 1383 599 1371 q 647 1396 613 1396 q 689 1383 682 1396 q 696 1333 696 1371 q 690 1267 696 1292 q 667 1229 683 1242 q 620 1213 650 1217 q 543 1208 590 1208 q 478 1217 501 1208 q 440 1238 454 1225 q 417 1264 425 1250 q 402 1290 410 1278 q 383 1311 394 1303 q 350 1319 372 1319 q 306 1309 318 1319 q 293 1278 293 1299 q 286 1228 293 1240 q 244 1215 279 1215 q 203 1228 210 1215 q 196 1278 196 1240 z "},"Ò":{"ha":861,"x_min":56,"x_max":806,"o":"m 56 944 q 61 1067 56 1022 q 89 1133 67 1111 q 156 1161 111 1156 q 278 1167 200 1167 l 583 1167 q 706 1161 661 1167 q 772 1133 750 1156 q 800 1067 794 1111 q 806 944 806 1022 l 806 222 q 800 100 806 144 q 772 33 794 56 q 706 6 750 11 q 583 0 661 0 l 278 0 q 156 6 200 0 q 89 33 111 11 q 61 100 67 56 q 56 222 56 144 l 56 944 m 556 569 q 561 612 556 596 q 576 638 567 628 q 597 655 585 649 q 625 667 610 661 q 652 678 639 672 q 674 694 665 683 q 689 721 683 704 q 694 764 694 738 l 694 944 q 691 1003 694 981 q 676 1037 688 1025 q 642 1052 664 1049 q 583 1056 619 1056 l 278 1056 q 219 1052 242 1056 q 185 1037 197 1049 q 170 1003 174 1025 q 167 944 167 981 l 167 222 q 170 164 167 186 q 186 130 174 142 q 222 115 199 118 q 282 111 244 111 l 444 111 q 503 115 481 111 q 537 130 525 118 q 552 164 549 142 q 556 222 556 186 l 556 569 m 458 1375 q 494 1365 482 1375 q 507 1328 507 1356 l 507 1269 q 499 1232 507 1242 q 469 1222 492 1222 l 461 1222 q 418 1229 429 1222 q 390 1258 407 1236 l 354 1307 q 333 1351 333 1333 q 347 1371 333 1367 q 378 1375 360 1375 l 458 1375 z "},"Ó":{"ha":861,"x_min":56,"x_max":806,"o":"m 56 944 q 61 1067 56 1022 q 89 1133 67 1111 q 156 1161 111 1156 q 278 1167 200 1167 l 583 1167 q 706 1161 661 1167 q 772 1133 750 1156 q 800 1067 794 1111 q 806 944 806 1022 l 806 222 q 800 100 806 144 q 772 33 794 56 q 706 6 750 11 q 583 0 661 0 l 278 0 q 156 6 200 0 q 89 33 111 11 q 61 100 67 56 q 56 222 56 144 l 56 944 m 556 569 q 561 612 556 596 q 576 638 567 628 q 597 655 585 649 q 625 667 610 661 q 652 678 639 672 q 674 694 665 683 q 689 721 683 704 q 694 764 694 738 l 694 944 q 691 1003 694 981 q 676 1037 688 1025 q 642 1052 664 1049 q 583 1056 619 1056 l 278 1056 q 219 1052 242 1056 q 185 1037 197 1049 q 170 1003 174 1025 q 167 944 167 981 l 167 222 q 170 164 167 186 q 186 130 174 142 q 222 115 199 118 q 282 111 244 111 l 444 111 q 503 115 481 111 q 537 130 525 118 q 552 164 549 142 q 556 222 556 186 l 556 569 m 518 1375 q 549 1371 536 1375 q 563 1351 563 1367 q 542 1307 563 1333 l 506 1258 q 478 1229 489 1236 q 435 1222 467 1222 l 426 1222 q 397 1232 404 1222 q 389 1269 389 1242 l 389 1328 q 401 1365 389 1356 q 438 1375 414 1375 l 518 1375 z "},"Ô":{"ha":861,"x_min":56,"x_max":806,"o":"m 56 944 q 61 1067 56 1022 q 89 1133 67 1111 q 156 1161 111 1156 q 278 1167 200 1167 l 583 1167 q 706 1161 661 1167 q 772 1133 750 1156 q 800 1067 794 1111 q 806 944 806 1022 l 806 222 q 800 100 806 144 q 772 33 794 56 q 706 6 750 11 q 583 0 661 0 l 278 0 q 156 6 200 0 q 89 33 111 11 q 61 100 67 56 q 56 222 56 144 l 56 944 m 556 569 q 561 612 556 596 q 576 638 567 628 q 597 655 585 649 q 625 667 610 661 q 652 678 639 672 q 674 694 665 683 q 689 721 683 704 q 694 764 694 738 l 694 944 q 691 1003 694 981 q 676 1037 688 1025 q 642 1052 664 1049 q 583 1056 619 1056 l 278 1056 q 219 1052 242 1056 q 185 1037 197 1049 q 170 1003 174 1025 q 167 944 167 981 l 167 222 q 170 164 167 186 q 186 130 174 142 q 222 115 199 118 q 282 111 244 111 l 444 111 q 503 115 481 111 q 537 130 525 118 q 552 164 549 142 q 556 222 556 186 l 556 569 m 421 1371 q 464 1371 443 1392 l 599 1254 q 614 1227 618 1239 q 588 1215 610 1215 l 299 1215 q 273 1227 276 1215 q 288 1254 269 1239 l 421 1371 z "},"Õ":{"ha":861,"x_min":56,"x_max":806,"o":"m 56 944 q 61 1067 56 1022 q 89 1133 67 1111 q 156 1161 111 1156 q 278 1167 200 1167 l 583 1167 q 706 1161 661 1167 q 772 1133 750 1156 q 800 1067 794 1111 q 806 944 806 1022 l 806 222 q 800 100 806 144 q 772 33 794 56 q 706 6 750 11 q 583 0 661 0 l 278 0 q 156 6 200 0 q 89 33 111 11 q 61 100 67 56 q 56 222 56 144 l 56 944 m 556 569 q 561 612 556 596 q 576 638 567 628 q 597 655 585 649 q 625 667 610 661 q 652 678 639 672 q 674 694 665 683 q 689 721 683 704 q 694 764 694 738 l 694 944 q 691 1003 694 981 q 676 1037 688 1025 q 642 1052 664 1049 q 583 1056 619 1056 l 278 1056 q 219 1052 242 1056 q 185 1037 197 1049 q 170 1003 174 1025 q 167 944 167 981 l 167 222 q 170 164 167 186 q 186 130 174 142 q 222 115 199 118 q 282 111 244 111 l 444 111 q 503 115 481 111 q 537 130 525 118 q 552 164 549 142 q 556 222 556 186 l 556 569 m 196 1278 q 202 1344 196 1319 q 225 1382 208 1369 q 272 1399 242 1394 q 349 1403 301 1403 q 415 1394 390 1403 q 453 1374 439 1386 q 474 1347 467 1361 q 490 1321 482 1333 q 509 1300 497 1308 q 543 1292 521 1292 q 587 1302 575 1292 q 599 1333 599 1313 q 606 1383 599 1371 q 647 1396 613 1396 q 689 1383 682 1396 q 696 1333 696 1371 q 690 1267 696 1292 q 667 1229 683 1242 q 620 1213 650 1217 q 543 1208 590 1208 q 478 1217 501 1208 q 440 1238 454 1225 q 417 1264 425 1250 q 402 1290 410 1278 q 383 1311 394 1303 q 350 1319 372 1319 q 306 1309 318 1319 q 293 1278 293 1299 q 286 1228 293 1240 q 244 1215 279 1215 q 203 1228 210 1215 q 196 1278 196 1240 z "},"Ö":{"ha":861,"x_min":56,"x_max":806,"o":"m 56 944 q 61 1067 56 1022 q 89 1133 67 1111 q 156 1161 111 1156 q 278 1167 200 1167 l 583 1167 q 706 1161 661 1167 q 772 1133 750 1156 q 800 1067 794 1111 q 806 944 806 1022 l 806 222 q 800 100 806 144 q 772 33 794 56 q 706 6 750 11 q 583 0 661 0 l 278 0 q 156 6 200 0 q 89 33 111 11 q 61 100 67 56 q 56 222 56 144 l 56 944 m 556 569 q 561 612 556 596 q 576 638 567 628 q 597 655 585 649 q 625 667 610 661 q 652 678 639 672 q 674 694 665 683 q 689 721 683 704 q 694 764 694 738 l 694 944 q 691 1003 694 981 q 676 1037 688 1025 q 642 1052 664 1049 q 583 1056 619 1056 l 278 1056 q 219 1052 242 1056 q 185 1037 197 1049 q 170 1003 174 1025 q 167 944 167 981 l 167 222 q 170 164 167 186 q 186 130 174 142 q 222 115 199 118 q 282 111 244 111 l 444 111 q 503 115 481 111 q 537 130 525 118 q 552 164 549 142 q 556 222 556 186 l 556 569 m 239 1329 q 241 1365 239 1351 q 250 1385 243 1378 q 270 1394 257 1392 q 306 1396 283 1396 l 317 1396 q 372 1384 360 1396 q 383 1329 383 1372 l 383 1276 q 381 1241 383 1254 q 372 1221 379 1228 q 352 1212 365 1214 q 317 1210 339 1210 l 306 1210 q 270 1212 283 1210 q 250 1221 257 1214 q 241 1241 243 1228 q 239 1276 239 1254 l 239 1329 m 482 1329 q 484 1365 482 1351 q 493 1385 486 1378 q 513 1394 500 1392 q 549 1396 526 1396 l 560 1396 q 615 1384 603 1396 q 626 1329 626 1372 l 626 1276 q 624 1241 626 1254 q 615 1221 622 1228 q 595 1212 608 1214 q 560 1210 582 1210 l 549 1210 q 513 1212 526 1210 q 493 1221 500 1214 q 484 1241 486 1228 q 482 1276 482 1254 l 482 1329 z "},"×":{"ha":889,"x_min":150,"x_max":739,"o":"m 719 308 q 683 289 700 289 q 657 298 672 289 q 621 328 642 307 l 483 465 q 444 492 457 492 q 428 485 436 492 q 406 465 419 479 l 268 328 q 206 289 229 289 q 169 308 189 289 q 150 344 150 328 q 189 407 150 368 l 326 544 q 347 567 340 558 q 353 583 353 575 q 326 622 353 596 l 189 760 q 159 796 168 781 q 150 822 150 811 q 156 840 150 831 q 169 858 161 850 q 188 872 178 867 q 206 878 197 878 q 232 869 217 878 q 268 839 247 860 l 406 701 q 428 681 419 688 q 444 674 436 674 q 483 701 456 674 l 621 839 q 657 869 642 860 q 683 878 672 878 q 719 858 700 878 q 739 822 739 839 q 730 796 739 811 q 700 760 721 781 l 563 622 q 535 583 535 594 q 542 567 535 575 q 563 544 549 558 l 700 407 q 730 371 721 386 q 739 344 739 356 q 719 308 739 328 z "},"Ø":{"ha":861,"x_min":56,"x_max":806,"o":"m 56 944 q 61 1067 56 1022 q 89 1133 67 1111 q 156 1161 111 1156 q 278 1167 200 1167 l 583 1167 q 706 1161 661 1167 q 772 1133 750 1156 q 800 1067 794 1111 q 806 944 806 1022 l 806 222 q 800 100 806 144 q 772 33 794 56 q 706 6 750 11 q 583 0 661 0 l 278 0 q 156 6 200 0 q 89 33 111 11 q 61 100 67 56 q 56 222 56 144 l 56 944 m 583 1056 l 278 1056 q 219 1052 242 1056 q 185 1037 197 1049 q 170 1003 174 1025 q 167 944 167 981 l 167 194 l 649 1050 q 583 1056 628 1056 m 556 486 q 561 528 556 513 q 576 555 567 544 q 597 572 585 565 q 625 583 610 578 q 652 594 639 589 q 674 610 665 600 q 689 638 683 621 q 694 681 694 654 l 694 956 l 219 114 q 247 111 232 111 q 282 111 263 111 l 444 111 q 503 115 481 111 q 537 130 525 118 q 552 164 549 142 q 556 222 556 186 l 556 486 z "},"Ù":{"ha":778,"x_min":56,"x_max":722,"o":"m 56 1083 q 67 1151 56 1136 q 111 1167 79 1167 q 155 1151 143 1167 q 167 1083 167 1136 l 167 222 q 170 163 167 185 q 185 130 174 142 q 219 115 197 118 q 278 111 242 111 l 361 111 q 419 115 397 111 q 453 130 442 118 q 469 163 465 142 q 472 222 472 185 l 472 1056 q 476 1114 472 1092 q 491 1148 479 1136 q 525 1163 503 1160 q 583 1167 547 1167 l 611 1167 q 669 1163 647 1167 q 703 1148 692 1160 q 719 1114 715 1136 q 722 1056 722 1092 l 722 222 q 717 100 722 144 q 689 33 711 56 q 622 6 667 11 q 500 0 578 0 l 278 0 q 156 6 200 0 q 89 33 111 11 q 61 100 67 56 q 56 222 56 144 l 56 1083 m 369 1375 q 406 1365 393 1375 q 418 1328 418 1356 l 418 1269 q 410 1232 418 1242 q 381 1222 403 1222 l 372 1222 q 329 1229 340 1222 q 301 1258 318 1236 l 265 1307 q 244 1351 244 1333 q 258 1371 244 1367 q 289 1375 271 1375 l 369 1375 z "},"Ú":{"ha":778,"x_min":56,"x_max":722,"o":"m 56 1083 q 67 1151 56 1136 q 111 1167 79 1167 q 155 1151 143 1167 q 167 1083 167 1136 l 167 222 q 170 163 167 185 q 185 130 174 142 q 219 115 197 118 q 278 111 242 111 l 361 111 q 419 115 397 111 q 453 130 442 118 q 469 163 465 142 q 472 222 472 185 l 472 1056 q 476 1114 472 1092 q 491 1148 479 1136 q 525 1163 503 1160 q 583 1167 547 1167 l 611 1167 q 669 1163 647 1167 q 703 1148 692 1160 q 719 1114 715 1136 q 722 1056 722 1092 l 722 222 q 717 100 722 144 q 689 33 711 56 q 622 6 667 11 q 500 0 578 0 l 278 0 q 156 6 200 0 q 89 33 111 11 q 61 100 67 56 q 56 222 56 144 l 56 1083 m 422 1375 q 453 1371 440 1375 q 467 1351 467 1367 q 446 1307 467 1333 l 410 1258 q 382 1229 393 1236 q 339 1222 371 1222 l 331 1222 q 301 1232 308 1222 q 293 1269 293 1242 l 293 1328 q 306 1365 293 1356 q 342 1375 318 1375 l 422 1375 z "},"Û":{"ha":778,"x_min":56,"x_max":722,"o":"m 56 1083 q 67 1151 56 1136 q 111 1167 79 1167 q 155 1151 143 1167 q 167 1083 167 1136 l 167 222 q 170 163 167 185 q 185 130 174 142 q 219 115 197 118 q 278 111 242 111 l 361 111 q 419 115 397 111 q 453 130 442 118 q 469 163 465 142 q 472 222 472 185 l 472 1056 q 476 1114 472 1092 q 491 1148 479 1136 q 525 1163 503 1160 q 583 1167 547 1167 l 611 1167 q 669 1163 647 1167 q 703 1148 692 1160 q 719 1114 715 1136 q 722 1056 722 1092 l 722 222 q 717 100 722 144 q 689 33 711 56 q 622 6 667 11 q 500 0 578 0 l 278 0 q 156 6 200 0 q 89 33 111 11 q 61 100 67 56 q 56 222 56 144 l 56 1083 m 368 1371 q 411 1371 390 1392 l 546 1254 q 561 1227 565 1239 q 535 1215 557 1215 l 246 1215 q 220 1227 224 1215 q 235 1254 217 1239 l 368 1371 z "},"Ü":{"ha":778,"x_min":56,"x_max":722,"o":"m 56 1083 q 67 1151 56 1136 q 111 1167 79 1167 q 155 1151 143 1167 q 167 1083 167 1136 l 167 222 q 170 163 167 185 q 185 130 174 142 q 219 115 197 118 q 278 111 242 111 l 361 111 q 419 115 397 111 q 453 130 442 118 q 469 163 465 142 q 472 222 472 185 l 472 1056 q 476 1114 472 1092 q 491 1148 479 1136 q 525 1163 503 1160 q 583 1167 547 1167 l 611 1167 q 669 1163 647 1167 q 703 1148 692 1160 q 719 1114 715 1136 q 722 1056 722 1092 l 722 222 q 717 100 722 144 q 689 33 711 56 q 622 6 667 11 q 500 0 578 0 l 278 0 q 156 6 200 0 q 89 33 111 11 q 61 100 67 56 q 56 222 56 144 l 56 1083 m 199 1329 q 201 1365 199 1351 q 210 1385 203 1378 q 230 1394 217 1392 q 265 1396 243 1396 l 276 1396 q 331 1384 319 1396 q 343 1329 343 1372 l 343 1276 q 341 1241 343 1254 q 332 1221 339 1228 q 312 1212 325 1214 q 276 1210 299 1210 l 265 1210 q 230 1212 243 1210 q 210 1221 217 1214 q 201 1241 203 1228 q 199 1276 199 1254 l 199 1329 m 442 1329 q 444 1365 442 1351 q 453 1385 446 1378 q 473 1394 460 1392 q 508 1396 486 1396 l 519 1396 q 574 1384 563 1396 q 586 1329 586 1372 l 586 1276 q 584 1241 586 1254 q 575 1221 582 1228 q 555 1212 568 1214 q 519 1210 542 1210 l 508 1210 q 473 1212 486 1210 q 453 1221 460 1214 q 444 1241 446 1228 q 442 1276 442 1254 l 442 1329 z "},"Ý":{"ha":756,"x_min":56,"x_max":700,"o":"m 700 726 q 698 692 700 706 q 690 667 696 678 q 673 644 685 656 q 643 618 661 632 l 561 557 q 517 505 529 533 q 503 443 504 476 l 503 111 q 499 53 503 75 q 484 19 496 31 q 450 3 472 7 q 392 0 428 0 l 364 0 q 306 3 328 0 q 272 19 283 7 q 256 53 260 31 q 253 111 253 75 l 253 436 q 240 503 253 472 q 194 557 226 533 l 113 618 q 82 644 93 632 q 65 667 71 656 q 58 692 60 678 q 56 726 56 706 l 56 1083 q 67 1151 56 1136 q 111 1167 79 1167 q 155 1151 143 1167 q 167 1083 167 1136 l 167 793 q 172 724 167 744 q 193 692 178 704 l 294 611 q 338 584 319 592 q 378 576 357 576 q 417 584 399 576 q 461 611 436 592 l 563 692 q 583 724 578 704 q 589 793 589 744 l 589 1083 q 601 1151 589 1136 q 644 1167 613 1167 q 688 1151 676 1167 q 700 1083 700 1136 l 700 726 m 467 1375 q 498 1371 485 1375 q 511 1351 511 1367 q 490 1307 511 1333 l 454 1258 q 426 1229 438 1236 q 383 1222 415 1222 l 375 1222 q 345 1232 353 1222 q 338 1269 338 1242 l 338 1328 q 350 1365 338 1356 q 386 1375 363 1375 l 467 1375 z "},"Þ":{"ha":833,"x_min":56,"x_max":778,"o":"m 56 1056 q 59 1114 56 1092 q 74 1148 63 1136 q 108 1163 86 1160 q 167 1167 131 1167 l 194 1167 q 253 1163 231 1167 q 287 1148 275 1160 q 302 1114 299 1136 q 306 1056 306 1092 l 306 1014 q 309 956 306 978 q 324 922 313 933 q 358 906 336 910 q 417 903 381 903 l 556 903 q 678 897 633 903 q 744 869 722 892 q 772 803 767 847 q 778 681 778 758 l 778 486 q 772 364 778 408 q 744 297 767 319 q 678 269 722 275 q 556 264 633 264 l 417 264 q 358 260 381 264 q 324 245 336 257 q 309 211 313 233 q 306 153 306 189 l 306 111 q 302 53 306 75 q 287 19 299 31 q 253 3 275 7 q 194 0 231 0 l 167 0 q 108 3 131 0 q 74 19 86 7 q 59 53 63 31 q 56 111 56 75 l 56 1056 m 167 486 q 170 428 167 450 q 185 394 174 406 q 219 378 197 382 q 278 375 242 375 l 556 375 q 614 378 592 375 q 648 394 636 382 q 663 428 660 406 q 667 486 667 450 l 667 681 q 663 739 667 717 q 648 773 660 761 q 614 788 636 785 q 556 792 592 792 l 278 792 q 219 788 242 792 q 185 773 197 785 q 170 739 174 761 q 167 681 167 717 l 167 486 z "},"ß":{"ha":806,"x_min":56,"x_max":750,"o":"m 167 83 q 155 15 167 31 q 111 0 143 0 q 67 15 79 0 q 56 83 56 31 l 56 944 q 61 1067 56 1022 q 89 1133 67 1111 q 156 1161 111 1156 q 278 1167 200 1167 l 389 1167 q 511 1161 467 1167 q 578 1133 556 1156 q 606 1067 600 1111 q 611 944 611 1022 l 611 738 q 624 660 611 685 q 667 625 638 636 q 723 590 696 614 q 750 513 750 565 l 750 222 q 744 100 750 144 q 717 33 739 56 q 650 6 694 11 q 528 0 606 0 l 361 0 q 293 15 308 0 q 278 56 278 31 q 293 96 278 81 q 361 111 308 111 l 389 111 q 447 115 425 111 q 481 130 469 118 q 497 164 493 142 q 500 222 500 186 l 500 417 q 497 475 500 453 q 481 509 493 497 q 447 524 469 521 q 389 528 425 528 l 361 528 q 293 543 308 528 q 278 583 278 558 q 293 624 278 608 q 361 639 308 639 l 389 639 q 447 642 425 639 q 481 658 469 646 q 497 692 493 669 q 500 750 500 714 l 500 944 q 497 1003 500 981 q 481 1037 493 1025 q 447 1052 469 1049 q 389 1056 425 1056 l 278 1056 q 219 1052 242 1056 q 185 1037 197 1049 q 170 1003 174 1025 q 167 944 167 981 l 167 83 z "},"à":{"ha":875,"x_min":56,"x_max":819,"o":"m 306 111 q 302 53 306 75 q 287 19 299 31 q 253 3 275 7 q 194 0 231 0 l 167 0 q 108 3 131 0 q 74 19 86 7 q 59 53 63 31 q 56 111 56 75 l 56 458 q 61 501 56 485 q 76 527 67 517 q 97 544 85 538 q 125 556 110 550 q 152 567 139 561 q 174 583 165 572 q 189 610 183 593 q 194 653 194 626 l 194 944 q 200 1067 194 1022 q 228 1133 206 1111 q 294 1161 250 1156 q 417 1167 339 1167 l 597 1167 q 719 1161 675 1167 q 786 1133 764 1156 q 814 1067 808 1111 q 819 944 819 1022 l 819 83 q 808 15 819 31 q 764 -1 796 -1 q 720 15 732 -1 q 708 83 708 31 l 708 417 q 705 475 708 453 q 690 509 701 497 q 656 524 678 521 q 597 528 633 528 l 417 528 q 358 524 381 528 q 324 508 336 521 q 309 474 313 496 q 306 414 306 451 l 306 111 m 708 944 q 705 1003 708 981 q 690 1037 701 1025 q 656 1052 678 1049 q 597 1056 633 1056 l 417 1056 q 358 1052 381 1056 q 324 1037 336 1049 q 309 1003 313 1025 q 306 944 306 981 l 306 750 q 309 692 306 714 q 324 658 313 669 q 358 642 336 646 q 417 639 381 639 l 597 639 q 656 642 633 639 q 690 658 678 646 q 705 692 701 669 q 708 750 708 714 l 708 944 m 515 1375 q 551 1365 539 1375 q 564 1328 564 1356 l 564 1269 q 556 1232 564 1242 q 526 1222 549 1222 l 518 1222 q 475 1229 486 1222 q 447 1258 464 1236 l 411 1307 q 390 1351 390 1333 q 403 1371 390 1367 q 435 1375 417 1375 l 515 1375 z "},"á":{"ha":875,"x_min":56,"x_max":819,"o":"m 306 111 q 302 53 306 75 q 287 19 299 31 q 253 3 275 7 q 194 0 231 0 l 167 0 q 108 3 131 0 q 74 19 86 7 q 59 53 63 31 q 56 111 56 75 l 56 458 q 61 501 56 485 q 76 527 67 517 q 97 544 85 538 q 125 556 110 550 q 152 567 139 561 q 174 583 165 572 q 189 610 183 593 q 194 653 194 626 l 194 944 q 200 1067 194 1022 q 228 1133 206 1111 q 294 1161 250 1156 q 417 1167 339 1167 l 597 1167 q 719 1161 675 1167 q 786 1133 764 1156 q 814 1067 808 1111 q 819 944 819 1022 l 819 83 q 808 15 819 31 q 764 -1 796 -1 q 720 15 732 -1 q 708 83 708 31 l 708 417 q 705 475 708 453 q 690 509 701 497 q 656 524 678 521 q 597 528 633 528 l 417 528 q 358 524 381 528 q 324 508 336 521 q 309 474 313 496 q 306 414 306 451 l 306 111 m 708 944 q 705 1003 708 981 q 690 1037 701 1025 q 656 1052 678 1049 q 597 1056 633 1056 l 417 1056 q 358 1052 381 1056 q 324 1037 336 1049 q 309 1003 313 1025 q 306 944 306 981 l 306 750 q 309 692 306 714 q 324 658 313 669 q 358 642 336 646 q 417 639 381 639 l 597 639 q 656 642 633 639 q 690 658 678 646 q 705 692 701 669 q 708 750 708 714 l 708 944 m 581 1375 q 612 1371 599 1375 q 625 1351 625 1367 q 604 1307 625 1333 l 568 1258 q 540 1229 551 1236 q 497 1222 529 1222 l 489 1222 q 459 1232 467 1222 q 451 1269 451 1242 l 451 1328 q 464 1365 451 1356 q 500 1375 476 1375 l 581 1375 z "},"â":{"ha":875,"x_min":56,"x_max":819,"o":"m 306 111 q 302 53 306 75 q 287 19 299 31 q 253 3 275 7 q 194 0 231 0 l 167 0 q 108 3 131 0 q 74 19 86 7 q 59 53 63 31 q 56 111 56 75 l 56 458 q 61 501 56 485 q 76 527 67 517 q 97 544 85 538 q 125 556 110 550 q 152 567 139 561 q 174 583 165 572 q 189 610 183 593 q 194 653 194 626 l 194 944 q 200 1067 194 1022 q 228 1133 206 1111 q 294 1161 250 1156 q 417 1167 339 1167 l 597 1167 q 719 1161 675 1167 q 786 1133 764 1156 q 814 1067 808 1111 q 819 944 819 1022 l 819 83 q 808 15 819 31 q 764 -1 796 -1 q 720 15 732 -1 q 708 83 708 31 l 708 417 q 705 475 708 453 q 690 509 701 497 q 656 524 678 521 q 597 528 633 528 l 417 528 q 358 524 381 528 q 324 508 336 521 q 309 474 313 496 q 306 414 306 451 l 306 111 m 708 944 q 705 1003 708 981 q 690 1037 701 1025 q 656 1052 678 1049 q 597 1056 633 1056 l 417 1056 q 358 1052 381 1056 q 324 1037 336 1049 q 309 1003 313 1025 q 306 944 306 981 l 306 750 q 309 692 306 714 q 324 658 313 669 q 358 642 336 646 q 417 639 381 639 l 597 639 q 656 642 633 639 q 690 658 678 646 q 705 692 701 669 q 708 750 708 714 l 708 944 m 483 1371 q 526 1371 506 1392 l 661 1254 q 676 1227 681 1239 q 650 1215 672 1215 l 361 1215 q 335 1227 339 1215 q 350 1254 332 1239 l 483 1371 z "},"ã":{"ha":875,"x_min":56,"x_max":819,"o":"m 306 111 q 302 53 306 75 q 287 19 299 31 q 253 3 275 7 q 194 0 231 0 l 167 0 q 108 3 131 0 q 74 19 86 7 q 59 53 63 31 q 56 111 56 75 l 56 458 q 61 501 56 485 q 76 527 67 517 q 97 544 85 538 q 125 556 110 550 q 152 567 139 561 q 174 583 165 572 q 189 610 183 593 q 194 653 194 626 l 194 944 q 200 1067 194 1022 q 228 1133 206 1111 q 294 1161 250 1156 q 417 1167 339 1167 l 597 1167 q 719 1161 675 1167 q 786 1133 764 1156 q 814 1067 808 1111 q 819 944 819 1022 l 819 83 q 808 15 819 31 q 764 -1 796 -1 q 720 15 732 -1 q 708 83 708 31 l 708 417 q 705 475 708 453 q 690 509 701 497 q 656 524 678 521 q 597 528 633 528 l 417 528 q 358 524 381 528 q 324 508 336 521 q 309 474 313 496 q 306 414 306 451 l 306 111 m 708 944 q 705 1003 708 981 q 690 1037 701 1025 q 656 1052 678 1049 q 597 1056 633 1056 l 417 1056 q 358 1052 381 1056 q 324 1037 336 1049 q 309 1003 313 1025 q 306 944 306 981 l 306 750 q 309 692 306 714 q 324 658 313 669 q 358 642 336 646 q 417 639 381 639 l 597 639 q 656 642 633 639 q 690 658 678 646 q 705 692 701 669 q 708 750 708 714 l 708 944 m 271 1278 q 277 1344 271 1319 q 300 1382 283 1369 q 347 1399 317 1394 q 424 1403 376 1403 q 490 1394 465 1403 q 528 1374 514 1386 q 549 1347 542 1361 q 565 1321 557 1333 q 584 1300 572 1308 q 618 1292 596 1292 q 662 1302 650 1292 q 674 1333 674 1313 q 681 1383 674 1371 q 722 1396 688 1396 q 764 1383 757 1396 q 771 1333 771 1371 q 765 1267 771 1292 q 742 1229 758 1242 q 695 1213 725 1217 q 618 1208 665 1208 q 553 1217 576 1208 q 515 1238 529 1225 q 492 1264 500 1250 q 477 1290 485 1278 q 458 1311 469 1303 q 425 1319 447 1319 q 381 1309 393 1319 q 368 1278 368 1299 q 361 1228 368 1240 q 319 1215 354 1215 q 278 1228 285 1215 q 271 1278 271 1240 z "},"ä":{"ha":875,"x_min":56,"x_max":819,"o":"m 306 111 q 302 53 306 75 q 287 19 299 31 q 253 3 275 7 q 194 0 231 0 l 167 0 q 108 3 131 0 q 74 19 86 7 q 59 53 63 31 q 56 111 56 75 l 56 458 q 61 501 56 485 q 76 527 67 517 q 97 544 85 538 q 125 556 110 550 q 152 567 139 561 q 174 583 165 572 q 189 610 183 593 q 194 653 194 626 l 194 944 q 200 1067 194 1022 q 228 1133 206 1111 q 294 1161 250 1156 q 417 1167 339 1167 l 597 1167 q 719 1161 675 1167 q 786 1133 764 1156 q 814 1067 808 1111 q 819 944 819 1022 l 819 83 q 808 15 819 31 q 764 -1 796 -1 q 720 15 732 -1 q 708 83 708 31 l 708 417 q 705 475 708 453 q 690 509 701 497 q 656 524 678 521 q 597 528 633 528 l 417 528 q 358 524 381 528 q 324 508 336 521 q 309 474 313 496 q 306 414 306 451 l 306 111 m 708 944 q 705 1003 708 981 q 690 1037 701 1025 q 656 1052 678 1049 q 597 1056 633 1056 l 417 1056 q 358 1052 381 1056 q 324 1037 336 1049 q 309 1003 313 1025 q 306 944 306 981 l 306 750 q 309 692 306 714 q 324 658 313 669 q 358 642 336 646 q 417 639 381 639 l 597 639 q 656 642 633 639 q 690 658 678 646 q 705 692 701 669 q 708 750 708 714 l 708 944 m 308 1329 q 310 1365 308 1351 q 319 1385 313 1378 q 340 1394 326 1392 q 375 1396 353 1396 l 386 1396 q 441 1384 429 1396 q 453 1329 453 1372 l 453 1276 q 451 1241 453 1254 q 442 1221 449 1228 q 422 1212 435 1214 q 386 1210 408 1210 l 375 1210 q 340 1212 353 1210 q 319 1221 326 1214 q 310 1241 313 1228 q 308 1276 308 1254 l 308 1329 m 551 1329 q 553 1365 551 1351 q 563 1385 556 1378 q 583 1394 569 1392 q 618 1396 596 1396 l 629 1396 q 684 1384 672 1396 q 696 1329 696 1372 l 696 1276 q 694 1241 696 1254 q 685 1221 692 1228 q 665 1212 678 1214 q 629 1210 651 1210 l 618 1210 q 583 1212 596 1210 q 563 1221 569 1214 q 553 1241 556 1228 q 551 1276 551 1254 l 551 1329 z "},"å":{"ha":875,"x_min":56,"x_max":819,"o":"m 306 111 q 302 53 306 75 q 287 19 299 31 q 253 3 275 7 q 194 0 231 0 l 167 0 q 108 3 131 0 q 74 19 86 7 q 59 53 63 31 q 56 111 56 75 l 56 458 q 61 501 56 485 q 76 527 67 517 q 97 544 85 538 q 125 556 110 550 q 152 567 139 561 q 174 583 165 572 q 189 610 183 593 q 194 653 194 626 l 194 944 q 200 1067 194 1022 q 228 1133 206 1111 q 294 1161 250 1156 q 417 1167 339 1167 l 597 1167 q 719 1161 675 1167 q 786 1133 764 1156 q 814 1067 808 1111 q 819 944 819 1022 l 819 83 q 808 15 819 31 q 764 -1 796 -1 q 720 15 732 -1 q 708 83 708 31 l 708 417 q 705 475 708 453 q 690 509 701 497 q 656 524 678 521 q 597 528 633 528 l 417 528 q 358 524 381 528 q 324 508 336 521 q 309 474 313 496 q 306 414 306 451 l 306 111 m 708 944 q 705 1003 708 981 q 690 1037 701 1025 q 656 1052 678 1049 q 597 1056 633 1056 l 417 1056 q 358 1052 381 1056 q 324 1037 336 1049 q 309 1003 313 1025 q 306 944 306 981 l 306 750 q 309 692 306 714 q 324 658 313 669 q 358 642 336 646 q 417 639 381 639 l 597 639 q 656 642 633 639 q 690 658 678 646 q 705 692 701 669 q 708 750 708 714 l 708 944 m 404 1319 q 408 1378 404 1356 q 423 1412 411 1400 q 457 1427 435 1424 q 515 1431 479 1431 q 574 1427 551 1431 q 608 1412 596 1424 q 623 1378 619 1400 q 626 1319 626 1356 q 623 1261 626 1283 q 608 1227 619 1239 q 574 1212 596 1215 q 515 1208 551 1208 q 457 1212 479 1208 q 423 1227 435 1215 q 408 1261 411 1239 q 404 1319 404 1283 m 465 1319 q 474 1278 465 1288 q 515 1269 483 1269 q 556 1278 547 1269 q 565 1319 565 1288 q 556 1360 565 1351 q 515 1369 547 1369 q 474 1360 483 1369 q 465 1319 465 1351 z "},"æ":{"ha":1319,"x_min":56,"x_max":1264,"o":"m 306 111 q 302 53 306 75 q 287 19 299 31 q 253 3 275 7 q 194 0 231 0 l 167 0 q 108 3 131 0 q 74 19 86 7 q 59 53 63 31 q 56 111 56 75 l 56 458 q 61 501 56 485 q 76 527 67 517 q 97 544 85 538 q 125 556 110 550 q 152 567 139 561 q 174 583 165 572 q 189 610 183 593 q 194 653 194 626 l 194 944 q 200 1067 194 1022 q 228 1133 206 1111 q 294 1161 250 1156 q 417 1167 339 1167 l 569 1167 q 672 1160 632 1167 q 736 1121 711 1153 q 800 1160 760 1153 q 903 1167 840 1167 l 1181 1167 q 1249 1155 1233 1167 q 1264 1111 1264 1143 q 1249 1067 1264 1079 q 1181 1056 1233 1056 l 903 1056 q 844 1052 867 1056 q 810 1037 822 1049 q 795 1003 799 1025 q 792 944 792 981 l 792 750 q 795 692 792 714 q 810 658 799 669 q 844 642 822 646 q 903 639 867 639 l 1181 639 q 1249 627 1233 639 q 1264 583 1264 615 q 1249 540 1264 551 q 1181 528 1233 528 l 1042 528 q 983 524 1006 528 q 949 509 961 521 q 934 475 938 497 q 931 417 931 453 l 931 222 q 934 164 931 186 q 949 130 938 142 q 983 115 961 118 q 1042 111 1006 111 l 1181 111 q 1249 99 1233 111 q 1264 56 1264 88 q 1249 12 1264 24 q 1181 0 1233 0 l 903 0 q 781 6 825 0 q 714 33 736 11 q 686 100 692 56 q 681 222 681 144 l 681 417 q 677 475 681 453 q 662 509 674 497 q 628 524 650 521 q 569 528 606 528 l 417 528 q 358 524 381 528 q 324 508 336 521 q 309 474 313 496 q 306 414 306 451 l 306 111 m 681 944 l 681 965 q 674 1013 679 994 q 657 1040 669 1031 q 624 1052 644 1049 q 569 1056 603 1056 l 417 1056 q 358 1052 381 1056 q 324 1037 336 1049 q 309 1003 313 1025 q 306 944 306 981 l 306 750 q 309 692 306 714 q 324 658 313 669 q 358 642 336 646 q 417 639 381 639 l 569 639 q 624 642 603 639 q 658 658 646 646 q 676 692 671 669 q 681 750 681 714 l 681 944 z "},"ç":{"ha":750,"x_min":56,"x_max":694,"o":"m 56 944 q 61 1067 56 1022 q 89 1133 67 1111 q 156 1161 111 1156 q 278 1167 200 1167 l 472 1167 q 594 1161 550 1167 q 661 1133 639 1156 q 689 1067 683 1111 q 694 944 694 1022 l 694 875 q 691 824 694 843 q 677 795 688 806 q 648 781 667 785 q 599 778 629 778 l 542 778 q 491 781 510 778 q 462 795 472 785 q 448 824 451 806 q 444 875 444 843 l 444 943 q 441 1003 444 981 q 426 1037 438 1025 q 392 1052 414 1049 q 333 1056 369 1056 l 278 1056 q 219 1052 242 1056 q 185 1037 197 1049 q 170 1003 174 1025 q 167 944 167 981 l 167 222 q 170 164 167 186 q 185 130 174 142 q 219 115 197 118 q 278 111 242 111 l 472 111 q 531 115 508 111 q 565 130 553 118 q 580 164 576 142 q 583 222 583 186 l 583 306 q 585 348 583 332 q 593 373 588 364 q 609 385 599 382 q 638 389 619 389 q 684 374 674 389 q 694 306 694 358 l 694 222 q 689 100 694 144 q 661 33 683 56 q 594 6 639 11 q 472 0 550 0 l 346 0 q 358 -35 347 -28 q 401 -42 368 -42 q 463 -44 440 -42 q 496 -57 485 -47 q 510 -86 507 -67 q 513 -140 513 -106 q 510 -199 513 -179 q 496 -226 507 -218 q 463 -235 485 -235 q 401 -236 440 -236 l 346 -236 q 285 -234 307 -236 q 252 -224 263 -232 q 240 -199 242 -215 q 238 -153 238 -182 q 246 -119 238 -126 q 292 -111 254 -111 q 338 -119 329 -111 q 346 -156 346 -128 q 356 -177 346 -171 q 401 -183 365 -183 q 447 -176 438 -183 q 457 -140 457 -168 q 447 -105 457 -112 q 401 -97 438 -97 q 342 -94 364 -97 q 308 -82 319 -92 q 294 -53 297 -72 q 290 0 290 -33 l 278 0 q 156 6 200 0 q 89 33 111 11 q 61 100 67 56 q 56 222 56 144 l 56 944 z "},"è":{"ha":722,"x_min":56,"x_max":667,"o":"m 56 944 q 61 1067 56 1022 q 89 1133 67 1111 q 156 1161 111 1156 q 278 1167 200 1167 l 583 1167 q 651 1155 636 1167 q 667 1111 667 1143 q 651 1067 667 1079 q 583 1056 636 1056 l 278 1056 q 219 1052 242 1056 q 185 1037 197 1049 q 170 1003 174 1025 q 167 944 167 981 l 167 750 q 170 692 167 714 q 185 658 174 669 q 219 642 197 646 q 278 639 242 639 l 583 639 q 651 627 636 639 q 667 583 667 615 q 651 540 667 551 q 583 528 636 528 l 417 528 q 358 524 381 528 q 324 509 336 521 q 309 475 313 497 q 306 417 306 453 l 306 222 q 309 164 306 186 q 324 130 313 142 q 358 115 336 118 q 417 111 381 111 l 583 111 q 651 99 636 111 q 667 56 667 88 q 651 12 667 24 q 583 0 636 0 l 278 0 q 156 6 200 0 q 89 33 111 11 q 61 100 67 56 q 56 222 56 144 l 56 944 m 415 1375 q 451 1365 439 1375 q 464 1328 464 1356 l 464 1269 q 456 1232 464 1242 q 426 1222 449 1222 l 418 1222 q 375 1229 386 1222 q 347 1258 364 1236 l 311 1307 q 290 1351 290 1333 q 303 1371 290 1367 q 335 1375 317 1375 l 415 1375 z "},"é":{"ha":722,"x_min":56,"x_max":667,"o":"m 56 944 q 61 1067 56 1022 q 89 1133 67 1111 q 156 1161 111 1156 q 278 1167 200 1167 l 583 1167 q 651 1155 636 1167 q 667 1111 667 1143 q 651 1067 667 1079 q 583 1056 636 1056 l 278 1056 q 219 1052 242 1056 q 185 1037 197 1049 q 170 1003 174 1025 q 167 944 167 981 l 167 750 q 170 692 167 714 q 185 658 174 669 q 219 642 197 646 q 278 639 242 639 l 583 639 q 651 627 636 639 q 667 583 667 615 q 651 540 667 551 q 583 528 636 528 l 417 528 q 358 524 381 528 q 324 509 336 521 q 309 475 313 497 q 306 417 306 453 l 306 222 q 309 164 306 186 q 324 130 313 142 q 358 115 336 118 q 417 111 381 111 l 583 111 q 651 99 636 111 q 667 56 667 88 q 651 12 667 24 q 583 0 636 0 l 278 0 q 156 6 200 0 q 89 33 111 11 q 61 100 67 56 q 56 222 56 144 l 56 944 m 464 1375 q 495 1371 482 1375 q 508 1351 508 1367 q 488 1307 508 1333 l 451 1258 q 424 1229 435 1236 q 381 1222 413 1222 l 372 1222 q 342 1232 350 1222 q 335 1269 335 1242 l 335 1328 q 347 1365 335 1356 q 383 1375 360 1375 l 464 1375 z "},"ê":{"ha":722,"x_min":56,"x_max":667,"o":"m 56 944 q 61 1067 56 1022 q 89 1133 67 1111 q 156 1161 111 1156 q 278 1167 200 1167 l 583 1167 q 651 1155 636 1167 q 667 1111 667 1143 q 651 1067 667 1079 q 583 1056 636 1056 l 278 1056 q 219 1052 242 1056 q 185 1037 197 1049 q 170 1003 174 1025 q 167 944 167 981 l 167 750 q 170 692 167 714 q 185 658 174 669 q 219 642 197 646 q 278 639 242 639 l 583 639 q 651 627 636 639 q 667 583 667 615 q 651 540 667 551 q 583 528 636 528 l 417 528 q 358 524 381 528 q 324 509 336 521 q 309 475 313 497 q 306 417 306 453 l 306 222 q 309 164 306 186 q 324 130 313 142 q 358 115 336 118 q 417 111 381 111 l 583 111 q 651 99 636 111 q 667 56 667 88 q 651 12 667 24 q 583 0 636 0 l 278 0 q 156 6 200 0 q 89 33 111 11 q 61 100 67 56 q 56 222 56 144 l 56 944 m 340 1371 q 383 1371 363 1392 l 518 1254 q 533 1227 538 1239 q 507 1215 529 1215 l 218 1215 q 192 1227 196 1215 q 207 1254 189 1239 l 340 1371 z "},"ë":{"ha":722,"x_min":56,"x_max":667,"o":"m 56 944 q 61 1067 56 1022 q 89 1133 67 1111 q 156 1161 111 1156 q 278 1167 200 1167 l 583 1167 q 651 1155 636 1167 q 667 1111 667 1143 q 651 1067 667 1079 q 583 1056 636 1056 l 278 1056 q 219 1052 242 1056 q 185 1037 197 1049 q 170 1003 174 1025 q 167 944 167 981 l 167 750 q 170 692 167 714 q 185 658 174 669 q 219 642 197 646 q 278 639 242 639 l 583 639 q 651 627 636 639 q 667 583 667 615 q 651 540 667 551 q 583 528 636 528 l 417 528 q 358 524 381 528 q 324 509 336 521 q 309 475 313 497 q 306 417 306 453 l 306 222 q 309 164 306 186 q 324 130 313 142 q 358 115 336 118 q 417 111 381 111 l 583 111 q 651 99 636 111 q 667 56 667 88 q 651 12 667 24 q 583 0 636 0 l 278 0 q 156 6 200 0 q 89 33 111 11 q 61 100 67 56 q 56 222 56 144 l 56 944 m 183 1329 q 185 1365 183 1351 q 194 1385 188 1378 q 215 1394 201 1392 q 250 1396 228 1396 l 261 1396 q 316 1384 304 1396 q 328 1329 328 1372 l 328 1276 q 326 1241 328 1254 q 317 1221 324 1228 q 297 1212 310 1214 q 261 1210 283 1210 l 250 1210 q 215 1212 228 1210 q 194 1221 201 1214 q 185 1241 188 1228 q 183 1276 183 1254 l 183 1329 m 426 1329 q 428 1365 426 1351 q 438 1385 431 1378 q 458 1394 444 1392 q 493 1396 471 1396 l 504 1396 q 559 1384 547 1396 q 571 1329 571 1372 l 571 1276 q 569 1241 571 1254 q 560 1221 567 1228 q 540 1212 553 1214 q 504 1210 526 1210 l 493 1210 q 458 1212 471 1210 q 438 1221 444 1214 q 428 1241 431 1228 q 426 1276 426 1254 l 426 1329 z "},"ì":{"ha":361,"x_min":56,"x_max":306,"o":"m 56 444 q 61 487 56 471 q 76 513 67 503 q 97 530 85 524 q 125 542 110 536 q 152 553 139 547 q 174 569 165 558 q 189 596 183 579 q 194 639 194 613 l 194 1083 q 206 1151 194 1136 q 250 1167 218 1167 q 294 1151 282 1167 q 306 1083 306 1136 l 306 111 q 302 53 306 75 q 287 19 299 31 q 253 3 275 7 q 194 0 231 0 l 167 0 q 108 3 131 0 q 74 19 86 7 q 59 53 63 31 q 56 111 56 75 l 56 444 m 250 1375 q 286 1365 274 1375 q 299 1328 299 1356 l 299 1269 q 291 1232 299 1242 q 261 1222 283 1222 l 253 1222 q 210 1229 221 1222 q 182 1258 199 1236 l 146 1307 q 125 1351 125 1333 q 138 1371 125 1367 q 169 1375 151 1375 l 250 1375 z "},"í":{"ha":361,"x_min":56,"x_max":369,"o":"m 56 444 q 61 487 56 471 q 76 513 67 503 q 97 530 85 524 q 125 542 110 536 q 152 553 139 547 q 174 569 165 558 q 189 596 183 579 q 194 639 194 613 l 194 1083 q 206 1151 194 1136 q 250 1167 218 1167 q 294 1151 282 1167 q 306 1083 306 1136 l 306 111 q 302 53 306 75 q 287 19 299 31 q 253 3 275 7 q 194 0 231 0 l 167 0 q 108 3 131 0 q 74 19 86 7 q 59 53 63 31 q 56 111 56 75 l 56 444 m 325 1375 q 356 1371 343 1375 q 369 1351 369 1367 q 349 1307 369 1333 l 313 1258 q 285 1229 296 1236 q 242 1222 274 1222 l 233 1222 q 203 1232 211 1222 q 196 1269 196 1242 l 196 1328 q 208 1365 196 1356 q 244 1375 221 1375 l 325 1375 z "},"î":{"ha":361,"x_min":56,"x_max":426,"o":"m 56 444 q 61 487 56 471 q 76 513 67 503 q 97 530 85 524 q 125 542 110 536 q 152 553 139 547 q 174 569 165 558 q 189 596 183 579 q 194 639 194 613 l 194 1083 q 206 1151 194 1136 q 250 1167 218 1167 q 294 1151 282 1167 q 306 1083 306 1136 l 306 111 q 302 53 306 75 q 287 19 299 31 q 253 3 275 7 q 194 0 231 0 l 167 0 q 108 3 131 0 q 74 19 86 7 q 59 53 63 31 q 56 111 56 75 l 56 444 m 229 1371 q 272 1371 251 1392 l 407 1254 q 422 1227 426 1239 q 396 1215 418 1215 l 107 1215 q 81 1227 85 1215 q 96 1254 78 1239 l 229 1371 z "},"ï":{"ha":361,"x_min":56,"x_max":406,"o":"m 96 1329 q 98 1365 96 1351 q 107 1385 100 1378 q 127 1394 114 1392 q 163 1396 140 1396 q 217 1384 206 1396 q 229 1329 229 1372 l 229 1276 q 227 1241 229 1254 q 218 1221 225 1228 q 198 1212 211 1214 q 163 1210 185 1210 q 127 1212 140 1210 q 107 1221 114 1214 q 98 1241 100 1228 q 96 1276 96 1254 l 96 1329 m 272 1329 q 274 1365 272 1351 q 283 1385 276 1378 q 303 1394 290 1392 q 339 1396 317 1396 q 394 1384 382 1396 q 406 1329 406 1372 l 406 1276 q 403 1241 406 1254 q 394 1221 401 1228 q 374 1212 388 1214 q 339 1210 361 1210 q 303 1212 317 1210 q 283 1221 290 1214 q 274 1241 276 1228 q 272 1276 272 1254 l 272 1329 m 56 444 q 61 487 56 471 q 76 513 67 503 q 97 530 85 524 q 125 542 110 536 q 152 553 139 547 q 174 569 165 558 q 189 596 183 579 q 194 639 194 613 l 194 1083 q 206 1151 194 1136 q 250 1167 218 1167 q 294 1151 282 1167 q 306 1083 306 1136 l 306 111 q 302 53 306 75 q 287 19 299 31 q 253 3 275 7 q 194 0 231 0 l 167 0 q 108 3 131 0 q 74 19 86 7 q 59 53 63 31 q 56 111 56 75 l 56 444 z "},"ð":{"ha":944,"x_min":0,"x_max":889,"o":"m 0 583 q 15 627 0 615 q 83 639 31 639 q 114 640 103 639 q 131 647 125 642 q 138 664 136 653 q 139 694 139 675 l 139 1056 q 142 1114 139 1092 q 158 1148 146 1136 q 192 1163 169 1160 q 250 1167 214 1167 l 528 1167 q 690 1150 621 1167 q 802 1094 758 1133 q 867 990 846 1054 q 889 833 889 926 l 889 333 q 867 176 889 239 q 802 73 846 113 q 690 17 758 33 q 528 0 621 0 l 250 0 q 192 3 214 0 q 158 19 169 7 q 142 53 146 31 q 139 111 139 75 l 139 472 q 131 519 139 511 q 83 528 122 528 q 15 540 31 528 q 0 583 0 551 m 778 833 q 766 933 778 890 q 726 1002 754 975 q 649 1042 697 1029 q 528 1056 600 1056 l 500 1056 q 442 1052 464 1056 q 408 1037 419 1049 q 392 1003 396 1025 q 389 943 389 981 l 389 694 q 390 664 389 675 q 397 647 392 653 q 414 640 403 642 q 444 639 425 639 l 528 639 q 596 627 581 639 q 611 583 611 615 q 596 540 611 551 q 528 528 581 528 l 444 528 q 414 526 425 528 q 397 519 403 525 q 390 503 392 514 q 389 472 389 492 l 389 222 q 392 164 389 186 q 408 130 396 142 q 441 115 419 118 q 500 111 463 111 l 528 111 q 649 124 600 111 q 726 165 697 138 q 766 234 754 192 q 778 333 778 276 l 778 833 z "},"ñ":{"ha":889,"x_min":56,"x_max":833,"o":"m 722 333 q 722 394 722 372 q 715 433 721 417 q 699 466 710 450 q 667 507 688 482 l 249 1015 q 223 1040 233 1033 q 197 1047 213 1047 q 174 1038 182 1047 q 167 1000 167 1028 l 167 83 q 155 15 167 31 q 111 0 143 0 q 67 15 79 0 q 56 83 56 31 l 56 1056 q 59 1114 56 1092 q 74 1148 63 1136 q 108 1163 86 1160 q 167 1167 131 1167 l 194 1167 q 235 1165 219 1167 q 263 1156 250 1164 q 292 1132 276 1149 q 333 1085 308 1115 l 654 693 q 694 665 678 665 q 722 722 722 665 l 722 1083 q 734 1151 722 1136 q 778 1167 746 1167 q 822 1151 810 1167 q 833 1083 833 1136 l 833 83 q 822 15 833 31 q 778 0 810 0 q 734 15 746 0 q 722 83 722 31 l 722 333 m 319 231 q 323 289 319 267 q 338 323 326 311 q 372 338 350 335 q 431 342 394 342 l 458 342 q 517 338 494 342 q 551 323 539 335 q 566 289 563 311 q 569 231 569 267 l 569 106 q 566 47 569 69 q 551 13 563 25 q 517 -2 539 1 q 458 -6 494 -6 l 431 -6 q 372 -2 394 -6 q 338 13 350 1 q 323 47 326 25 q 319 106 319 69 l 319 231 m 196 1278 q 202 1344 196 1319 q 225 1382 208 1369 q 272 1399 242 1394 q 349 1403 301 1403 q 415 1394 390 1403 q 453 1374 439 1386 q 474 1347 467 1361 q 490 1321 482 1333 q 509 1300 497 1308 q 543 1292 521 1292 q 587 1302 575 1292 q 599 1333 599 1313 q 606 1383 599 1371 q 647 1396 613 1396 q 689 1383 682 1396 q 696 1333 696 1371 q 690 1267 696 1292 q 667 1229 683 1242 q 620 1213 650 1217 q 543 1208 590 1208 q 478 1217 501 1208 q 440 1238 454 1225 q 417 1264 425 1250 q 402 1290 410 1278 q 383 1311 394 1303 q 350 1319 372 1319 q 306 1309 318 1319 q 293 1278 293 1299 q 286 1228 293 1240 q 244 1215 279 1215 q 203 1228 210 1215 q 196 1278 196 1240 z "},"ò":{"ha":861,"x_min":56,"x_max":806,"o":"m 56 944 q 61 1067 56 1022 q 89 1133 67 1111 q 156 1161 111 1156 q 278 1167 200 1167 l 583 1167 q 706 1161 661 1167 q 772 1133 750 1156 q 800 1067 794 1111 q 806 944 806 1022 l 806 222 q 800 100 806 144 q 772 33 794 56 q 706 6 750 11 q 583 0 661 0 l 278 0 q 156 6 200 0 q 89 33 111 11 q 61 100 67 56 q 56 222 56 144 l 56 944 m 556 569 q 561 612 556 596 q 576 638 567 628 q 597 655 585 649 q 625 667 610 661 q 652 678 639 672 q 674 694 665 683 q 689 721 683 704 q 694 764 694 738 l 694 944 q 691 1003 694 981 q 676 1037 688 1025 q 642 1052 664 1049 q 583 1056 619 1056 l 278 1056 q 219 1052 242 1056 q 185 1037 197 1049 q 170 1003 174 1025 q 167 944 167 981 l 167 222 q 170 164 167 186 q 186 130 174 142 q 222 115 199 118 q 282 111 244 111 l 444 111 q 503 115 481 111 q 537 130 525 118 q 552 164 549 142 q 556 222 556 186 l 556 569 m 458 1375 q 494 1365 482 1375 q 507 1328 507 1356 l 507 1269 q 499 1232 507 1242 q 469 1222 492 1222 l 461 1222 q 418 1229 429 1222 q 390 1258 407 1236 l 354 1307 q 333 1351 333 1333 q 347 1371 333 1367 q 378 1375 360 1375 l 458 1375 z "},"ó":{"ha":861,"x_min":56,"x_max":806,"o":"m 56 944 q 61 1067 56 1022 q 89 1133 67 1111 q 156 1161 111 1156 q 278 1167 200 1167 l 583 1167 q 706 1161 661 1167 q 772 1133 750 1156 q 800 1067 794 1111 q 806 944 806 1022 l 806 222 q 800 100 806 144 q 772 33 794 56 q 706 6 750 11 q 583 0 661 0 l 278 0 q 156 6 200 0 q 89 33 111 11 q 61 100 67 56 q 56 222 56 144 l 56 944 m 556 569 q 561 612 556 596 q 576 638 567 628 q 597 655 585 649 q 625 667 610 661 q 652 678 639 672 q 674 694 665 683 q 689 721 683 704 q 694 764 694 738 l 694 944 q 691 1003 694 981 q 676 1037 688 1025 q 642 1052 664 1049 q 583 1056 619 1056 l 278 1056 q 219 1052 242 1056 q 185 1037 197 1049 q 170 1003 174 1025 q 167 944 167 981 l 167 222 q 170 164 167 186 q 186 130 174 142 q 222 115 199 118 q 282 111 244 111 l 444 111 q 503 115 481 111 q 537 130 525 118 q 552 164 549 142 q 556 222 556 186 l 556 569 m 518 1375 q 549 1371 536 1375 q 563 1351 563 1367 q 542 1307 563 1333 l 506 1258 q 478 1229 489 1236 q 435 1222 467 1222 l 426 1222 q 397 1232 404 1222 q 389 1269 389 1242 l 389 1328 q 401 1365 389 1356 q 438 1375 414 1375 l 518 1375 z "},"ô":{"ha":861,"x_min":56,"x_max":806,"o":"m 56 944 q 61 1067 56 1022 q 89 1133 67 1111 q 156 1161 111 1156 q 278 1167 200 1167 l 583 1167 q 706 1161 661 1167 q 772 1133 750 1156 q 800 1067 794 1111 q 806 944 806 1022 l 806 222 q 800 100 806 144 q 772 33 794 56 q 706 6 750 11 q 583 0 661 0 l 278 0 q 156 6 200 0 q 89 33 111 11 q 61 100 67 56 q 56 222 56 144 l 56 944 m 556 569 q 561 612 556 596 q 576 638 567 628 q 597 655 585 649 q 625 667 610 661 q 652 678 639 672 q 674 694 665 683 q 689 721 683 704 q 694 764 694 738 l 694 944 q 691 1003 694 981 q 676 1037 688 1025 q 642 1052 664 1049 q 583 1056 619 1056 l 278 1056 q 219 1052 242 1056 q 185 1037 197 1049 q 170 1003 174 1025 q 167 944 167 981 l 167 222 q 170 164 167 186 q 186 130 174 142 q 222 115 199 118 q 282 111 244 111 l 444 111 q 503 115 481 111 q 537 130 525 118 q 552 164 549 142 q 556 222 556 186 l 556 569 m 421 1371 q 464 1371 443 1392 l 599 1254 q 614 1227 618 1239 q 588 1215 610 1215 l 299 1215 q 273 1227 276 1215 q 288 1254 269 1239 l 421 1371 z "},"õ":{"ha":861,"x_min":56,"x_max":806,"o":"m 56 944 q 61 1067 56 1022 q 89 1133 67 1111 q 156 1161 111 1156 q 278 1167 200 1167 l 583 1167 q 706 1161 661 1167 q 772 1133 750 1156 q 800 1067 794 1111 q 806 944 806 1022 l 806 222 q 800 100 806 144 q 772 33 794 56 q 706 6 750 11 q 583 0 661 0 l 278 0 q 156 6 200 0 q 89 33 111 11 q 61 100 67 56 q 56 222 56 144 l 56 944 m 556 569 q 561 612 556 596 q 576 638 567 628 q 597 655 585 649 q 625 667 610 661 q 652 678 639 672 q 674 694 665 683 q 689 721 683 704 q 694 764 694 738 l 694 944 q 691 1003 694 981 q 676 1037 688 1025 q 642 1052 664 1049 q 583 1056 619 1056 l 278 1056 q 219 1052 242 1056 q 185 1037 197 1049 q 170 1003 174 1025 q 167 944 167 981 l 167 222 q 170 164 167 186 q 186 130 174 142 q 222 115 199 118 q 282 111 244 111 l 444 111 q 503 115 481 111 q 537 130 525 118 q 552 164 549 142 q 556 222 556 186 l 556 569 m 196 1278 q 202 1344 196 1319 q 225 1382 208 1369 q 272 1399 242 1394 q 349 1403 301 1403 q 415 1394 390 1403 q 453 1374 439 1386 q 474 1347 467 1361 q 490 1321 482 1333 q 509 1300 497 1308 q 543 1292 521 1292 q 587 1302 575 1292 q 599 1333 599 1313 q 606 1383 599 1371 q 647 1396 613 1396 q 689 1383 682 1396 q 696 1333 696 1371 q 690 1267 696 1292 q 667 1229 683 1242 q 620 1213 650 1217 q 543 1208 590 1208 q 478 1217 501 1208 q 440 1238 454 1225 q 417 1264 425 1250 q 402 1290 410 1278 q 383 1311 394 1303 q 350 1319 372 1319 q 306 1309 318 1319 q 293 1278 293 1299 q 286 1228 293 1240 q 244 1215 279 1215 q 203 1228 210 1215 q 196 1278 196 1240 z "},"ö":{"ha":861,"x_min":56,"x_max":806,"o":"m 56 944 q 61 1067 56 1022 q 89 1133 67 1111 q 156 1161 111 1156 q 278 1167 200 1167 l 583 1167 q 706 1161 661 1167 q 772 1133 750 1156 q 800 1067 794 1111 q 806 944 806 1022 l 806 222 q 800 100 806 144 q 772 33 794 56 q 706 6 750 11 q 583 0 661 0 l 278 0 q 156 6 200 0 q 89 33 111 11 q 61 100 67 56 q 56 222 56 144 l 56 944 m 556 569 q 561 612 556 596 q 576 638 567 628 q 597 655 585 649 q 625 667 610 661 q 652 678 639 672 q 674 694 665 683 q 689 721 683 704 q 694 764 694 738 l 694 944 q 691 1003 694 981 q 676 1037 688 1025 q 642 1052 664 1049 q 583 1056 619 1056 l 278 1056 q 219 1052 242 1056 q 185 1037 197 1049 q 170 1003 174 1025 q 167 944 167 981 l 167 222 q 170 164 167 186 q 186 130 174 142 q 222 115 199 118 q 282 111 244 111 l 444 111 q 503 115 481 111 q 537 130 525 118 q 552 164 549 142 q 556 222 556 186 l 556 569 m 239 1329 q 241 1365 239 1351 q 250 1385 243 1378 q 270 1394 257 1392 q 306 1396 283 1396 l 317 1396 q 372 1384 360 1396 q 383 1329 383 1372 l 383 1276 q 381 1241 383 1254 q 372 1221 379 1228 q 352 1212 365 1214 q 317 1210 339 1210 l 306 1210 q 270 1212 283 1210 q 250 1221 257 1214 q 241 1241 243 1228 q 239 1276 239 1254 l 239 1329 m 482 1329 q 484 1365 482 1351 q 493 1385 486 1378 q 513 1394 500 1392 q 549 1396 526 1396 l 560 1396 q 615 1384 603 1396 q 626 1329 626 1372 l 626 1276 q 624 1241 626 1254 q 615 1221 622 1228 q 595 1212 608 1214 q 560 1210 582 1210 l 549 1210 q 513 1212 526 1210 q 493 1221 500 1214 q 484 1241 486 1228 q 482 1276 482 1254 l 482 1329 z "},"÷":{"ha":889,"x_min":56,"x_max":833,"o":"m 56 583 q 71 627 56 615 q 139 639 86 639 l 750 639 q 818 627 803 639 q 833 583 833 615 q 818 540 833 551 q 750 528 803 528 l 139 528 q 71 540 86 528 q 56 583 56 551 m 325 333 q 328 392 325 369 q 344 426 332 414 q 378 441 356 438 q 436 444 400 444 l 450 444 q 508 441 486 444 q 542 426 531 438 q 558 392 554 414 q 561 333 561 369 l 561 319 q 558 261 561 283 q 542 227 554 239 q 508 212 531 215 q 450 208 486 208 l 436 208 q 378 212 400 208 q 344 227 356 215 q 328 261 332 239 q 325 319 325 283 l 325 333 m 325 847 q 328 906 325 883 q 344 940 332 928 q 378 955 356 951 q 436 958 400 958 l 450 958 q 508 955 486 958 q 542 940 531 951 q 558 906 554 928 q 561 847 561 883 l 561 833 q 558 775 561 797 q 542 741 554 753 q 508 726 531 729 q 450 722 486 722 l 436 722 q 378 726 400 722 q 344 741 356 729 q 328 775 332 753 q 325 833 325 797 l 325 847 z "},"ø":{"ha":861,"x_min":56,"x_max":806,"o":"m 56 944 q 61 1067 56 1022 q 89 1133 67 1111 q 156 1161 111 1156 q 278 1167 200 1167 l 583 1167 q 706 1161 661 1167 q 772 1133 750 1156 q 800 1067 794 1111 q 806 944 806 1022 l 806 222 q 800 100 806 144 q 772 33 794 56 q 706 6 750 11 q 583 0 661 0 l 278 0 q 156 6 200 0 q 89 33 111 11 q 61 100 67 56 q 56 222 56 144 l 56 944 m 583 1056 l 278 1056 q 219 1052 242 1056 q 185 1037 197 1049 q 170 1003 174 1025 q 167 944 167 981 l 167 194 l 649 1050 q 583 1056 628 1056 m 556 486 q 561 528 556 513 q 576 555 567 544 q 597 572 585 565 q 625 583 610 578 q 652 594 639 589 q 674 610 665 600 q 689 638 683 621 q 694 681 694 654 l 694 956 l 219 114 q 247 111 232 111 q 282 111 263 111 l 444 111 q 503 115 481 111 q 537 130 525 118 q 552 164 549 142 q 556 222 556 186 l 556 486 z "},"ù":{"ha":778,"x_min":56,"x_max":722,"o":"m 56 1083 q 67 1151 56 1136 q 111 1167 79 1167 q 155 1151 143 1167 q 167 1083 167 1136 l 167 222 q 170 163 167 185 q 185 130 174 142 q 219 115 197 118 q 278 111 242 111 l 361 111 q 419 115 397 111 q 453 130 442 118 q 469 163 465 142 q 472 222 472 185 l 472 1056 q 476 1114 472 1092 q 491 1148 479 1136 q 525 1163 503 1160 q 583 1167 547 1167 l 611 1167 q 669 1163 647 1167 q 703 1148 692 1160 q 719 1114 715 1136 q 722 1056 722 1092 l 722 222 q 717 100 722 144 q 689 33 711 56 q 622 6 667 11 q 500 0 578 0 l 278 0 q 156 6 200 0 q 89 33 111 11 q 61 100 67 56 q 56 222 56 144 l 56 1083 m 369 1375 q 406 1365 393 1375 q 418 1328 418 1356 l 418 1269 q 410 1232 418 1242 q 381 1222 403 1222 l 372 1222 q 329 1229 340 1222 q 301 1258 318 1236 l 265 1307 q 244 1351 244 1333 q 258 1371 244 1367 q 289 1375 271 1375 l 369 1375 z "},"ú":{"ha":778,"x_min":56,"x_max":722,"o":"m 56 1083 q 67 1151 56 1136 q 111 1167 79 1167 q 155 1151 143 1167 q 167 1083 167 1136 l 167 222 q 170 163 167 185 q 185 130 174 142 q 219 115 197 118 q 278 111 242 111 l 361 111 q 419 115 397 111 q 453 130 442 118 q 469 163 465 142 q 472 222 472 185 l 472 1056 q 476 1114 472 1092 q 491 1148 479 1136 q 525 1163 503 1160 q 583 1167 547 1167 l 611 1167 q 669 1163 647 1167 q 703 1148 692 1160 q 719 1114 715 1136 q 722 1056 722 1092 l 722 222 q 717 100 722 144 q 689 33 711 56 q 622 6 667 11 q 500 0 578 0 l 278 0 q 156 6 200 0 q 89 33 111 11 q 61 100 67 56 q 56 222 56 144 l 56 1083 m 422 1375 q 453 1371 440 1375 q 467 1351 467 1367 q 446 1307 467 1333 l 410 1258 q 382 1229 393 1236 q 339 1222 371 1222 l 331 1222 q 301 1232 308 1222 q 293 1269 293 1242 l 293 1328 q 306 1365 293 1356 q 342 1375 318 1375 l 422 1375 z "},"û":{"ha":778,"x_min":56,"x_max":722,"o":"m 56 1083 q 67 1151 56 1136 q 111 1167 79 1167 q 155 1151 143 1167 q 167 1083 167 1136 l 167 222 q 170 163 167 185 q 185 130 174 142 q 219 115 197 118 q 278 111 242 111 l 361 111 q 419 115 397 111 q 453 130 442 118 q 469 163 465 142 q 472 222 472 185 l 472 1056 q 476 1114 472 1092 q 491 1148 479 1136 q 525 1163 503 1160 q 583 1167 547 1167 l 611 1167 q 669 1163 647 1167 q 703 1148 692 1160 q 719 1114 715 1136 q 722 1056 722 1092 l 722 222 q 717 100 722 144 q 689 33 711 56 q 622 6 667 11 q 500 0 578 0 l 278 0 q 156 6 200 0 q 89 33 111 11 q 61 100 67 56 q 56 222 56 144 l 56 1083 m 368 1371 q 411 1371 390 1392 l 546 1254 q 561 1227 565 1239 q 535 1215 557 1215 l 246 1215 q 220 1227 224 1215 q 235 1254 217 1239 l 368 1371 z "},"ü":{"ha":778,"x_min":56,"x_max":722,"o":"m 56 1083 q 67 1151 56 1136 q 111 1167 79 1167 q 155 1151 143 1167 q 167 1083 167 1136 l 167 222 q 170 163 167 185 q 185 130 174 142 q 219 115 197 118 q 278 111 242 111 l 361 111 q 419 115 397 111 q 453 130 442 118 q 469 163 465 142 q 472 222 472 185 l 472 1056 q 476 1114 472 1092 q 491 1148 479 1136 q 525 1163 503 1160 q 583 1167 547 1167 l 611 1167 q 669 1163 647 1167 q 703 1148 692 1160 q 719 1114 715 1136 q 722 1056 722 1092 l 722 222 q 717 100 722 144 q 689 33 711 56 q 622 6 667 11 q 500 0 578 0 l 278 0 q 156 6 200 0 q 89 33 111 11 q 61 100 67 56 q 56 222 56 144 l 56 1083 m 199 1329 q 201 1365 199 1351 q 210 1385 203 1378 q 230 1394 217 1392 q 265 1396 243 1396 l 276 1396 q 331 1384 319 1396 q 343 1329 343 1372 l 343 1276 q 341 1241 343 1254 q 332 1221 339 1228 q 312 1212 325 1214 q 276 1210 299 1210 l 265 1210 q 230 1212 243 1210 q 210 1221 217 1214 q 201 1241 203 1228 q 199 1276 199 1254 l 199 1329 m 442 1329 q 444 1365 442 1351 q 453 1385 446 1378 q 473 1394 460 1392 q 508 1396 486 1396 l 519 1396 q 574 1384 563 1396 q 586 1329 586 1372 l 586 1276 q 584 1241 586 1254 q 575 1221 582 1228 q 555 1212 568 1214 q 519 1210 542 1210 l 508 1210 q 473 1212 486 1210 q 453 1221 460 1214 q 444 1241 446 1228 q 442 1276 442 1254 l 442 1329 z "},"ý":{"ha":756,"x_min":56,"x_max":700,"o":"m 700 726 q 698 692 700 706 q 690 667 696 678 q 673 644 685 656 q 643 618 661 632 l 561 557 q 517 505 529 533 q 503 443 504 476 l 503 111 q 499 53 503 75 q 484 19 496 31 q 450 3 472 7 q 392 0 428 0 l 364 0 q 306 3 328 0 q 272 19 283 7 q 256 53 260 31 q 253 111 253 75 l 253 436 q 240 503 253 472 q 194 557 226 533 l 113 618 q 82 644 93 632 q 65 667 71 656 q 58 692 60 678 q 56 726 56 706 l 56 1083 q 67 1151 56 1136 q 111 1167 79 1167 q 155 1151 143 1167 q 167 1083 167 1136 l 167 793 q 172 724 167 744 q 193 692 178 704 l 294 611 q 338 584 319 592 q 378 576 357 576 q 417 584 399 576 q 461 611 436 592 l 563 692 q 583 724 578 704 q 589 793 589 744 l 589 1083 q 601 1151 589 1136 q 644 1167 613 1167 q 688 1151 676 1167 q 700 1083 700 1136 l 700 726 m 467 1375 q 498 1371 485 1375 q 511 1351 511 1367 q 490 1307 511 1333 l 454 1258 q 426 1229 438 1236 q 383 1222 415 1222 l 375 1222 q 345 1232 353 1222 q 338 1269 338 1242 l 338 1328 q 350 1365 338 1356 q 386 1375 363 1375 l 467 1375 z "},"þ":{"ha":833,"x_min":56,"x_max":778,"o":"m 56 1056 q 59 1114 56 1092 q 74 1148 63 1136 q 108 1163 86 1160 q 167 1167 131 1167 l 194 1167 q 253 1163 231 1167 q 287 1148 275 1160 q 302 1114 299 1136 q 306 1056 306 1092 l 306 1014 q 309 956 306 978 q 324 922 313 933 q 358 906 336 910 q 417 903 381 903 l 556 903 q 678 897 633 903 q 744 869 722 892 q 772 803 767 847 q 778 681 778 758 l 778 486 q 772 364 778 408 q 744 297 767 319 q 678 269 722 275 q 556 264 633 264 l 417 264 q 358 260 381 264 q 324 245 336 257 q 309 211 313 233 q 306 153 306 189 l 306 111 q 302 53 306 75 q 287 19 299 31 q 253 3 275 7 q 194 0 231 0 l 167 0 q 108 3 131 0 q 74 19 86 7 q 59 53 63 31 q 56 111 56 75 l 56 1056 m 167 486 q 170 428 167 450 q 185 394 174 406 q 219 378 197 382 q 278 375 242 375 l 556 375 q 614 378 592 375 q 648 394 636 382 q 663 428 660 406 q 667 486 667 450 l 667 681 q 663 739 667 717 q 648 773 660 761 q 614 788 636 785 q 556 792 592 792 l 278 792 q 219 788 242 792 q 185 773 197 785 q 170 739 174 761 q 167 681 167 717 l 167 486 z "},"ÿ":{"ha":756,"x_min":56,"x_max":700,"o":"m 700 726 q 698 692 700 706 q 690 667 696 678 q 673 644 685 656 q 643 618 661 632 l 561 557 q 517 505 529 533 q 503 443 504 476 l 503 111 q 499 53 503 75 q 484 19 496 31 q 450 3 472 7 q 392 0 428 0 l 364 0 q 306 3 328 0 q 272 19 283 7 q 256 53 260 31 q 253 111 253 75 l 253 436 q 240 503 253 472 q 194 557 226 533 l 113 618 q 82 644 93 632 q 65 667 71 656 q 58 692 60 678 q 56 726 56 706 l 56 1083 q 67 1151 56 1136 q 111 1167 79 1167 q 155 1151 143 1167 q 167 1083 167 1136 l 167 793 q 172 724 167 744 q 193 692 178 704 l 294 611 q 338 584 319 592 q 378 576 357 576 q 417 584 399 576 q 461 611 436 592 l 563 692 q 583 724 578 704 q 589 793 589 744 l 589 1083 q 601 1151 589 1136 q 644 1167 613 1167 q 688 1151 676 1167 q 700 1083 700 1136 l 700 726 m 183 1301 q 185 1337 183 1324 q 194 1357 188 1350 q 215 1366 201 1364 q 250 1368 228 1368 l 261 1368 q 316 1356 304 1368 q 328 1301 328 1344 l 328 1249 q 326 1213 328 1226 q 317 1193 324 1200 q 297 1184 310 1186 q 261 1182 283 1182 l 250 1182 q 215 1184 228 1182 q 194 1193 201 1186 q 185 1213 188 1200 q 183 1249 183 1226 l 183 1301 m 426 1301 q 428 1337 426 1324 q 438 1357 431 1350 q 458 1366 444 1364 q 493 1368 471 1368 l 504 1368 q 559 1356 547 1368 q 571 1301 571 1344 l 571 1249 q 569 1213 571 1226 q 560 1193 567 1200 q 540 1184 553 1186 q 504 1182 526 1182 l 493 1182 q 458 1184 471 1182 q 438 1193 444 1186 q 428 1213 431 1200 q 426 1249 426 1226 l 426 1301 z "},"Ā":{"ha":875,"x_min":56,"x_max":819,"o":"m 306 111 q 302 53 306 75 q 287 19 299 31 q 253 3 275 7 q 194 0 231 0 l 167 0 q 108 3 131 0 q 74 19 86 7 q 59 53 63 31 q 56 111 56 75 l 56 458 q 61 501 56 485 q 76 527 67 517 q 97 544 85 538 q 125 556 110 550 q 152 567 139 561 q 174 583 165 572 q 189 610 183 593 q 194 653 194 626 l 194 944 q 200 1067 194 1022 q 228 1133 206 1111 q 294 1161 250 1156 q 417 1167 339 1167 l 597 1167 q 719 1161 675 1167 q 786 1133 764 1156 q 814 1067 808 1111 q 819 944 819 1022 l 819 83 q 808 15 819 31 q 764 -1 796 -1 q 720 15 732 -1 q 708 83 708 31 l 708 417 q 705 475 708 453 q 690 509 701 497 q 656 524 678 521 q 597 528 633 528 l 417 528 q 358 524 381 528 q 324 508 336 521 q 309 474 313 496 q 306 414 306 451 l 306 111 m 708 944 q 705 1003 708 981 q 690 1037 701 1025 q 656 1052 678 1049 q 597 1056 633 1056 l 417 1056 q 358 1052 381 1056 q 324 1037 336 1049 q 309 1003 313 1025 q 306 944 306 981 l 306 750 q 309 692 306 714 q 324 658 313 669 q 358 642 336 646 q 417 639 381 639 l 597 639 q 656 642 633 639 q 690 658 678 646 q 705 692 701 669 q 708 750 708 714 l 708 944 m 215 1278 q 231 1322 215 1310 q 299 1333 246 1333 l 715 1333 q 783 1322 768 1333 q 799 1278 799 1310 q 783 1234 799 1246 q 715 1222 768 1222 l 299 1222 q 231 1234 246 1222 q 215 1278 215 1246 z "},"ā":{"ha":875,"x_min":56,"x_max":819,"o":"m 306 111 q 302 53 306 75 q 287 19 299 31 q 253 3 275 7 q 194 0 231 0 l 167 0 q 108 3 131 0 q 74 19 86 7 q 59 53 63 31 q 56 111 56 75 l 56 458 q 61 501 56 485 q 76 527 67 517 q 97 544 85 538 q 125 556 110 550 q 152 567 139 561 q 174 583 165 572 q 189 610 183 593 q 194 653 194 626 l 194 944 q 200 1067 194 1022 q 228 1133 206 1111 q 294 1161 250 1156 q 417 1167 339 1167 l 597 1167 q 719 1161 675 1167 q 786 1133 764 1156 q 814 1067 808 1111 q 819 944 819 1022 l 819 83 q 808 15 819 31 q 764 -1 796 -1 q 720 15 732 -1 q 708 83 708 31 l 708 417 q 705 475 708 453 q 690 509 701 497 q 656 524 678 521 q 597 528 633 528 l 417 528 q 358 524 381 528 q 324 508 336 521 q 309 474 313 496 q 306 414 306 451 l 306 111 m 708 944 q 705 1003 708 981 q 690 1037 701 1025 q 656 1052 678 1049 q 597 1056 633 1056 l 417 1056 q 358 1052 381 1056 q 324 1037 336 1049 q 309 1003 313 1025 q 306 944 306 981 l 306 750 q 309 692 306 714 q 324 658 313 669 q 358 642 336 646 q 417 639 381 639 l 597 639 q 656 642 633 639 q 690 658 678 646 q 705 692 701 669 q 708 750 708 714 l 708 944 m 215 1278 q 231 1322 215 1310 q 299 1333 246 1333 l 715 1333 q 783 1322 768 1333 q 799 1278 799 1310 q 783 1234 799 1246 q 715 1222 768 1222 l 299 1222 q 231 1234 246 1222 q 215 1278 215 1246 z "},"Ă":{"ha":875,"x_min":56,"x_max":819,"o":"m 306 111 q 302 53 306 75 q 287 19 299 31 q 253 3 275 7 q 194 0 231 0 l 167 0 q 108 3 131 0 q 74 19 86 7 q 59 53 63 31 q 56 111 56 75 l 56 458 q 61 501 56 485 q 76 527 67 517 q 97 544 85 538 q 125 556 110 550 q 152 567 139 561 q 174 583 165 572 q 189 610 183 593 q 194 653 194 626 l 194 944 q 200 1067 194 1022 q 228 1133 206 1111 q 294 1161 250 1156 q 417 1167 339 1167 l 597 1167 q 719 1161 675 1167 q 786 1133 764 1156 q 814 1067 808 1111 q 819 944 819 1022 l 819 83 q 808 15 819 31 q 764 -1 796 -1 q 720 15 732 -1 q 708 83 708 31 l 708 417 q 705 475 708 453 q 690 509 701 497 q 656 524 678 521 q 597 528 633 528 l 417 528 q 358 524 381 528 q 324 508 336 521 q 309 474 313 496 q 306 414 306 451 l 306 111 m 708 944 q 705 1003 708 981 q 690 1037 701 1025 q 656 1052 678 1049 q 597 1056 633 1056 l 417 1056 q 358 1052 381 1056 q 324 1037 336 1049 q 309 1003 313 1025 q 306 944 306 981 l 306 750 q 309 692 306 714 q 324 658 313 669 q 358 642 336 646 q 417 639 381 639 l 597 639 q 656 642 633 639 q 690 658 678 646 q 705 692 701 669 q 708 750 708 714 l 708 944 m 644 1286 q 585 1227 621 1246 q 510 1208 550 1208 q 433 1227 469 1208 q 371 1286 396 1246 l 351 1317 q 346 1333 346 1324 q 376 1356 346 1356 l 638 1356 q 667 1333 667 1356 q 663 1317 667 1325 l 644 1286 z "},"ă":{"ha":875,"x_min":56,"x_max":819,"o":"m 306 111 q 302 53 306 75 q 287 19 299 31 q 253 3 275 7 q 194 0 231 0 l 167 0 q 108 3 131 0 q 74 19 86 7 q 59 53 63 31 q 56 111 56 75 l 56 458 q 61 501 56 485 q 76 527 67 517 q 97 544 85 538 q 125 556 110 550 q 152 567 139 561 q 174 583 165 572 q 189 610 183 593 q 194 653 194 626 l 194 944 q 200 1067 194 1022 q 228 1133 206 1111 q 294 1161 250 1156 q 417 1167 339 1167 l 597 1167 q 719 1161 675 1167 q 786 1133 764 1156 q 814 1067 808 1111 q 819 944 819 1022 l 819 83 q 808 15 819 31 q 764 -1 796 -1 q 720 15 732 -1 q 708 83 708 31 l 708 417 q 705 475 708 453 q 690 509 701 497 q 656 524 678 521 q 597 528 633 528 l 417 528 q 358 524 381 528 q 324 508 336 521 q 309 474 313 496 q 306 414 306 451 l 306 111 m 708 944 q 705 1003 708 981 q 690 1037 701 1025 q 656 1052 678 1049 q 597 1056 633 1056 l 417 1056 q 358 1052 381 1056 q 324 1037 336 1049 q 309 1003 313 1025 q 306 944 306 981 l 306 750 q 309 692 306 714 q 324 658 313 669 q 358 642 336 646 q 417 639 381 639 l 597 639 q 656 642 633 639 q 690 658 678 646 q 705 692 701 669 q 708 750 708 714 l 708 944 m 644 1286 q 585 1227 621 1246 q 510 1208 550 1208 q 433 1227 469 1208 q 371 1286 396 1246 l 351 1317 q 346 1333 346 1324 q 376 1356 346 1356 l 638 1356 q 667 1333 667 1356 q 663 1317 667 1325 l 644 1286 z "},"Ą":{"ha":875,"x_min":56,"x_max":819,"o":"m 819 97 q 797 29 819 44 q 722 14 775 14 l 643 14 q 605 3 613 14 q 597 -43 597 -7 q 607 -78 597 -71 q 653 -86 617 -86 q 699 -80 689 -86 q 708 -58 708 -74 q 717 -22 708 -31 q 763 -14 725 -14 q 808 -22 800 -14 q 817 -56 817 -29 q 815 -101 817 -85 q 802 -126 813 -118 q 769 -137 792 -135 q 708 -139 747 -139 l 653 -139 q 594 -137 617 -139 q 560 -127 572 -136 q 545 -99 549 -118 q 542 -43 542 -79 q 543 19 542 -4 q 554 56 544 43 q 585 72 564 68 q 643 76 606 76 q 678 78 665 76 q 698 88 692 81 q 706 107 704 94 q 708 139 708 119 l 708 417 q 705 475 708 453 q 690 509 701 497 q 656 524 678 521 q 597 528 633 528 l 417 528 q 358 524 381 528 q 324 508 336 521 q 309 474 313 496 q 306 414 306 451 l 306 111 q 302 53 306 75 q 287 19 299 31 q 253 3 275 7 q 194 0 231 0 l 167 0 q 108 3 131 0 q 74 19 86 7 q 59 53 63 31 q 56 111 56 75 l 56 458 q 61 501 56 485 q 76 527 67 517 q 97 544 85 538 q 125 556 110 550 q 152 567 139 561 q 174 583 165 572 q 189 610 183 593 q 194 653 194 626 l 194 944 q 200 1067 194 1022 q 228 1133 206 1111 q 294 1161 250 1156 q 417 1167 339 1167 l 597 1167 q 719 1161 675 1167 q 786 1133 764 1156 q 814 1067 808 1111 q 819 944 819 1022 l 819 97 m 708 944 q 705 1003 708 981 q 690 1037 701 1025 q 656 1052 678 1049 q 597 1056 633 1056 l 417 1056 q 358 1052 381 1056 q 324 1037 336 1049 q 309 1003 313 1025 q 306 944 306 981 l 306 750 q 309 692 306 714 q 324 658 313 669 q 358 642 336 646 q 417 639 381 639 l 597 639 q 656 642 633 639 q 690 658 678 646 q 705 692 701 669 q 708 750 708 714 l 708 944 z "},"ą":{"ha":875,"x_min":56,"x_max":819,"o":"m 819 97 q 797 29 819 44 q 722 14 775 14 l 643 14 q 605 3 613 14 q 597 -43 597 -7 q 607 -78 597 -71 q 653 -86 617 -86 q 699 -80 689 -86 q 708 -58 708 -74 q 717 -22 708 -31 q 763 -14 725 -14 q 808 -22 800 -14 q 817 -56 817 -29 q 815 -101 817 -85 q 802 -126 813 -118 q 769 -137 792 -135 q 708 -139 747 -139 l 653 -139 q 594 -137 617 -139 q 560 -127 572 -136 q 545 -99 549 -118 q 542 -43 542 -79 q 543 19 542 -4 q 554 56 544 43 q 585 72 564 68 q 643 76 606 76 q 678 78 665 76 q 698 88 692 81 q 706 107 704 94 q 708 139 708 119 l 708 417 q 705 475 708 453 q 690 509 701 497 q 656 524 678 521 q 597 528 633 528 l 417 528 q 358 524 381 528 q 324 508 336 521 q 309 474 313 496 q 306 414 306 451 l 306 111 q 302 53 306 75 q 287 19 299 31 q 253 3 275 7 q 194 0 231 0 l 167 0 q 108 3 131 0 q 74 19 86 7 q 59 53 63 31 q 56 111 56 75 l 56 458 q 61 501 56 485 q 76 527 67 517 q 97 544 85 538 q 125 556 110 550 q 152 567 139 561 q 174 583 165 572 q 189 610 183 593 q 194 653 194 626 l 194 944 q 200 1067 194 1022 q 228 1133 206 1111 q 294 1161 250 1156 q 417 1167 339 1167 l 597 1167 q 719 1161 675 1167 q 786 1133 764 1156 q 814 1067 808 1111 q 819 944 819 1022 l 819 97 m 708 944 q 705 1003 708 981 q 690 1037 701 1025 q 656 1052 678 1049 q 597 1056 633 1056 l 417 1056 q 358 1052 381 1056 q 324 1037 336 1049 q 309 1003 313 1025 q 306 944 306 981 l 306 750 q 309 692 306 714 q 324 658 313 669 q 358 642 336 646 q 417 639 381 639 l 597 639 q 656 642 633 639 q 690 658 678 646 q 705 692 701 669 q 708 750 708 714 l 708 944 z "},"Ć":{"ha":750,"x_min":56,"x_max":694,"o":"m 56 944 q 61 1067 56 1022 q 89 1133 67 1111 q 156 1161 111 1156 q 278 1167 200 1167 l 472 1167 q 594 1161 550 1167 q 661 1133 639 1156 q 689 1067 683 1111 q 694 944 694 1022 l 694 875 q 691 824 694 843 q 677 795 688 806 q 648 781 667 785 q 599 778 629 778 l 542 778 q 491 781 510 778 q 462 795 472 785 q 448 824 451 806 q 444 875 444 843 l 444 943 q 441 1003 444 981 q 426 1037 438 1025 q 392 1052 414 1049 q 333 1056 369 1056 l 278 1056 q 219 1052 242 1056 q 185 1037 197 1049 q 170 1003 174 1025 q 167 944 167 981 l 167 222 q 170 164 167 186 q 185 130 174 142 q 219 115 197 118 q 278 111 242 111 l 472 111 q 531 115 508 111 q 565 130 553 118 q 580 164 576 142 q 583 222 583 186 l 583 306 q 585 348 583 332 q 593 373 588 364 q 609 385 599 382 q 638 389 619 389 q 684 374 674 389 q 694 306 694 358 l 694 222 q 689 100 694 144 q 661 33 683 56 q 594 6 639 11 q 472 0 550 0 l 278 0 q 156 6 200 0 q 89 33 111 11 q 61 100 67 56 q 56 222 56 144 l 56 944 m 464 1375 q 495 1371 482 1375 q 508 1351 508 1367 q 488 1307 508 1333 l 451 1258 q 424 1229 435 1236 q 381 1222 413 1222 l 372 1222 q 342 1232 350 1222 q 335 1269 335 1242 l 335 1328 q 347 1365 335 1356 q 383 1375 360 1375 l 464 1375 z "},"ć":{"ha":750,"x_min":56,"x_max":694,"o":"m 56 944 q 61 1067 56 1022 q 89 1133 67 1111 q 156 1161 111 1156 q 278 1167 200 1167 l 472 1167 q 594 1161 550 1167 q 661 1133 639 1156 q 689 1067 683 1111 q 694 944 694 1022 l 694 875 q 691 824 694 843 q 677 795 688 806 q 648 781 667 785 q 599 778 629 778 l 542 778 q 491 781 510 778 q 462 795 472 785 q 448 824 451 806 q 444 875 444 843 l 444 943 q 441 1003 444 981 q 426 1037 438 1025 q 392 1052 414 1049 q 333 1056 369 1056 l 278 1056 q 219 1052 242 1056 q 185 1037 197 1049 q 170 1003 174 1025 q 167 944 167 981 l 167 222 q 170 164 167 186 q 185 130 174 142 q 219 115 197 118 q 278 111 242 111 l 472 111 q 531 115 508 111 q 565 130 553 118 q 580 164 576 142 q 583 222 583 186 l 583 306 q 585 348 583 332 q 593 373 588 364 q 609 385 599 382 q 638 389 619 389 q 684 374 674 389 q 694 306 694 358 l 694 222 q 689 100 694 144 q 661 33 683 56 q 594 6 639 11 q 472 0 550 0 l 278 0 q 156 6 200 0 q 89 33 111 11 q 61 100 67 56 q 56 222 56 144 l 56 944 m 464 1375 q 495 1371 482 1375 q 508 1351 508 1367 q 488 1307 508 1333 l 451 1258 q 424 1229 435 1236 q 381 1222 413 1222 l 372 1222 q 342 1232 350 1222 q 335 1269 335 1242 l 335 1328 q 347 1365 335 1356 q 383 1375 360 1375 l 464 1375 z "},"Ĉ":{"ha":750,"x_min":56,"x_max":694,"o":"m 56 944 q 61 1067 56 1022 q 89 1133 67 1111 q 156 1161 111 1156 q 278 1167 200 1167 l 472 1167 q 594 1161 550 1167 q 661 1133 639 1156 q 689 1067 683 1111 q 694 944 694 1022 l 694 875 q 691 824 694 843 q 677 795 688 806 q 648 781 667 785 q 599 778 629 778 l 542 778 q 491 781 510 778 q 462 795 472 785 q 448 824 451 806 q 444 875 444 843 l 444 943 q 441 1003 444 981 q 426 1037 438 1025 q 392 1052 414 1049 q 333 1056 369 1056 l 278 1056 q 219 1052 242 1056 q 185 1037 197 1049 q 170 1003 174 1025 q 167 944 167 981 l 167 222 q 170 164 167 186 q 185 130 174 142 q 219 115 197 118 q 278 111 242 111 l 472 111 q 531 115 508 111 q 565 130 553 118 q 580 164 576 142 q 583 222 583 186 l 583 306 q 585 348 583 332 q 593 373 588 364 q 609 385 599 382 q 638 389 619 389 q 684 374 674 389 q 694 306 694 358 l 694 222 q 689 100 694 144 q 661 33 683 56 q 594 6 639 11 q 472 0 550 0 l 278 0 q 156 6 200 0 q 89 33 111 11 q 61 100 67 56 q 56 222 56 144 l 56 944 m 354 1371 q 397 1371 376 1392 l 532 1254 q 547 1227 551 1239 q 521 1215 543 1215 l 232 1215 q 206 1227 210 1215 q 221 1254 203 1239 l 354 1371 z "},"ĉ":{"ha":750,"x_min":56,"x_max":694,"o":"m 56 944 q 61 1067 56 1022 q 89 1133 67 1111 q 156 1161 111 1156 q 278 1167 200 1167 l 472 1167 q 594 1161 550 1167 q 661 1133 639 1156 q 689 1067 683 1111 q 694 944 694 1022 l 694 875 q 691 824 694 843 q 677 795 688 806 q 648 781 667 785 q 599 778 629 778 l 542 778 q 491 781 510 778 q 462 795 472 785 q 448 824 451 806 q 444 875 444 843 l 444 943 q 441 1003 444 981 q 426 1037 438 1025 q 392 1052 414 1049 q 333 1056 369 1056 l 278 1056 q 219 1052 242 1056 q 185 1037 197 1049 q 170 1003 174 1025 q 167 944 167 981 l 167 222 q 170 164 167 186 q 185 130 174 142 q 219 115 197 118 q 278 111 242 111 l 472 111 q 531 115 508 111 q 565 130 553 118 q 580 164 576 142 q 583 222 583 186 l 583 306 q 585 348 583 332 q 593 373 588 364 q 609 385 599 382 q 638 389 619 389 q 684 374 674 389 q 694 306 694 358 l 694 222 q 689 100 694 144 q 661 33 683 56 q 594 6 639 11 q 472 0 550 0 l 278 0 q 156 6 200 0 q 89 33 111 11 q 61 100 67 56 q 56 222 56 144 l 56 944 m 354 1371 q 397 1371 376 1392 l 532 1254 q 547 1227 551 1239 q 521 1215 543 1215 l 232 1215 q 206 1227 210 1215 q 221 1254 203 1239 l 354 1371 z "},"Ċ":{"ha":750,"x_min":56,"x_max":694,"o":"m 56 944 q 61 1067 56 1022 q 89 1133 67 1111 q 156 1161 111 1156 q 278 1167 200 1167 l 472 1167 q 594 1161 550 1167 q 661 1133 639 1156 q 689 1067 683 1111 q 694 944 694 1022 l 694 875 q 691 824 694 843 q 677 795 688 806 q 648 781 667 785 q 599 778 629 778 l 542 778 q 491 781 510 778 q 462 795 472 785 q 448 824 451 806 q 444 875 444 843 l 444 943 q 441 1003 444 981 q 426 1037 438 1025 q 392 1052 414 1049 q 333 1056 369 1056 l 278 1056 q 219 1052 242 1056 q 185 1037 197 1049 q 170 1003 174 1025 q 167 944 167 981 l 167 222 q 170 164 167 186 q 185 130 174 142 q 219 115 197 118 q 278 111 242 111 l 472 111 q 531 115 508 111 q 565 130 553 118 q 580 164 576 142 q 583 222 583 186 l 583 306 q 585 348 583 332 q 593 373 588 364 q 609 385 599 382 q 638 389 619 389 q 684 374 674 389 q 694 306 694 358 l 694 222 q 689 100 694 144 q 661 33 683 56 q 594 6 639 11 q 472 0 550 0 l 278 0 q 156 6 200 0 q 89 33 111 11 q 61 100 67 56 q 56 222 56 144 l 56 944 m 375 1389 q 442 1373 426 1389 q 458 1306 458 1357 q 455 1263 458 1279 q 442 1238 451 1247 q 417 1226 433 1229 q 375 1222 401 1222 q 333 1226 349 1222 q 308 1238 317 1229 q 295 1263 299 1247 q 292 1306 292 1279 q 295 1348 292 1332 q 308 1373 299 1364 q 333 1385 317 1382 q 375 1389 349 1389 z "},"ċ":{"ha":750,"x_min":56,"x_max":694,"o":"m 56 944 q 61 1067 56 1022 q 89 1133 67 1111 q 156 1161 111 1156 q 278 1167 200 1167 l 472 1167 q 594 1161 550 1167 q 661 1133 639 1156 q 689 1067 683 1111 q 694 944 694 1022 l 694 875 q 691 824 694 843 q 677 795 688 806 q 648 781 667 785 q 599 778 629 778 l 542 778 q 491 781 510 778 q 462 795 472 785 q 448 824 451 806 q 444 875 444 843 l 444 943 q 441 1003 444 981 q 426 1037 438 1025 q 392 1052 414 1049 q 333 1056 369 1056 l 278 1056 q 219 1052 242 1056 q 185 1037 197 1049 q 170 1003 174 1025 q 167 944 167 981 l 167 222 q 170 164 167 186 q 185 130 174 142 q 219 115 197 118 q 278 111 242 111 l 472 111 q 531 115 508 111 q 565 130 553 118 q 580 164 576 142 q 583 222 583 186 l 583 306 q 585 348 583 332 q 593 373 588 364 q 609 385 599 382 q 638 389 619 389 q 684 374 674 389 q 694 306 694 358 l 694 222 q 689 100 694 144 q 661 33 683 56 q 594 6 639 11 q 472 0 550 0 l 278 0 q 156 6 200 0 q 89 33 111 11 q 61 100 67 56 q 56 222 56 144 l 56 944 m 375 1389 q 442 1373 426 1389 q 458 1306 458 1357 q 455 1263 458 1279 q 442 1238 451 1247 q 417 1226 433 1229 q 375 1222 401 1222 q 333 1226 349 1222 q 308 1238 317 1229 q 295 1263 299 1247 q 292 1306 292 1279 q 295 1348 292 1332 q 308 1373 299 1364 q 333 1385 317 1382 q 375 1389 349 1389 z "},"Č":{"ha":750,"x_min":56,"x_max":694,"o":"m 56 944 q 61 1067 56 1022 q 89 1133 67 1111 q 156 1161 111 1156 q 278 1167 200 1167 l 472 1167 q 594 1161 550 1167 q 661 1133 639 1156 q 689 1067 683 1111 q 694 944 694 1022 l 694 875 q 691 824 694 843 q 677 795 688 806 q 648 781 667 785 q 599 778 629 778 l 542 778 q 491 781 510 778 q 462 795 472 785 q 448 824 451 806 q 444 875 444 843 l 444 943 q 441 1003 444 981 q 426 1037 438 1025 q 392 1052 414 1049 q 333 1056 369 1056 l 278 1056 q 219 1052 242 1056 q 185 1037 197 1049 q 170 1003 174 1025 q 167 944 167 981 l 167 222 q 170 164 167 186 q 185 130 174 142 q 219 115 197 118 q 278 111 242 111 l 472 111 q 531 115 508 111 q 565 130 553 118 q 580 164 576 142 q 583 222 583 186 l 583 306 q 585 348 583 332 q 593 373 588 364 q 609 385 599 382 q 638 389 619 389 q 684 374 674 389 q 694 306 694 358 l 694 222 q 689 100 694 144 q 661 33 683 56 q 594 6 639 11 q 472 0 550 0 l 278 0 q 156 6 200 0 q 89 33 111 11 q 61 100 67 56 q 56 222 56 144 l 56 944 m 399 1200 q 356 1200 376 1179 l 221 1317 q 206 1344 201 1332 q 232 1356 210 1356 l 521 1356 q 547 1344 543 1356 q 532 1317 550 1332 l 399 1200 z "},"č":{"ha":750,"x_min":56,"x_max":694,"o":"m 56 944 q 61 1067 56 1022 q 89 1133 67 1111 q 156 1161 111 1156 q 278 1167 200 1167 l 472 1167 q 594 1161 550 1167 q 661 1133 639 1156 q 689 1067 683 1111 q 694 944 694 1022 l 694 875 q 691 824 694 843 q 677 795 688 806 q 648 781 667 785 q 599 778 629 778 l 542 778 q 491 781 510 778 q 462 795 472 785 q 448 824 451 806 q 444 875 444 843 l 444 943 q 441 1003 444 981 q 426 1037 438 1025 q 392 1052 414 1049 q 333 1056 369 1056 l 278 1056 q 219 1052 242 1056 q 185 1037 197 1049 q 170 1003 174 1025 q 167 944 167 981 l 167 222 q 170 164 167 186 q 185 130 174 142 q 219 115 197 118 q 278 111 242 111 l 472 111 q 531 115 508 111 q 565 130 553 118 q 580 164 576 142 q 583 222 583 186 l 583 306 q 585 348 583 332 q 593 373 588 364 q 609 385 599 382 q 638 389 619 389 q 684 374 674 389 q 694 306 694 358 l 694 222 q 689 100 694 144 q 661 33 683 56 q 594 6 639 11 q 472 0 550 0 l 278 0 q 156 6 200 0 q 89 33 111 11 q 61 100 67 56 q 56 222 56 144 l 56 944 m 399 1200 q 356 1200 376 1179 l 221 1317 q 206 1344 201 1332 q 232 1356 210 1356 l 521 1356 q 547 1344 543 1356 q 532 1317 550 1332 l 399 1200 z "},"Ď":{"ha":861,"x_min":56,"x_max":806,"o":"m 56 1056 q 59 1114 56 1092 q 74 1148 63 1136 q 108 1163 86 1160 q 167 1167 131 1167 l 444 1167 q 606 1150 538 1167 q 719 1094 675 1133 q 784 990 763 1054 q 806 833 806 926 l 806 333 q 784 176 806 239 q 719 73 763 113 q 606 17 675 33 q 444 0 538 0 l 167 0 q 108 3 131 0 q 74 19 86 7 q 59 53 63 31 q 56 111 56 75 l 56 1056 m 694 833 q 683 933 694 890 q 642 1002 671 975 q 565 1042 614 1029 q 444 1056 517 1056 l 417 1056 q 358 1052 381 1056 q 324 1037 336 1049 q 309 1003 313 1025 q 306 943 306 981 l 306 222 q 309 164 306 186 q 324 130 313 142 q 358 115 336 118 q 417 111 379 111 l 444 111 q 565 124 517 111 q 642 165 614 138 q 683 234 671 192 q 694 333 694 276 l 694 833 m 453 1200 q 410 1200 431 1179 l 275 1317 q 260 1344 256 1332 q 286 1356 264 1356 l 575 1356 q 601 1344 597 1356 q 586 1317 604 1332 l 453 1200 z "},"ď":{"ha":861,"x_min":56,"x_max":806,"o":"m 56 1056 q 59 1114 56 1092 q 74 1148 63 1136 q 108 1163 86 1160 q 167 1167 131 1167 l 444 1167 q 606 1150 538 1167 q 719 1094 675 1133 q 784 990 763 1054 q 806 833 806 926 l 806 333 q 784 176 806 239 q 719 73 763 113 q 606 17 675 33 q 444 0 538 0 l 167 0 q 108 3 131 0 q 74 19 86 7 q 59 53 63 31 q 56 111 56 75 l 56 1056 m 694 833 q 683 933 694 890 q 642 1002 671 975 q 565 1042 614 1029 q 444 1056 517 1056 l 417 1056 q 358 1052 381 1056 q 324 1037 336 1049 q 309 1003 313 1025 q 306 943 306 981 l 306 222 q 309 164 306 186 q 324 130 313 142 q 358 115 336 118 q 417 111 379 111 l 444 111 q 565 124 517 111 q 642 165 614 138 q 683 234 671 192 q 694 333 694 276 l 694 833 m 453 1200 q 410 1200 431 1179 l 275 1317 q 260 1344 256 1332 q 286 1356 264 1356 l 575 1356 q 601 1344 597 1356 q 586 1317 604 1332 l 453 1200 z "},"Đ":{"ha":944,"x_min":0,"x_max":889,"o":"m 0 583 q 15 627 0 615 q 83 639 31 639 q 114 640 103 639 q 131 647 125 642 q 138 664 136 653 q 139 694 139 675 l 139 1056 q 142 1114 139 1092 q 158 1148 146 1136 q 192 1163 169 1160 q 250 1167 214 1167 l 528 1167 q 690 1150 621 1167 q 802 1094 758 1133 q 867 990 846 1054 q 889 833 889 926 l 889 333 q 867 176 889 239 q 802 73 846 113 q 690 17 758 33 q 528 0 621 0 l 250 0 q 192 3 214 0 q 158 19 169 7 q 142 53 146 31 q 139 111 139 75 l 139 472 q 131 519 139 511 q 83 528 122 528 q 15 540 31 528 q 0 583 0 551 m 778 833 q 766 933 778 890 q 726 1002 754 975 q 649 1042 697 1029 q 528 1056 600 1056 l 500 1056 q 442 1052 464 1056 q 408 1037 419 1049 q 392 1003 396 1025 q 389 943 389 981 l 389 694 q 390 664 389 675 q 397 647 392 653 q 414 640 403 642 q 444 639 425 639 l 528 639 q 596 627 581 639 q 611 583 611 615 q 596 540 611 551 q 528 528 581 528 l 444 528 q 414 526 425 528 q 397 519 403 525 q 390 503 392 514 q 389 472 389 492 l 389 222 q 392 164 389 186 q 408 130 396 142 q 441 115 419 118 q 500 111 463 111 l 528 111 q 649 124 600 111 q 726 165 697 138 q 766 234 754 192 q 778 333 778 276 l 778 833 z "},"đ":{"ha":944,"x_min":0,"x_max":889,"o":"m 0 583 q 15 627 0 615 q 83 639 31 639 q 114 640 103 639 q 131 647 125 642 q 138 664 136 653 q 139 694 139 675 l 139 1056 q 142 1114 139 1092 q 158 1148 146 1136 q 192 1163 169 1160 q 250 1167 214 1167 l 528 1167 q 690 1150 621 1167 q 802 1094 758 1133 q 867 990 846 1054 q 889 833 889 926 l 889 333 q 867 176 889 239 q 802 73 846 113 q 690 17 758 33 q 528 0 621 0 l 250 0 q 192 3 214 0 q 158 19 169 7 q 142 53 146 31 q 139 111 139 75 l 139 472 q 131 519 139 511 q 83 528 122 528 q 15 540 31 528 q 0 583 0 551 m 778 833 q 766 933 778 890 q 726 1002 754 975 q 649 1042 697 1029 q 528 1056 600 1056 l 500 1056 q 442 1052 464 1056 q 408 1037 419 1049 q 392 1003 396 1025 q 389 943 389 981 l 389 694 q 390 664 389 675 q 397 647 392 653 q 414 640 403 642 q 444 639 425 639 l 528 639 q 596 627 581 639 q 611 583 611 615 q 596 540 611 551 q 528 528 581 528 l 444 528 q 414 526 425 528 q 397 519 403 525 q 390 503 392 514 q 389 472 389 492 l 389 222 q 392 164 389 186 q 408 130 396 142 q 441 115 419 118 q 500 111 463 111 l 528 111 q 649 124 600 111 q 726 165 697 138 q 766 234 754 192 q 778 333 778 276 l 778 833 z "},"Ē":{"ha":722,"x_min":56,"x_max":667,"o":"m 56 944 q 61 1067 56 1022 q 89 1133 67 1111 q 156 1161 111 1156 q 278 1167 200 1167 l 583 1167 q 651 1155 636 1167 q 667 1111 667 1143 q 651 1067 667 1079 q 583 1056 636 1056 l 278 1056 q 219 1052 242 1056 q 185 1037 197 1049 q 170 1003 174 1025 q 167 944 167 981 l 167 750 q 170 692 167 714 q 185 658 174 669 q 219 642 197 646 q 278 639 242 639 l 583 639 q 651 627 636 639 q 667 583 667 615 q 651 540 667 551 q 583 528 636 528 l 417 528 q 358 524 381 528 q 324 509 336 521 q 309 475 313 497 q 306 417 306 453 l 306 222 q 309 164 306 186 q 324 130 313 142 q 358 115 336 118 q 417 111 381 111 l 583 111 q 651 99 636 111 q 667 56 667 88 q 651 12 667 24 q 583 0 636 0 l 278 0 q 156 6 200 0 q 89 33 111 11 q 61 100 67 56 q 56 222 56 144 l 56 944 m 71 1278 q 86 1322 71 1310 q 154 1333 101 1333 l 571 1333 q 639 1322 624 1333 q 654 1278 654 1310 q 639 1234 654 1246 q 571 1222 624 1222 l 154 1222 q 86 1234 101 1222 q 71 1278 71 1246 z "},"ē":{"ha":722,"x_min":56,"x_max":667,"o":"m 56 944 q 61 1067 56 1022 q 89 1133 67 1111 q 156 1161 111 1156 q 278 1167 200 1167 l 583 1167 q 651 1155 636 1167 q 667 1111 667 1143 q 651 1067 667 1079 q 583 1056 636 1056 l 278 1056 q 219 1052 242 1056 q 185 1037 197 1049 q 170 1003 174 1025 q 167 944 167 981 l 167 750 q 170 692 167 714 q 185 658 174 669 q 219 642 197 646 q 278 639 242 639 l 583 639 q 651 627 636 639 q 667 583 667 615 q 651 540 667 551 q 583 528 636 528 l 417 528 q 358 524 381 528 q 324 509 336 521 q 309 475 313 497 q 306 417 306 453 l 306 222 q 309 164 306 186 q 324 130 313 142 q 358 115 336 118 q 417 111 381 111 l 583 111 q 651 99 636 111 q 667 56 667 88 q 651 12 667 24 q 583 0 636 0 l 278 0 q 156 6 200 0 q 89 33 111 11 q 61 100 67 56 q 56 222 56 144 l 56 944 m 71 1278 q 86 1322 71 1310 q 154 1333 101 1333 l 571 1333 q 639 1322 624 1333 q 654 1278 654 1310 q 639 1234 654 1246 q 571 1222 624 1222 l 154 1222 q 86 1234 101 1222 q 71 1278 71 1246 z "},"Ĕ":{"ha":722,"x_min":56,"x_max":667,"o":"m 56 944 q 61 1067 56 1022 q 89 1133 67 1111 q 156 1161 111 1156 q 278 1167 200 1167 l 583 1167 q 651 1155 636 1167 q 667 1111 667 1143 q 651 1067 667 1079 q 583 1056 636 1056 l 278 1056 q 219 1052 242 1056 q 185 1037 197 1049 q 170 1003 174 1025 q 167 944 167 981 l 167 750 q 170 692 167 714 q 185 658 174 669 q 219 642 197 646 q 278 639 242 639 l 583 639 q 651 627 636 639 q 667 583 667 615 q 651 540 667 551 q 583 528 636 528 l 417 528 q 358 524 381 528 q 324 509 336 521 q 309 475 313 497 q 306 417 306 453 l 306 222 q 309 164 306 186 q 324 130 313 142 q 358 115 336 118 q 417 111 381 111 l 583 111 q 651 99 636 111 q 667 56 667 88 q 651 12 667 24 q 583 0 636 0 l 278 0 q 156 6 200 0 q 89 33 111 11 q 61 100 67 56 q 56 222 56 144 l 56 944 m 515 1286 q 456 1227 492 1246 q 381 1208 421 1208 q 303 1227 340 1208 q 242 1286 267 1246 l 222 1317 q 217 1333 217 1324 q 247 1356 217 1356 l 508 1356 q 538 1333 538 1356 q 533 1317 538 1325 l 515 1286 z "}}}
